<svg width="28" height="28" viewBox="0 0 28 28" fill="none" xmlns="http://www.w3.org/2000/svg">
<path fill-rule="evenodd" clip-rule="evenodd" d="M6.26832 6.26857C7.42693 5.10996 9.16067 4.66699 11.3954 4.66699H16.6047C18.8395 4.66699 20.5733 5.10996 21.7318 6.26857C22.8904 7.42718 23.3334 9.16091 23.3334 11.3957V16.605C23.3334 18.8398 22.8904 20.5735 21.7318 21.7321C20.5733 22.8907 18.8395 23.3337 16.6047 23.3337H11.3954C9.16067 23.3337 7.42693 22.8907 6.26832 21.7321C5.10971 20.5735 4.66675 18.8398 4.66675 16.605V11.3957C4.66675 9.16091 5.10971 7.42718 6.26832 6.26857ZM7.1892 7.18945C6.39433 7.98433 5.96907 9.28935 5.96907 11.3957V16.605C5.96907 18.7113 6.39433 20.0163 7.1892 20.8112C7.98408 21.6061 9.28911 22.0313 11.3954 22.0313H16.6047C18.711 22.0313 20.016 21.6061 20.811 20.8112C21.6058 20.0163 22.0311 18.7113 22.0311 16.605V11.3957C22.0311 9.28935 21.6058 7.98433 20.811 7.18945C20.016 6.39457 18.711 5.96932 16.6047 5.96932H11.3954C9.28911 5.96932 7.98408 6.39457 7.1892 7.18945Z" fill="white"/>
<path fill-rule="evenodd" clip-rule="evenodd" d="M18.4537 11.3231C18.738 11.5434 18.7897 11.9524 18.5694 12.2367L16.56 14.8289C16.0435 15.4821 15.0912 15.6012 14.4268 15.0879L14.4223 15.0843L12.8364 13.8364C12.7385 13.762 12.6018 13.7805 12.5274 13.8765C12.5274 13.8766 12.5275 13.8764 12.5274 13.8765L10.4615 16.5588C10.2421 16.8437 9.8332 16.8967 9.54828 16.6773C9.26337 16.4578 9.21031 16.049 9.42975 15.7641L11.4967 13.0805C12.0124 12.4132 12.9685 12.2926 13.6343 12.8071L13.6388 12.8106L15.2247 14.0585C15.3237 14.1337 15.4632 14.1144 15.5371 14.0228L17.5402 11.4388C17.7604 11.1545 18.1695 11.1027 18.4537 11.3231Z" fill="white"/>
</svg>
