<svg width="24" height="24" viewBox="0 0 24 24" fill="none" xmlns="http://www.w3.org/2000/svg">
<path fill-rule="evenodd" clip-rule="evenodd" d="M10.4976 5.14656C8.98996 5.14656 7.76774 6.42989 7.76774 8.01295C7.76774 9.59602 8.98996 10.8793 10.4976 10.8793C12.0053 10.8793 13.2275 9.59602 13.2275 8.01295C13.2275 6.42989 12.0053 5.14656 10.4976 5.14656ZM6.67578 8.01295C6.67578 5.79666 8.38689 4 10.4976 4C12.6084 4 14.3195 5.79666 14.3195 8.01295C14.3195 10.2293 12.6084 12.0259 10.4976 12.0259C8.38689 12.0259 6.67578 10.2293 6.67578 8.01295Z" fill="white"/>
<path fill-rule="evenodd" clip-rule="evenodd" d="M10.6892 11.9651C7.62864 11.9651 5.14753 14.3156 5.14753 17.2151C5.14753 17.5151 4.89087 17.7583 4.57426 17.7583C4.25764 17.7583 4.00098 17.5151 4.00098 17.2151C4.00098 13.7157 6.99541 10.8789 10.6892 10.8789C11.0058 10.8789 11.2625 11.1221 11.2625 11.422C11.2625 11.722 11.0058 11.9651 10.6892 11.9651Z" fill="white"/>
<path d="M20.0417 15.0908L19.4529 14.947C19.3797 14.6187 19.2632 14.3065 19.1104 14.0166L19.4658 13.5265C19.5854 13.3614 19.5767 13.136 19.4448 12.9809L19.1181 12.5965C18.9862 12.4411 18.7654 12.3962 18.5832 12.4875L18.0411 12.7597C17.6193 12.4417 17.1288 12.2102 16.5958 12.0915L16.4523 11.5033C16.4039 11.3053 16.2265 11.166 16.0227 11.166H15.5184C15.3146 11.166 15.1372 11.3053 15.0889 11.5033L14.9454 12.0921C14.4394 12.2053 13.9715 12.4201 13.5649 12.7142L13.0286 12.4314C12.8484 12.3363 12.6265 12.3769 12.4914 12.5294L12.157 12.907C12.0219 13.0596 12.0086 13.2846 12.1251 13.452L12.4701 13.9486C12.2989 14.2579 12.1702 14.5935 12.0909 14.9479L11.5095 15.0866C11.3111 15.1337 11.1709 15.3104 11.1699 15.5142L11.167 16.0185C11.1657 16.2223 11.3041 16.4003 11.5017 16.45L12.0906 16.5974C12.1638 16.9263 12.2802 17.2391 12.4333 17.5293L12.0802 18.0111C11.9596 18.1755 11.9674 18.4009 12.0983 18.5567L12.423 18.943C12.5543 19.0991 12.7748 19.1452 12.9574 19.0546L13.502 18.785C13.9241 19.1036 14.4152 19.3351 14.9489 19.4541L15.0873 20.0352C15.1343 20.2335 15.3111 20.3738 15.5149 20.3748L16.0192 20.3774C16.223 20.3783 16.401 20.24 16.4503 20.0423L16.5974 19.4535C17.1066 19.3397 17.5771 19.123 17.9856 18.8263L18.5129 19.1078C18.6925 19.2039 18.9147 19.1645 19.0504 19.0127L19.3867 18.6367C19.5225 18.4848 19.537 18.2597 19.4216 18.0917L19.0772 17.5899C19.2465 17.2826 19.3742 16.9492 19.4529 16.597L20.041 16.4539C20.239 16.4058 20.3783 16.2285 20.3783 16.0247L20.3787 15.5203C20.3787 15.3165 20.2394 15.1392 20.0417 15.0908ZM15.7719 17.8595C14.6194 17.8595 13.6852 16.9253 13.6852 15.7728C13.6852 14.6203 14.6194 13.6861 15.7719 13.6861C16.9244 13.6861 17.8586 14.6203 17.8586 15.7728C17.8586 16.9253 16.9244 17.8595 15.7719 17.8595Z" fill="white"/>
</svg>
