<svg width="24" height="24" viewBox="0 0 24 24" fill="none" xmlns="http://www.w3.org/2000/svg">
<path fill-rule="evenodd" clip-rule="evenodd" d="M5.37278 5.37278C6.36587 4.37968 7.85193 4 9.76744 4H14.2326C16.1481 4 17.6342 4.37968 18.6272 5.37278C19.6203 6.36587 20 7.85193 20 9.76744V14.2326C20 16.1481 19.6203 17.6342 18.6272 18.6272C17.6342 19.6203 16.1481 20 14.2326 20H9.76744C7.85193 20 6.36587 19.6203 5.37278 18.6272C4.37968 17.6342 4 16.1481 4 14.2326V9.76744C4 7.85193 4.37968 6.36587 5.37278 5.37278ZM6.16211 6.16211C5.48078 6.84343 5.11628 7.96202 5.11628 9.76744V14.2326C5.11628 16.038 5.48078 17.1565 6.16211 17.8379C6.84343 18.5192 7.96202 18.8837 9.76744 18.8837H14.2326C16.038 18.8837 17.1565 18.5192 17.8379 17.8379C18.5192 17.1565 18.8837 16.038 18.8837 14.2326V9.76744C18.8837 7.96202 18.5192 6.84343 17.8379 6.16211C17.1565 5.48078 16.038 5.11628 14.2326 5.11628H9.76744C7.96202 5.11628 6.84343 5.48078 6.16211 6.16211Z" fill="white"/>
<path fill-rule="evenodd" clip-rule="evenodd" d="M15.8176 9.70493C16.0613 9.89378 16.1056 10.2444 15.9168 10.488L14.1945 12.7099C13.7517 13.2698 12.9354 13.3719 12.366 12.9319L12.3621 12.9289L11.0028 11.8592C10.9189 11.7955 10.8017 11.8113 10.7379 11.8936C10.7379 11.8937 10.738 11.8935 10.7379 11.8936L8.96715 14.1927C8.77905 14.4369 8.4286 14.4824 8.18438 14.2943C7.94017 14.1062 7.89469 13.7557 8.08278 13.5115L9.85448 11.2113C10.2965 10.6393 11.116 10.5359 11.6867 10.9769L11.6906 10.98L13.0499 12.0496C13.1347 12.1141 13.2543 12.0975 13.3177 12.0189L15.0346 9.80411C15.2234 9.56048 15.574 9.51608 15.8176 9.70493Z" fill="white"/>
</svg>
