<svg width="24" height="24" viewBox="0 0 24 24" fill="none" xmlns="http://www.w3.org/2000/svg">
<path fill-rule="evenodd" clip-rule="evenodd" d="M4 12C4 7.58172 7.58172 4 12 4C16.4183 4 20 7.58172 20 12C20 16.4183 16.4183 20 12 20C7.58172 20 4 16.4183 4 12ZM18.4 12C18.4 8.46538 15.5346 5.6 12 5.6C8.46538 5.6 5.6 8.46538 5.6 12C5.6 15.5346 8.46538 18.4 12 18.4C15.5346 18.4 18.4 15.5346 18.4 12ZM12 8C12.4103 8 12.7484 8.30883 12.7946 8.7067L12.8 8.8V12C12.8 12.4418 12.4418 12.8 12 12.8C11.5897 12.8 11.2516 12.4912 11.2054 12.0933L11.2 12V8.8C11.2 8.35817 11.5582 8 12 8ZM12.808 15.2C12.808 14.7582 12.4498 14.4 12.008 14.4L11.9067 14.4054C11.5088 14.4516 11.2 14.7897 11.2 15.2C11.2 15.6418 11.5582 16 12 16L12.1013 15.9946C12.4992 15.9484 12.808 15.6103 12.808 15.2Z" fill="white"/>
</svg>
