<svg width="24" height="24" viewBox="0 0 24 24" fill="none" xmlns="http://www.w3.org/2000/svg">
<g clip-path="url(#clip0_2950_65794)">
<path d="M14.9662 5.55483H9.03265C8.97581 5.55483 8.92131 5.53226 8.88112 5.49207C8.84094 5.45188 8.81836 5.39738 8.81836 5.34055C8.82667 4.95898 8.92231 4.58439 9.09793 4.24554C9.27356 3.90669 9.52451 3.61259 9.8315 3.38583L10.7744 2.64912C10.7976 2.63108 10.8242 2.618 10.8527 2.61071C10.8812 2.60341 10.9109 2.60205 10.9399 2.60672C10.9689 2.61138 10.9967 2.62196 11.0214 2.63781C11.0462 2.65366 11.0674 2.67443 11.0838 2.69883H12.9146C12.931 2.67443 12.9523 2.65366 12.977 2.63781C13.0018 2.62196 13.0295 2.61138 13.0586 2.60672C13.0876 2.60205 13.1172 2.60341 13.1457 2.61071C13.1742 2.618 13.2009 2.63108 13.2241 2.64912L14.1669 3.38583C14.474 3.61266 14.7249 3.90683 14.9005 4.24575C15.0762 4.58467 15.1718 4.95934 15.1801 5.34098C15.18 5.39766 15.1574 5.45199 15.1173 5.49207C15.0772 5.53215 15.0229 5.55472 14.9662 5.55483ZM9.25979 5.12626H14.7391C14.6994 4.84881 14.6051 4.58198 14.4617 4.34121C14.3182 4.10043 14.1285 3.8905 13.9034 3.72355L13.1345 3.12355C13.1204 3.12636 13.106 3.1278 13.0916 3.12783H10.9059C10.8915 3.12778 10.8772 3.12634 10.8631 3.12355L10.0946 3.72355C9.86969 3.89058 9.68008 4.10055 9.53678 4.34132C9.39348 4.58209 9.29933 4.84888 9.25979 5.12626Z" fill="white"/>
<path d="M5.20627 23.0467H1.99456C1.93773 23.0467 1.88322 23.0241 1.84304 22.9839C1.80285 22.9437 1.78027 22.8892 1.78027 22.8324V12.5038C1.78027 12.447 1.80285 12.3925 1.84304 12.3523C1.88322 12.3121 1.93773 12.2896 1.99456 12.2896H5.20627C5.2631 12.2896 5.31761 12.3121 5.3578 12.3523C5.39798 12.3925 5.42056 12.447 5.42056 12.5038V22.8324C5.42056 22.8892 5.39798 22.9437 5.3578 22.9839C5.31761 23.0241 5.2631 23.0467 5.20627 23.0467ZM2.20884 22.6181H4.99199V12.7181H2.20884V22.6181Z" fill="white"/>
<path d="M22.0061 23.0467H18.7944C18.7375 23.0467 18.683 23.0241 18.6428 22.9839C18.6027 22.9437 18.5801 22.8892 18.5801 22.8324V12.5038C18.5801 12.447 18.6027 12.3925 18.6428 12.3523C18.683 12.3121 18.7375 12.2896 18.7944 12.2896H22.0061C22.0629 12.2896 22.1174 12.3121 22.1576 12.3523C22.1978 12.3925 22.2204 12.447 22.2204 12.5038V22.8324C22.2204 22.8892 22.1978 22.9437 22.1576 22.9839C22.1174 23.0241 22.0629 23.0467 22.0061 23.0467ZM19.0086 22.6181H21.7918V12.7181H19.0086V22.6181Z" fill="white"/>
<path d="M10.2538 23.0468H8.70061C8.64378 23.0468 8.58928 23.0242 8.54909 22.984C8.50891 22.9438 8.48633 22.8893 8.48633 22.8325V16.3735C8.48633 16.3166 8.50891 16.2621 8.54909 16.2219C8.58928 16.1818 8.64378 16.1592 8.70061 16.1592H10.2538C10.3106 16.1592 10.3651 16.1818 10.4053 16.2219C10.4455 16.2621 10.468 16.3166 10.468 16.3735V22.8325C10.468 22.8893 10.4455 22.9438 10.4053 22.984C10.3651 23.0242 10.3106 23.0468 10.2538 23.0468ZM8.9149 22.6182H10.0395V16.5878H8.9149V22.6182Z" fill="white"/>
<path d="M13.7461 23.0468H10.2524C10.1955 23.0468 10.141 23.0242 10.1008 22.984C10.0607 22.9438 10.0381 22.8893 10.0381 22.8325V16.3735C10.0381 16.3166 10.0607 16.2621 10.1008 16.2219C10.141 16.1818 10.1955 16.1592 10.2524 16.1592H13.7461C13.8029 16.1592 13.8574 16.1818 13.8976 16.2219C13.9378 16.2621 13.9604 16.3166 13.9604 16.3735V22.8325C13.9604 22.8893 13.9378 22.9438 13.8976 22.984C13.8574 23.0242 13.8029 23.0468 13.7461 23.0468ZM10.4667 22.6182H13.5318V16.5878H10.4667V22.6182Z" fill="white"/>
<path d="M6.76004 23.0468H5.20647C5.14964 23.0468 5.09514 23.0242 5.05495 22.984C5.01476 22.9438 4.99219 22.8893 4.99219 22.8325V16.3735C4.99219 16.3166 5.01476 16.2621 5.05495 16.2219C5.09514 16.1818 5.14964 16.1592 5.20647 16.1592H6.76004C6.81688 16.1592 6.87138 16.1818 6.91157 16.2219C6.95175 16.2621 6.97433 16.3166 6.97433 16.3735V22.8325C6.97433 22.8893 6.95175 22.9438 6.91157 22.984C6.87138 23.0242 6.81688 23.0468 6.76004 23.0468ZM5.42076 22.6182H6.54576V16.5878H5.42076V22.6182Z" fill="white"/>
<path d="M8.70021 23.0468H6.75921C6.70238 23.0468 6.64787 23.0242 6.60768 22.984C6.5675 22.9438 6.54492 22.8893 6.54492 22.8325V16.3735C6.54492 16.3166 6.5675 16.2621 6.60768 16.2219C6.64787 16.1818 6.70238 16.1592 6.75921 16.1592H8.70021C8.75704 16.1592 8.81154 16.1818 8.85173 16.2219C8.89192 16.2621 8.91449 16.3166 8.91449 16.3735V22.8325C8.91449 22.8893 8.89192 22.9438 8.85173 22.984C8.81154 23.0242 8.75704 23.0468 8.70021 23.0468ZM6.97349 22.6182H8.48592V16.5878H6.97349V22.6182Z" fill="white"/>
<path d="M18.7942 23.0468H17.2407C17.1838 23.0468 17.1293 23.0242 17.0891 22.984C17.0489 22.9438 17.0264 22.8893 17.0264 22.8325V16.3735C17.0264 16.3166 17.0489 16.2621 17.0891 16.2219C17.1293 16.1818 17.1838 16.1592 17.2407 16.1592H18.7942C18.8511 16.1592 18.9056 16.1818 18.9457 16.2219C18.9859 16.2621 19.0085 16.3166 19.0085 16.3735V22.8325C19.0085 22.8893 18.9859 22.9438 18.9457 22.984C18.9056 23.0242 18.8511 23.0468 18.7942 23.0468ZM17.4549 22.6182H18.5799V16.5878H17.4549V22.6182Z" fill="white"/>
<path d="M15.3006 23.0468H13.7475C13.6907 23.0468 13.6362 23.0242 13.596 22.984C13.5558 22.9438 13.5332 22.8893 13.5332 22.8325V16.3735C13.5332 16.3166 13.5558 16.2621 13.596 16.2219C13.6362 16.1818 13.6907 16.1592 13.7475 16.1592H15.3006C15.3575 16.1592 15.412 16.1818 15.4522 16.2219C15.4923 16.2621 15.5149 16.3166 15.5149 16.3735V22.8325C15.5149 22.8893 15.4923 22.9438 15.4522 22.984C15.412 23.0242 15.3575 23.0468 15.3006 23.0468ZM13.9618 22.6182H15.0863V16.5878H13.9618V22.6182Z" fill="white"/>
<path d="M17.2412 23.0468H15.3002C15.2434 23.0468 15.1889 23.0242 15.1487 22.984C15.1085 22.9438 15.0859 22.8893 15.0859 22.8325V16.3735C15.0859 16.3166 15.1085 16.2621 15.1487 16.2219C15.1889 16.1818 15.2434 16.1592 15.3002 16.1592H17.2412C17.2981 16.1592 17.3526 16.1818 17.3927 16.2219C17.4329 16.2621 17.4555 16.3166 17.4555 16.3735V22.8325C17.4555 22.8893 17.4329 22.9438 17.3927 22.984C17.3526 23.0242 17.2981 23.0468 17.2412 23.0468ZM15.5145 22.6182H17.0269V16.5878H15.5145V22.6182Z" fill="white"/>
<path d="M18.7956 16.5873H5.20647C5.14964 16.5873 5.09514 16.5647 5.05495 16.5245C5.01476 16.4843 4.99219 16.4298 4.99219 16.373V15.4199C4.99219 15.363 5.01476 15.3085 5.05495 15.2683C5.09514 15.2281 5.14964 15.2056 5.20647 15.2056H18.7956C18.8524 15.2056 18.907 15.2281 18.9471 15.2683C18.9873 15.3085 19.0099 15.363 19.0099 15.4199V16.373C19.0099 16.4298 18.9873 16.4843 18.9471 16.5245C18.907 16.5647 18.8524 16.5873 18.7956 16.5873ZM5.42076 16.1587H18.5813V15.6341H5.42076V16.1587Z" fill="white"/>
<path d="M23.1358 23.9999H0.864676C0.807844 23.9999 0.75334 23.9773 0.713153 23.9371C0.672967 23.8969 0.650391 23.8424 0.650391 23.7856V22.8324C0.650391 22.7756 0.672967 22.7211 0.713153 22.6809C0.75334 22.6407 0.807844 22.6182 0.864676 22.6182H23.1358C23.1926 22.6182 23.2472 22.6407 23.2873 22.6809C23.3275 22.7211 23.3501 22.7756 23.3501 22.8324V23.7856C23.3501 23.8424 23.3275 23.8969 23.2873 23.9371C23.2472 23.9773 23.1926 23.9999 23.1358 23.9999ZM1.07896 23.5713H22.9215V23.0467H1.07896V23.5713Z" fill="white"/>
<path d="M18.7956 15.6344H5.20647C5.14964 15.6344 5.09514 15.6118 5.05495 15.5716C5.01476 15.5314 4.99219 15.4769 4.99219 15.4201V13.8202C4.99219 13.7634 5.01476 13.7089 5.05495 13.6687C5.09514 13.6285 5.14964 13.606 5.20647 13.606H18.7956C18.8524 13.606 18.907 13.6285 18.9471 13.6687C18.9873 13.7089 19.0099 13.7634 19.0099 13.8202V15.4201C19.0099 15.4769 18.9873 15.5314 18.9471 15.5716C18.907 15.6118 18.8524 15.6344 18.7956 15.6344ZM5.42076 15.2058H18.5813V14.0345H5.42076V15.2058Z" fill="white"/>
<path d="M10.2534 14.0345H6.75921C6.70238 14.0345 6.64787 14.0119 6.60768 13.9718C6.5675 13.9316 6.54492 13.8771 6.54492 13.8202V12.5024C6.54492 12.4455 6.5675 12.391 6.60768 12.3508C6.64787 12.3107 6.70238 12.2881 6.75921 12.2881H10.2534C10.3102 12.2881 10.3647 12.3107 10.4049 12.3508C10.4451 12.391 10.4676 12.4455 10.4676 12.5024V13.8202C10.4676 13.8771 10.4451 13.9316 10.4049 13.9718C10.3647 14.0119 10.3102 14.0345 10.2534 14.0345ZM6.97349 13.6059H10.0391V12.7167H6.97349V13.6059Z" fill="white"/>
<path d="M17.2416 14.0345H13.7475C13.6907 14.0345 13.6362 14.0119 13.596 13.9718C13.5558 13.9316 13.5332 13.8771 13.5332 13.8202V12.5024C13.5332 12.4455 13.5558 12.391 13.596 12.3508C13.6362 12.3107 13.6907 12.2881 13.7475 12.2881H17.2416C17.2985 12.2881 17.353 12.3107 17.3932 12.3508C17.4333 12.391 17.4559 12.4455 17.4559 12.5024V13.8202C17.4559 13.8771 17.4333 13.9316 17.3932 13.9718C17.353 14.0119 17.2985 14.0345 17.2416 14.0345ZM13.9618 13.6059H17.0273V12.7167H13.9618V13.6059Z" fill="white"/>
<path d="M9.94685 12.7171H7.45257C7.39573 12.7171 7.34123 12.6945 7.30104 12.6543C7.26086 12.6141 7.23828 12.5596 7.23828 12.5028V10.9286C7.23828 10.8718 7.26086 10.8173 7.30104 10.7771C7.34123 10.7369 7.39573 10.7144 7.45257 10.7144H9.94685C10.0037 10.7144 10.0582 10.7369 10.0984 10.7771C10.1386 10.8173 10.1611 10.8718 10.1611 10.9286V12.5049C10.1606 12.5614 10.1377 12.6153 10.0976 12.6551C10.0575 12.6948 10.0033 12.7171 9.94685 12.7171ZM7.66685 12.2885H9.73257V11.1429H7.66685V12.2885Z" fill="white"/>
<path d="M9.67091 11.1167H7.72991C7.67308 11.1167 7.61857 11.0941 7.57839 11.0539C7.5382 11.0137 7.51562 10.9592 7.51562 10.9024V9.3261C7.51562 9.26927 7.5382 9.21477 7.57839 9.17458C7.61857 9.13439 7.67308 9.11182 7.72991 9.11182H9.67091C9.72774 9.11182 9.78225 9.13439 9.82243 9.17458C9.86262 9.21477 9.8852 9.26927 9.8852 9.3261V10.9024C9.8852 10.9592 9.86262 11.0137 9.82243 11.0539C9.78225 11.0941 9.72774 11.1167 9.67091 11.1167ZM7.9442 10.6881H9.45662V9.54039H7.9442V10.6881Z" fill="white"/>
<path d="M16.2705 11.1167H14.3295C14.2727 11.1167 14.2182 11.0941 14.178 11.0539C14.1378 11.0137 14.1152 10.9592 14.1152 10.9024V9.3261C14.1152 9.26927 14.1378 9.21477 14.178 9.17458C14.2182 9.13439 14.2727 9.11182 14.3295 9.11182H16.2705C16.3274 9.11182 16.3819 9.13439 16.422 9.17458C16.4622 9.21477 16.4848 9.26927 16.4848 9.3261V10.9024C16.4848 10.9592 16.4622 11.0137 16.422 11.0539C16.3819 11.0941 16.3274 11.1167 16.2705 11.1167ZM14.5438 10.6881H16.0562V9.54039H14.5438V10.6881Z" fill="white"/>
<path d="M16.6654 9.51749H7.33538C7.27855 9.51749 7.22404 9.49491 7.18386 9.45473C7.14367 9.41454 7.12109 9.36004 7.12109 9.30321V8.22063C7.12109 8.1638 7.14367 8.1093 7.18386 8.06911C7.22404 8.02892 7.27855 8.00635 7.33538 8.00635H16.6654C16.7222 8.00635 16.7767 8.02892 16.8169 8.06911C16.8571 8.1093 16.8797 8.1638 16.8797 8.22063V9.30321C16.8797 9.36004 16.8571 9.41454 16.8169 9.45473C16.7767 9.49491 16.7222 9.51749 16.6654 9.51749ZM7.54967 9.08892H16.4511V8.43492H7.54967V9.08892Z" fill="white"/>
<path d="M16.5474 12.7171H14.0532C13.9963 12.7171 13.9418 12.6945 13.9016 12.6543C13.8614 12.6141 13.8389 12.5596 13.8389 12.5028V10.9286C13.8389 10.8718 13.8614 10.8173 13.9016 10.7771C13.9418 10.7369 13.9963 10.7144 14.0532 10.7144H16.5474C16.6043 10.7144 16.6588 10.7369 16.699 10.7771C16.7391 10.8173 16.7617 10.8718 16.7617 10.9286V12.5049C16.7612 12.5614 16.7383 12.6153 16.6982 12.6551C16.6581 12.6948 16.6039 12.7171 16.5474 12.7171ZM14.2674 12.2885H16.3332V11.1429H14.2674V12.2885Z" fill="white"/>
<path d="M14.3298 11.0461H9.67034C9.61351 11.0461 9.559 11.0235 9.51882 10.9833C9.47863 10.9431 9.45605 10.8886 9.45605 10.8318V9.30266C9.45605 9.24583 9.47863 9.19133 9.51882 9.15114C9.559 9.11096 9.61351 9.08838 9.67034 9.08838H14.3298C14.3866 9.08838 14.4411 9.11096 14.4813 9.15114C14.5215 9.19133 14.5441 9.24583 14.5441 9.30266V10.8318C14.5441 10.8886 14.5215 10.9431 14.4813 10.9833C14.4411 11.0235 14.3866 11.0461 14.3298 11.0461ZM9.88463 10.6175H14.1155V9.51695H9.88463V10.6175Z" fill="white"/>
<path d="M5.20628 11.8834H1.99456C1.93773 11.8834 1.88323 11.8608 1.84304 11.8206C1.80285 11.7804 1.78028 11.7259 1.78028 11.6691C1.77923 11.151 1.9834 10.6536 2.34813 10.2857L3.44956 9.19024C3.48971 9.15033 3.54402 9.12793 3.60063 9.12793C3.65725 9.12793 3.71156 9.15033 3.75171 9.19024L4.85271 10.2857C5.21718 10.6531 5.42135 11.1499 5.42056 11.6674C5.42079 11.6957 5.41541 11.7237 5.40475 11.7499C5.39408 11.7761 5.37833 11.7999 5.35841 11.82C5.33849 11.8401 5.31479 11.856 5.28868 11.8669C5.26257 11.8778 5.23456 11.8834 5.20628 11.8834ZM2.22428 11.4548H4.97699C4.93204 11.128 4.78155 10.8247 4.54842 10.5912L3.60085 9.64624L2.65071 10.5912C2.41849 10.8251 2.26879 11.1283 2.22428 11.4548Z" fill="white"/>
<path d="M5.20627 12.7172H1.99456C1.93773 12.7172 1.88322 12.6946 1.84304 12.6545C1.80285 12.6143 1.78027 12.5598 1.78027 12.5029V11.6694C1.78027 11.6125 1.80285 11.558 1.84304 11.5178C1.88322 11.4777 1.93773 11.4551 1.99456 11.4551H5.20627C5.2631 11.4551 5.31761 11.4777 5.3578 11.5178C5.39798 11.558 5.42056 11.6125 5.42056 11.6694V12.5029C5.42056 12.5598 5.39798 12.6143 5.3578 12.6545C5.31761 12.6946 5.2631 12.7172 5.20627 12.7172ZM2.20884 12.2886H4.99199V11.8836H2.20884V12.2886Z" fill="white"/>
<path d="M22.0061 11.8834H18.7944C18.7375 11.8834 18.683 11.8608 18.6428 11.8206C18.6027 11.7804 18.5801 11.7259 18.5801 11.6691C18.5788 11.151 18.783 10.6535 19.1479 10.2857L20.2489 9.19024C20.2891 9.15033 20.3434 9.12793 20.4 9.12793C20.4566 9.12793 20.5109 9.15033 20.5511 9.19024L21.6525 10.2857C22.0168 10.6532 22.221 11.1499 22.2204 11.6674C22.2206 11.6957 22.2152 11.7237 22.2046 11.7499C22.1939 11.7761 22.1781 11.7999 22.1582 11.82C22.1383 11.8401 22.1146 11.856 22.0885 11.8669C22.0624 11.8778 22.0344 11.8834 22.0061 11.8834ZM19.0237 11.4548H21.7768C21.7315 11.1281 21.581 10.8249 21.3482 10.5912L20.3998 9.64624L19.4497 10.5912C19.2175 10.8251 19.0679 11.1283 19.0237 11.4548Z" fill="white"/>
<path d="M22.0061 12.7172H18.7944C18.7375 12.7172 18.683 12.6946 18.6428 12.6545C18.6027 12.6143 18.5801 12.5598 18.5801 12.5029V11.6694C18.5801 11.6125 18.6027 11.558 18.6428 11.5178C18.683 11.4777 18.7375 11.4551 18.7944 11.4551H22.0061C22.0629 11.4551 22.1174 11.4777 22.1576 11.5178C22.1978 11.558 22.2204 11.6125 22.2204 11.6694V12.5029C22.2204 12.5598 22.1978 12.6143 22.1576 12.6545C22.1174 12.6946 22.0629 12.7172 22.0061 12.7172ZM19.0086 12.2886H21.7918V11.8836H19.0086V12.2886Z" fill="white"/>
<path d="M14.9658 7.09386H9.03265C8.97581 7.09386 8.92131 7.07128 8.88112 7.03109C8.84094 6.99091 8.81836 6.9364 8.81836 6.87957V5.33929C8.81836 5.28245 8.84094 5.22795 8.88112 5.18776C8.92131 5.14758 8.97581 5.125 9.03265 5.125H14.9658C15.0226 5.125 15.0771 5.14758 15.1173 5.18776C15.1575 5.22795 15.1801 5.28245 15.1801 5.33929V6.87957C15.1801 6.9364 15.1575 6.99091 15.1173 7.03109C15.0771 7.07128 15.0226 7.09386 14.9658 7.09386ZM9.24693 6.66529H14.7515V5.55357H9.24693V6.66529Z" fill="white"/>
<path d="M16.2713 8.43461H7.72991C7.67308 8.43461 7.61857 8.41203 7.57839 8.37185C7.5382 8.33166 7.51562 8.27716 7.51562 8.22032V6.87932C7.51562 6.82249 7.5382 6.76799 7.57839 6.7278C7.61857 6.68762 7.67308 6.66504 7.72991 6.66504H16.2713C16.3282 6.66504 16.3827 6.68762 16.4229 6.7278C16.463 6.76799 16.4856 6.82249 16.4856 6.87932V8.22032C16.4856 8.27716 16.463 8.33166 16.4229 8.37185C16.3827 8.41203 16.3282 8.43461 16.2713 8.43461ZM7.9442 8.00604H16.0571V7.09361H7.9442V8.00604Z" fill="white"/>
<path d="M13.0934 3.12865H10.9076C10.8508 3.12865 10.7963 3.10608 10.7561 3.06589C10.7159 3.0257 10.6934 2.9712 10.6934 2.91437V1.49065C10.6934 1.43382 10.7159 1.37932 10.7561 1.33913C10.7963 1.29894 10.8508 1.27637 10.9076 1.27637H13.0934C13.1502 1.27637 13.2047 1.29894 13.2449 1.33913C13.2851 1.37932 13.3076 1.43382 13.3076 1.49065V2.91437C13.3076 2.9712 13.2851 3.0257 13.2449 3.06589C13.2047 3.10608 13.1502 3.12865 13.0934 3.12865ZM11.1219 2.70008H12.8791V1.70494H11.1219V2.70008Z" fill="white"/>
<path d="M12.6535 1.70529H11.3481C11.2912 1.70529 11.2367 1.68271 11.1966 1.64252C11.1564 1.60234 11.1338 1.54783 11.1338 1.491V0.867C11.1338 0.637057 11.2251 0.416532 11.3877 0.253938C11.5503 0.0913444 11.7708 0 12.0008 0C12.2307 0 12.4513 0.0913444 12.6139 0.253938C12.7764 0.416532 12.8678 0.637057 12.8678 0.867V1.491C12.8678 1.54783 12.8452 1.60234 12.805 1.64252C12.7648 1.68271 12.7103 1.70529 12.6535 1.70529ZM11.5624 1.27671H12.4392V0.867C12.4392 0.750721 12.393 0.639205 12.3108 0.556984C12.2286 0.474763 12.1171 0.428571 12.0008 0.428571C11.8845 0.428571 11.773 0.474763 11.6908 0.556984C11.6086 0.639205 11.5624 0.750721 11.5624 0.867V1.27671Z" fill="white"/>
</g>
<defs>
<clipPath id="clip0_2950_65794">
<rect width="24" height="24" fill="white"/>
</clipPath>
</defs>
</svg>
