<svg width="24" height="24" viewBox="0 0 24 24" fill="none" xmlns="http://www.w3.org/2000/svg">
<path d="M12 4C7.58001 4 4 7.58002 4 12C4 16.42 7.58001 20 12 20C16.42 20 20 16.42 20 12C20 7.57998 16.42 4 12 4ZM5.60001 12C5.60001 8.46401 8.464 5.59998 12 5.59998C13.48 5.59998 14.836 6.10799 15.92 6.94799L6.94799 15.92C6.10799 14.836 5.60001 13.48 5.60001 12ZM12 18.4C10.52 18.4 9.16397 17.892 8.08 17.052L17.052 8.08001C17.892 9.16402 18.4 10.52 18.4 12C18.4 15.536 15.536 18.4 12 18.4Z" fill="white"/>
</svg>
