<svg width="20" height="20" viewBox="0 0 20 20" fill="none" xmlns="http://www.w3.org/2000/svg">
<path fill-rule="evenodd" clip-rule="evenodd" d="M8.22276 1.99935C6.46948 1.99935 5.04816 3.49173 5.04816 5.33268C5.04816 7.17363 6.46948 8.66602 8.22276 8.66602C9.97608 8.66602 11.3974 7.17363 11.3974 5.33268C11.3974 3.49173 9.97608 1.99935 8.22276 1.99935ZM3.77832 5.33268C3.77832 2.75536 5.76817 0.666016 8.22276 0.666016C10.6774 0.666016 12.6672 2.75536 12.6672 5.33268C12.6672 7.91002 10.6774 9.99935 8.22276 9.99935C5.76817 9.99935 3.77832 7.91002 3.77832 5.33268Z" fill="white"/>
<path fill-rule="evenodd" clip-rule="evenodd" d="M8.44477 9.92917C4.88561 9.92917 2.00033 12.6626 2.00033 16.0344C2.00033 16.3832 1.70185 16.666 1.33366 16.666C0.965469 16.666 0.666992 16.3832 0.666992 16.0344C0.666992 11.965 4.14922 8.66602 8.44477 8.66602C8.81296 8.66602 9.11144 8.94879 9.11144 9.29759C9.11144 9.64639 8.81296 9.92917 8.44477 9.92917Z" fill="white"/>
<path fill-rule="evenodd" clip-rule="evenodd" d="M14.4446 10.83C12.4489 10.83 10.831 12.4479 10.831 14.4436C10.831 16.4393 12.4489 18.0571 14.4446 18.0571C15.6262 18.0571 16.6753 17.4906 17.3357 16.6117C17.5473 16.3301 17.947 16.2734 18.2286 16.4849C18.5102 16.6965 18.5669 17.0962 18.3553 17.3778C17.4644 18.5635 16.0442 19.3325 14.4446 19.3325C11.7445 19.3325 9.55566 17.1436 9.55566 14.4436C9.55566 11.7435 11.7445 9.55469 14.4446 9.55469C17.1446 9.55469 19.3334 11.7435 19.3334 14.4436C19.3334 14.7957 19.0479 15.0813 18.6958 15.0813C18.3436 15.0813 18.0581 14.7957 18.0581 14.4436C18.0581 12.4479 16.4402 10.83 14.4446 10.83Z" fill="white"/>
<path fill-rule="evenodd" clip-rule="evenodd" d="M12 14.5C12 14.2239 12.2583 14 12.5769 14H16.4231C16.7417 14 17 14.2239 17 14.5C17 14.7761 16.7417 15 16.4231 15H12.5769C12.2583 15 12 14.7761 12 14.5Z" fill="white"/>
</svg>
