<svg width="25" height="24" viewBox="0 0 25 24" fill="none" xmlns="http://www.w3.org/2000/svg">
<path d="M9.5 4C9.91563 4 10.25 4.33437 10.25 4.75V6H14.75V4.75C14.75 4.33437 15.0844 4 15.5 4C15.9156 4 16.25 4.33437 16.25 4.75V6H17.5C18.6031 6 19.5 6.89687 19.5 8V8.5V10V18C19.5 19.1031 18.6031 20 17.5 20H7.5C6.39688 20 5.5 19.1031 5.5 18V10V8.5V8C5.5 6.89687 6.39688 6 7.5 6H8.75V4.75C8.75 4.33437 9.08437 4 9.5 4ZM18 10H7V18C7 18.275 7.225 18.5 7.5 18.5H17.5C17.775 18.5 18 18.275 18 18V10ZM9 12H16C16.275 12 16.5 12.225 16.5 12.5V14.5C16.5 14.775 16.275 15 16 15H9C8.725 15 8.5 14.775 8.5 14.5V12.5C8.5 12.225 8.725 12 9 12Z" fill="#9E9E9E"/>
</svg>
