<svg width="24" height="24" viewBox="0 0 24 24" fill="none" xmlns="http://www.w3.org/2000/svg">
<path d="M9 4C9.41563 4 9.75 4.33437 9.75 4.75V6H14.25V4.75C14.25 4.33437 14.5844 4 15 4C15.4156 4 15.75 4.33437 15.75 4.75V6H17C18.1031 6 19 6.89687 19 8V8.5V10V18C19 19.1031 18.1031 20 17 20H7C5.89688 20 5 19.1031 5 18V10V8.5V8C5 6.89687 5.89688 6 7 6H8.25V4.75C8.25 4.33437 8.58437 4 9 4ZM17.5 10H6.5V18C6.5 18.275 6.725 18.5 7 18.5H17C17.275 18.5 17.5 18.275 17.5 18V10ZM8.5 12H15.5C15.775 12 16 12.225 16 12.5V14.5C16 14.775 15.775 15 15.5 15H8.5C8.225 15 8 14.775 8 14.5V12.5C8 12.225 8.225 12 8.5 12Z" fill="white"/>
</svg>
