<svg width="24" height="24" viewBox="0 0 24 24" fill="none" xmlns="http://www.w3.org/2000/svg">
<path d="M9.80011 9.81909C8.58515 8.56374 8.58515 6.5284 9.80011 5.27303L12 3L14.1999 5.27303C15.4148 6.5284 15.4148 8.56374 14.1999 9.81909C13.7919 10.2406 13.2988 10.5206 12.7778 10.6591V11.9636H16.6667C17.0962 11.9636 17.4444 12.3234 17.4444 12.7673V18.3927H19V20H5V18.3927H6.55556V12.7673C6.55556 12.3234 6.90378 11.9636 7.33333 11.9636H11.2222V10.6591C10.7012 10.5206 10.2081 10.2406 9.80011 9.81909ZM10.9001 6.40955C10.2926 7.03723 10.2926 8.0549 10.9001 8.68258C11.5075 9.31026 12.4925 9.31026 13.0999 8.68258C13.7075 8.0549 13.7075 7.03723 13.0999 6.40955L12 5.27303L10.9001 6.40955ZM8.11111 13.5709V18.3927H15.8889V13.5709H8.11111Z" fill="white"/>
</svg>
