<svg width="24" height="24" viewBox="0 0 24 24" fill="none" xmlns="http://www.w3.org/2000/svg">
<path fill-rule="evenodd" clip-rule="evenodd" d="M18 3H6C4.34315 3 3 4.34315 3 6V18C3 19.6569 4.34315 21 6 21H18C19.6569 21 21 19.6569 21 18V6C21 4.34315 19.6569 3 18 3ZM19 18C19 18.5523 18.5523 19 18 19H6C5.44772 19 5 18.5523 5 18V6C5 5.44772 5.44772 5 6 5H18C18.5523 5 19 5.44772 19 6V18ZM10.9212 13.39L14.7012 8.38998H14.6912C15.0281 7.94815 15.6594 7.86309 16.1012 8.19998C16.543 8.53687 16.6281 9.16815 16.2912 9.60998L11.7212 15.61C11.5324 15.8552 11.2407 15.9992 10.9312 16C10.6234 16.0016 10.332 15.8615 10.1412 15.62L7.71121 12.51C7.37155 12.0737 7.4499 11.4446 7.88621 11.105C8.32251 10.7653 8.95155 10.8437 9.29121 11.28L10.9212 13.39Z" fill="url(#paint0_linear_5671_11087)"/>
<defs>
<linearGradient id="paint0_linear_5671_11087" x1="12" y1="3" x2="12" y2="21" gradientUnits="userSpaceOnUse">
<stop stop-color="#FF1759"/>
<stop offset="1" stop-color="#BF0036"/>
</linearGradient>
</defs>
</svg>
