<svg width="24" height="24" viewBox="0 0 24 24" fill="none" xmlns="http://www.w3.org/2000/svg">
<g clip-path="url(#clip0_4046_3331)">
<path d="M12 0C5.38293 0 0 5.38293 0 12C0 18.6171 5.38293 24 12 24C18.6171 24 24 18.6171 24 12C24 5.38293 18.6171 0 12 0Z" fill="#F44336"/>
<path d="M16.4194 15.0043C16.8103 15.3954 16.8103 16.0273 16.4194 16.4184C16.2244 16.6134 15.9684 16.7114 15.7123 16.7114C15.4563 16.7114 15.2003 16.6134 15.0053 16.4184L12.0004 13.4133L8.99541 16.4184C8.8004 16.6134 8.54442 16.7114 8.28844 16.7114C8.03227 16.7114 7.77629 16.6134 7.58128 16.4184C7.19035 16.0273 7.19035 15.3954 7.58128 15.0043L10.5864 11.9994L7.58128 8.99443C7.19035 8.60332 7.19035 7.97142 7.58128 7.58031C7.9724 7.18938 8.60429 7.18938 8.99541 7.58031L12.0004 10.5854L15.0053 7.58031C15.3964 7.18938 16.0283 7.18938 16.4194 7.58031C16.8103 7.97142 16.8103 8.60332 16.4194 8.99443L13.4143 11.9994L16.4194 15.0043Z" fill="#FAFAFA"/>
</g>
<defs>
<clipPath id="clip0_4046_3331">
<rect width="24" height="24" fill="white"/>
</clipPath>
</defs>
</svg>
