<svg width="24" height="24" viewBox="0 0 24 24" fill="none" xmlns="http://www.w3.org/2000/svg">
<rect width="24" height="24" rx="12" fill="#18A957"/>
<path d="M10.124 17C9.93917 17.0004 9.75612 16.9652 9.58543 16.8963C9.41475 16.8274 9.25984 16.7262 9.12968 16.5986L5.37763 12.9499C5.12909 12.6905 4.99379 12.3474 5.00022 11.9929C5.00665 11.6384 5.15432 11.3002 5.41211 11.0495C5.6699 10.7988 6.01769 10.6552 6.3822 10.649C6.74671 10.6427 7.09949 10.7743 7.36622 11.016L10.124 13.696L16.6338 7.36724C16.9005 7.12554 17.2533 6.99396 17.6178 7.00021C17.9823 7.00647 18.3301 7.15007 18.5879 7.40076C18.8457 7.65146 18.9933 7.98967 18.9998 8.34415C19.0062 8.69863 18.8709 9.0417 18.6224 9.30108L11.1183 16.5986C10.9881 16.7262 10.8332 16.8274 10.6625 16.8963C10.4918 16.9652 10.3088 17.0004 10.124 17Z" fill="white"/>
</svg>
