<svg width="24" height="24" viewBox="0 0 24 24" fill="none" xmlns="http://www.w3.org/2000/svg">
<path fill-rule="evenodd" clip-rule="evenodd" d="M12 4C7.58172 4 4 7.58172 4 12C4 16.4183 7.58172 20 12 20C16.4183 20 20 16.4183 20 12C20 7.58172 16.4183 4 12 4ZM12 5.6C15.5346 5.6 18.4 8.46538 18.4 12C18.4 15.5346 15.5346 18.4 12 18.4C8.46538 18.4 5.6 15.5346 5.6 12C5.6 8.46538 8.46538 5.6 12 5.6ZM14.9657 9.83431C14.6533 9.52189 14.1467 9.52189 13.8343 9.83431L11.2 12.468L10.1657 11.4343L10.0903 11.3678C9.77649 11.1237 9.3227 11.1459 9.03431 11.4343C8.7219 11.7467 8.7219 12.2533 9.03431 12.5657L10.6343 14.1657L10.7097 14.2322C11.0235 14.4763 11.4773 14.4541 11.7657 14.1657L14.9657 10.9657L15.0322 10.8903C15.2763 10.5765 15.2541 10.1227 14.9657 9.83431Z" fill="white"/>
</svg>
