<svg width="16" height="16" viewBox="0 0 16 16" fill="none" xmlns="http://www.w3.org/2000/svg">
<path d="M8.8002 4.8V7.66864L10.5659 9.43432C10.8783 9.74672 10.8783 10.2533 10.5659 10.5657C10.2535 10.8781 9.74692 10.8781 9.43452 10.5657L7.43452 8.56568C7.28452 8.41568 7.2002 8.21216 7.2002 8V4.8C7.2002 4.35818 7.55836 4 8.0002 4C8.44204 4 8.8002 4.35818 8.8002 4.8Z" fill="#18A957"/>
<path fill-rule="evenodd" clip-rule="evenodd" d="M16 8C16 3.58172 12.4182 0 8 0C3.58172 0 0 3.58172 0 8C0 12.4182 3.58172 16 8 16C12.4182 16 16 12.4182 16 8ZM8 1.6C11.5346 1.6 14.4 4.46538 14.4 8C14.4 11.5346 11.5346 14.4 8 14.4C4.46538 14.4 1.6 11.5346 1.6 8C1.6 4.46538 4.46538 1.6 8 1.6Z" fill="#18A957"/>
</svg>
