<svg width="32" height="33" viewBox="0 0 32 33" fill="none" xmlns="http://www.w3.org/2000/svg">
<path fill-rule="evenodd" clip-rule="evenodd" d="M25.234 18.2244C26.5301 15.9793 22.4762 11.211 16.1791 7.5752C9.88009 3.93945 3.72471 2.81238 2.42859 5.05745C1.70871 6.30088 0.99065 7.54613 0.272588 8.79138C-1.02354 11.0365 3.03034 15.8029 9.32928 19.4388C15.6265 23.0745 21.7836 24.2034 23.0798 21.9583C23.7978 20.7131 24.5159 19.4696 25.234 18.2244Z" fill="#FE9923"/>
<path fill-rule="evenodd" clip-rule="evenodd" d="M25.2339 18.2239C26.2229 16.5133 24.1014 13.3356 20.2493 10.3125C19.2077 10.7979 18.1442 11.3505 17.0771 11.9668C13.3323 14.1283 10.2873 16.6424 8.4458 18.9129C8.73486 19.0911 9.02936 19.2656 9.3293 19.4382C12.8124 21.4488 16.2518 22.6922 18.8496 23.0231C20.013 22.4959 21.2055 21.8851 22.4035 21.1943C22.9961 20.8508 23.5706 20.4999 24.1269 20.1418L25.2339 18.2239Z" fill="#CE7C1D"/>
<path fill-rule="evenodd" clip-rule="evenodd" d="M16.1791 7.57526C9.88009 3.93944 3.72472 2.81238 2.42859 5.05744C1.13247 7.30069 5.18634 12.069 11.4853 15.7048C17.7825 19.3406 23.9396 20.4695 25.234 18.2244C26.5301 15.9793 22.4762 11.211 16.1791 7.57526Z" fill="#FECD3D"/>
<path fill-rule="evenodd" clip-rule="evenodd" d="M11.5981 15.7698C17.8571 19.3529 23.947 20.4545 25.2341 18.2239C26.223 16.5133 24.1015 13.3356 20.2495 10.3125C19.2078 10.7979 18.1443 11.3505 17.0773 11.9668C15.0085 13.1593 13.1542 14.4609 11.5981 15.7698Z" fill="#CEA732"/>
<path fill-rule="evenodd" clip-rule="evenodd" d="M15.0811 9.47447C10.071 6.58216 5.44994 5.20604 4.75913 6.40222C4.07013 7.59841 7.57138 10.9124 12.5815 13.8047C17.5916 16.6969 22.2127 18.073 22.9034 16.8769C23.5943 15.6825 20.0912 12.3685 15.0811 9.47447Z" fill="#FEA832"/>
<path fill-rule="evenodd" clip-rule="evenodd" d="M13.4722 14.3048C18.1278 16.8517 22.2544 18.0024 22.9034 16.8771C23.4433 15.941 21.4145 13.7068 18.1042 11.3926C17.7624 11.578 17.4188 11.7689 17.077 11.967C15.7845 12.7124 14.5775 13.4995 13.4722 14.3048Z" fill="#CE8829"/>
<path d="M20.5148 21.5325L19.6113 23.0959C19.2277 23.0722 18.8187 23.0268 18.3915 22.9577L19.5404 20.9671L20.5148 21.5325ZM7.12603 18.0622C7.43328 18.2694 7.74778 18.4748 8.06953 18.6766L9.11303 16.8696L8.13865 16.3097L7.12603 18.0622ZM1.01978 12.3612C1.23246 12.683 1.47609 13.0139 1.75059 13.3502L2.89953 11.3614L1.92334 10.7979L1.01978 12.3612ZM3.87934 15.548C4.15746 15.7952 4.44653 16.0443 4.74828 16.2915L5.84265 14.3972L4.86828 13.8374L3.87934 15.548ZM10.6164 20.149C10.9545 20.3254 11.2908 20.4963 11.6235 20.658L12.6361 18.9056L11.6617 18.3402L10.6164 20.149ZM14.3449 21.8324C14.7103 21.9706 15.0702 22.096 15.4229 22.2124L16.4118 20.4999L15.4375 19.94L14.3449 21.8324Z" fill="#C85929"/>
<path d="M3.04845 19.1953V20.3333H4.18645V21.2314H3.04845V22.3694H2.15045V21.2314H1.01245V20.3333H2.15045V19.1953H3.04845Z" fill="#FEA832"/>
<path d="M23.1015 5.625V6.76119H24.2395V7.65925H23.1015V8.79719H22.2034V7.65925H21.0654V6.76119H22.2034V5.625H23.1015Z" fill="#FEA832"/>
<path fill-rule="evenodd" clip-rule="evenodd" d="M6.76423 24.2087C5.46804 21.9636 9.52379 17.1971 15.8209 13.5613C22.1181 9.92377 28.2752 8.79665 29.5714 11.0418C30.2895 12.287 31.0075 13.5305 31.7274 14.7757C33.0236 17.0208 28.9679 21.7873 22.6707 25.4249C16.3717 29.0606 10.2164 30.1878 8.92023 27.9426C8.20217 26.6992 7.48229 25.454 6.76423 24.2087Z" fill="#FE9923"/>
<path fill-rule="evenodd" clip-rule="evenodd" d="M15.8209 13.5613C22.1181 9.92377 28.2752 8.79665 29.5714 11.0418C30.8676 13.2868 26.8119 18.0533 20.5147 21.6891C14.2157 25.3267 8.06042 26.4538 6.76423 24.2087C5.46804 21.9636 9.52373 17.1971 15.8209 13.5613Z" fill="#FECD3D"/>
<path fill-rule="evenodd" clip-rule="evenodd" d="M16.9173 15.4608C21.9273 12.5668 26.5503 11.1924 27.2392 12.3868C27.93 13.5829 24.4288 16.8969 19.4168 19.7892C14.4068 22.6833 9.78571 24.0576 9.09671 22.8633C8.4059 21.6671 11.9071 18.3531 16.9173 15.4608Z" fill="#FEA832"/>
<path d="M16.5627 25.9253L17.6553 27.8177C17.2899 27.9559 16.93 28.0831 16.5755 28.1976L15.5865 26.4852L16.5627 25.9253ZM19.3641 24.891L20.3749 26.6434C20.7094 26.4816 21.0457 26.3125 21.382 26.1344L20.3385 24.3274L19.3641 24.891ZM11.4854 27.5178L12.387 29.0812C12.7724 29.0594 13.1796 29.0121 13.6086 28.943L12.4597 26.9543L11.4854 27.5178ZM30.075 16.7832L29.1007 17.3468L30.2477 19.3355C30.5222 18.9993 30.7677 18.6702 30.9785 18.3484L30.075 16.7832ZM22.8871 22.855L23.9306 24.6638C24.2524 24.4601 24.5669 24.2548 24.8741 24.0475L23.8615 22.2951L22.8871 22.855ZM26.1575 20.3826L27.2519 22.2786C27.5537 22.0296 27.8427 21.7824 28.119 21.5333L27.1319 19.8227L26.1575 20.3826Z" fill="#C85929"/>
</svg>
