<svg width="24" height="24" viewBox="0 0 24 24" fill="none" xmlns="http://www.w3.org/2000/svg">
<path d="M6.66875 10.6667C6.90134 10.6667 7.12701 10.6965 7.34252 10.7524C7.33843 10.835 7.33646 10.9176 7.33646 11C7.33646 11.8502 7.56484 12.6471 7.96176 13.3333H2.66758C2.66743 13.3332 2.66728 13.3331 2.66711 13.3329C2.66694 13.3327 2.66679 13.3326 2.66667 13.3324C2.66772 11.8609 3.86259 10.6667 5.33437 10.6667H6.66875ZM21.3333 13.3333H16.0396C16.4366 12.6466 16.6635 11.8496 16.6635 11C16.6635 10.9161 16.6612 10.8332 16.6568 10.7512C16.8712 10.6959 17.097 10.6667 17.3313 10.6667H18.6656C20.1377 10.6667 21.3328 11.8614 21.3333 13.3333ZM6.5 4.66667C6.98623 4.66667 7.45255 4.85982 7.79636 5.20364C8.14018 5.54745 8.33333 6.01377 8.33333 6.5C8.33333 6.98623 8.14018 7.45255 7.79636 7.79636C7.45255 8.14018 6.98623 8.33333 6.5 8.33333C6.01377 8.33333 5.54745 8.14018 5.20364 7.79636C4.85982 7.45255 4.66667 6.98623 4.66667 6.5C4.66667 6.01377 4.85982 5.54745 5.20364 5.20364C5.54745 4.85982 6.01377 4.66667 6.5 4.66667ZM18 4.66667C18.4862 4.66667 18.9525 4.85982 19.2964 5.20364C19.6402 5.54745 19.8333 6.01377 19.8333 6.5C19.8333 6.98623 19.6402 7.45255 19.2964 7.79636C18.9525 8.14018 18.4862 8.33333 18 8.33333C17.5138 8.33333 17.0475 8.14018 16.7036 7.79636C16.3598 7.45255 16.1667 6.98623 16.1667 6.5C16.1667 6.01377 16.3598 5.54745 16.7036 5.20364C17.0475 4.85982 17.5138 4.66667 18 4.66667ZM9.66667 11C9.66667 10.3812 9.9125 9.78767 10.3501 9.35008C10.7877 8.9125 11.3812 8.66667 12 8.66667C12.6188 8.66667 13.2123 8.9125 13.6499 9.35008C14.0875 9.78767 14.3333 10.3812 14.3333 11C14.3333 11.6188 14.0875 12.2123 13.6499 12.6499C13.2123 13.0875 12.6188 13.3333 12 13.3333C11.3812 13.3333 10.7877 13.0875 10.3501 12.6499C9.9125 12.2123 9.66667 11.6188 9.66667 11ZM6.66667 19.1656C6.66667 17.2338 8.23381 15.6667 10.1656 15.6667H13.8344C15.7662 15.6667 17.3333 17.2338 17.3333 19.1656C17.3333 19.2584 17.2583 19.3333 17.1656 19.3333H6.83437C6.74156 19.3333 6.66667 19.2583 6.66667 19.1656Z" stroke="white" stroke-width="1.33333"/>
</svg>
