<svg width="18" height="18" viewBox="0 0 18 18" fill="none" xmlns="http://www.w3.org/2000/svg">
<rect width="18" height="18" rx="9" fill="#F1BCBC"/>
<g clip-path="url(#clip0_17_1096)">
<path d="M12.4297 14C12.0137 14.002 11.6133 13.8359 11.3184 13.541L9.00002 11.2207L6.68166 13.541C6.07033 14.1563 5.07619 14.1602 4.46096 13.5488C3.84572 12.9375 3.83986 11.9434 4.45119 11.3281C4.4551 11.3242 4.45705 11.3223 4.46096 11.3184L6.77932 9.00001L4.46096 6.68165C3.84963 6.06446 3.85353 5.07032 4.47072 4.45899C5.08205 3.85157 6.07033 3.85157 6.68166 4.45899L9.00002 6.77931L11.3184 4.45899C11.9297 3.84376 12.9238 3.83985 13.541 4.45118C14.1582 5.06251 14.1621 6.05665 13.5508 6.67189C13.5469 6.67579 13.5449 6.67774 13.541 6.68165L11.2227 9.00001L13.541 11.3184C14.1543 11.9317 14.1543 12.9258 13.541 13.5391C13.2461 13.834 12.8457 14 12.4297 14Z" fill="url(#paint0_linear_17_1096)"/>
</g>
<defs>
<linearGradient id="paint0_linear_17_1096" x1="3.73279" y1="4.35806" x2="14.1451" y2="13.5336" gradientUnits="userSpaceOnUse">
<stop stop-color="#FFB59D"/>
<stop offset="1" stop-color="#F44336"/>
</linearGradient>
<clipPath id="clip0_17_1096">
<rect width="10" height="10" fill="white" transform="translate(4 4)"/>
</clipPath>
</defs>
</svg>
