<svg width="44" height="44" viewBox="0 0 44 44" fill="none" xmlns="http://www.w3.org/2000/svg">
<path d="M23.0996 17.0488H20.8996C20.0244 17.0488 19.185 17.3965 18.5662 18.0154C17.9473 18.6343 17.5996 19.4736 17.5996 20.3488V25.2989C17.5996 25.7365 17.7734 26.1562 18.0829 26.4656C18.3923 26.775 18.812 26.9489 19.2496 26.9489H19.7996V34.6489H24.1996V26.9489H24.7496C25.1873 26.9489 25.6069 26.775 25.9164 26.4656C26.2258 26.1562 26.3997 25.7365 26.3997 25.2989V20.3488C26.3997 19.4736 26.052 18.6343 25.4331 18.0154C24.8142 17.3965 23.9749 17.0488 23.0996 17.0488Z" fill="url(#paint0_linear_2821_41510)"/>
<path d="M22 16.5C23.5188 16.5 24.75 15.2688 24.75 13.75C24.75 12.2312 23.5188 11 22 11C20.4812 11 19.25 12.2312 19.25 13.75C19.25 15.2688 20.4812 16.5 22 16.5Z" fill="url(#paint1_linear_2821_41510)"/>
<path d="M32.45 19.8V24.7501C32.45 25.1877 32.2762 25.6074 31.9667 25.9168C31.6573 26.2262 31.2376 26.4001 30.8 26.4001H30.25V34.1001H25.85V27.8191C26.3396 27.6043 26.7562 27.2519 27.0492 26.8047C27.3421 26.3574 27.4987 25.8347 27.5 25.3001V20.35C27.4997 19.6485 27.3313 18.9573 27.0088 18.3343C26.6863 17.7113 26.2191 17.1747 25.6465 16.7695C26.0576 16.5903 26.5015 16.4985 26.95 16.5H29.15C30.0252 16.5 30.8646 16.8477 31.4835 17.4666C32.1023 18.0854 32.45 18.9248 32.45 19.8Z" fill="white"/>
<path d="M28.0498 15.9492C29.5686 15.9492 30.7998 14.718 30.7998 13.1992C30.7998 11.6804 29.5686 10.4492 28.0498 10.4492C26.531 10.4492 25.2998 11.6804 25.2998 13.1992C25.2998 14.718 26.531 15.9492 28.0498 15.9492Z" fill="white"/>
<path d="M38.5002 18.7005V23.6505C38.5002 24.0881 38.3263 24.5078 38.0169 24.8172C37.7075 25.1266 37.2878 25.3005 36.8502 25.3005H36.3002V33.0005H31.9001V27.2695C32.3897 27.0548 32.8064 26.7023 33.0993 26.2551C33.3923 25.8079 33.5489 25.2851 33.5501 24.7505V19.8005C33.5501 19.004 33.3337 18.2225 32.9239 17.5395C32.5141 16.8565 31.9264 16.2978 31.2236 15.9229C31.7519 15.5787 32.3696 15.397 33.0001 15.4004H35.2002C36.0754 15.4004 36.9147 15.7481 37.5336 16.367C38.1525 16.9859 38.5002 17.8252 38.5002 18.7005Z" fill="url(#paint2_linear_2821_41510)"/>
<path d="M34.1006 14.8496C35.6194 14.8496 36.8506 13.6184 36.8506 12.0996C36.8506 10.5808 35.6194 9.34961 34.1006 9.34961C32.5818 9.34961 31.3506 10.5808 31.3506 12.0996C31.3506 13.6184 32.5818 14.8496 34.1006 14.8496Z" fill="url(#paint3_linear_2821_41510)"/>
<path d="M18.1498 27.8191V34.1001H13.7498V26.4001H13.1998C12.7622 26.4001 12.3425 26.2262 12.0331 25.9168C11.7236 25.6074 11.5498 25.1877 11.5498 24.7501V19.8C11.5498 18.9248 11.8975 18.0854 12.5164 17.4666C13.1352 16.8477 13.9746 16.5 14.8498 16.5H17.0498C17.4983 16.4985 17.9422 16.5903 18.3533 16.7695C17.7807 17.1747 17.3136 17.7113 16.9911 18.3343C16.6686 18.9573 16.5001 19.6485 16.4998 20.35V25.3001C16.5011 25.8347 16.6577 26.3574 16.9507 26.8047C17.2436 27.2519 17.6602 27.6043 18.1498 27.8191Z" fill="white"/>
<path d="M15.9502 15.9492C17.469 15.9492 18.7002 14.718 18.7002 13.1992C18.7002 11.6804 17.469 10.4492 15.9502 10.4492C14.4314 10.4492 13.2002 11.6804 13.2002 13.1992C13.2002 14.718 14.4314 15.9492 15.9502 15.9492Z" fill="white"/>
<path d="M12.1 27.2695V33.0005H7.70001V25.3005H7.15001C6.7124 25.3005 6.29271 25.1266 5.98328 24.8172C5.67384 24.5078 5.5 24.0881 5.5 23.6505V18.7005C5.5 17.8252 5.84768 16.9859 6.46655 16.367C7.08543 15.7481 7.9248 15.4004 8.80002 15.4004H11C11.6306 15.397 12.2482 15.5787 12.7765 15.9229C12.0738 16.2978 11.4861 16.8565 11.0763 17.5395C10.6665 18.2225 10.45 19.004 10.45 19.8005V24.7505C10.4513 25.2851 10.6079 25.8079 10.9009 26.2551C11.1938 26.7023 11.6104 27.0548 12.1 27.2695Z" fill="url(#paint4_linear_2821_41510)"/>
<path d="M9.90041 14.8496C11.4192 14.8496 12.6504 13.6184 12.6504 12.0996C12.6504 10.5808 11.4192 9.34961 9.90041 9.34961C8.38161 9.34961 7.15039 10.5808 7.15039 12.0996C7.15039 13.6184 8.38161 14.8496 9.90041 14.8496Z" fill="url(#paint5_linear_2821_41510)"/>
<defs>
<linearGradient id="paint0_linear_2821_41510" x1="21.9996" y1="17.0488" x2="21.9996" y2="34.6489" gradientUnits="userSpaceOnUse">
<stop stop-color="#FF1759"/>
<stop offset="1" stop-color="#BF0036"/>
</linearGradient>
<linearGradient id="paint1_linear_2821_41510" x1="22" y1="11" x2="22" y2="16.5" gradientUnits="userSpaceOnUse">
<stop stop-color="#FF1759"/>
<stop offset="1" stop-color="#BF0036"/>
</linearGradient>
<linearGradient id="paint2_linear_2821_41510" x1="34.8619" y1="15.4004" x2="34.8619" y2="33.0005" gradientUnits="userSpaceOnUse">
<stop stop-color="#FF1759"/>
<stop offset="1" stop-color="#BF0036"/>
</linearGradient>
<linearGradient id="paint3_linear_2821_41510" x1="34.1006" y1="9.34961" x2="34.1006" y2="14.8496" gradientUnits="userSpaceOnUse">
<stop stop-color="#FF1759"/>
<stop offset="1" stop-color="#BF0036"/>
</linearGradient>
<linearGradient id="paint4_linear_2821_41510" x1="9.13827" y1="15.4004" x2="9.13827" y2="33.0005" gradientUnits="userSpaceOnUse">
<stop stop-color="#FF1759"/>
<stop offset="1" stop-color="#BF0036"/>
</linearGradient>
<linearGradient id="paint5_linear_2821_41510" x1="9.90041" y1="9.34961" x2="9.90041" y2="14.8496" gradientUnits="userSpaceOnUse">
<stop stop-color="#FF1759"/>
<stop offset="1" stop-color="#BF0036"/>
</linearGradient>
</defs>
</svg>
