<svg width="44" height="44" viewBox="0 0 44 44" fill="none" xmlns="http://www.w3.org/2000/svg">
<path d="M20.7319 17.4989C20.7441 17.7515 20.6431 18.0225 20.4433 18.2012L18.2843 20.2224L18.829 34.1405C18.822 37.4683 14.035 37.5018 13.96 34.1405L14.5047 20.2224L12.3458 18.2012C12.145 18.0285 12.0518 17.7521 12.0635 17.4925L12.4835 7.97748C12.5367 7.1072 13.8616 7.15083 13.8351 8.04289L13.5589 14.226C13.5557 14.624 13.9183 14.6789 14.2356 14.651C14.4603 14.6511 14.6425 14.4689 14.6425 14.2441V8.04323C14.6433 7.1363 15.9633 7.09893 15.9876 8.01021V14.2441C15.9901 14.7772 16.7992 14.7754 16.8014 14.2441V8.04323C16.8014 7.71716 17.0177 7.41524 17.337 7.34898C17.7647 7.2602 18.1465 7.58959 18.1465 8.01018V14.2441C18.1514 14.6295 18.526 14.6786 18.83 14.651C19.0618 14.6511 19.2468 14.4576 19.2365 14.226L18.9601 8.04285C18.9405 7.66892 19.2292 7.35395 19.6031 7.33442C19.9706 7.32127 20.2856 7.60997 20.3055 7.97749L20.7319 17.4989Z" fill="url(#paint0_linear_2821_41525)"/>
<path d="M28.9417 20.2682L29.4796 34.1405C29.5059 34.8095 29.263 35.4462 28.7972 35.9252C27.3193 37.5391 24.4852 36.3281 24.6107 34.1404C24.6106 34.1405 25.155 20.2682 25.155 20.2682C23.1012 18.6934 21.9791 16.1669 22.1367 13.4238C22.2993 9.73063 25.2281 6.08653 28.7841 7.76719C33.0371 10.0367 32.8904 17.565 28.9417 20.2682Z" fill="white"/>
<defs>
<linearGradient id="paint0_linear_2821_41525" x1="16.3977" y1="7.33398" x2="16.3977" y2="36.6489" gradientUnits="userSpaceOnUse">
<stop stop-color="#FF1759"/>
<stop offset="1" stop-color="#BF0036"/>
</linearGradient>
</defs>
</svg>
