<svg width="24" height="24" viewBox="0 0 24 24" fill="none" xmlns="http://www.w3.org/2000/svg">
<path d="M6.65957 7.2547C7.32426 7.2547 7.8631 6.71586 7.8631 6.05118C7.8631 5.38649 7.32426 4.84766 6.65957 4.84766C5.99489 4.84766 5.45605 5.38649 5.45605 6.05118C5.45605 6.71586 5.99489 7.2547 6.65957 7.2547Z" fill="#478CF7"/>
<path d="M10.2442 7.75162L10.7782 5.40224C10.8604 5.04066 10.586 4.69622 10.2152 4.69546L10.1553 4.69531C9.88472 4.69479 9.6498 4.88197 9.58996 5.1459L9.13261 7.16332L7.89503 7.60331H5.42162C5.15708 7.60331 4.89796 7.67848 4.67455 7.82018L3.07802 8.83224C2.88971 8.95161 2.76981 9.15375 2.75538 9.37619L2.63796 11.1824C2.61631 11.516 2.88099 11.7984 3.21529 11.7984C3.51823 11.7984 3.76984 11.5648 3.79224 11.2627L3.90545 9.73664L4.83677 9.17254L4.44602 12.5822L3.3391 18.2612C3.25708 18.6822 3.58409 19.0716 4.01287 19.0635L4.03076 19.0632C4.3404 19.0574 4.60614 18.8412 4.67485 18.5393L5.71442 13.9715C5.75997 13.7713 5.92588 13.6211 6.12952 13.5954C6.30362 13.5736 6.47607 13.6467 6.58124 13.7871L7.43212 14.9232L6.81179 17.5095C6.70903 17.9379 7.03836 18.3479 7.4788 18.34C7.78182 18.3346 8.04395 18.1275 8.1192 17.8339L8.86928 14.9091C8.91814 14.7185 8.88431 14.5161 8.77599 14.3518L7.34281 12.1774L7.72131 9.04257L9.8115 8.24919C10.0299 8.16628 10.1924 7.97947 10.2442 7.75162Z" fill="#478CF7"/>
<path d="M16.0482 9.46563C16.7129 9.46563 17.2518 8.9268 17.2518 8.26211C17.2518 7.59743 16.7129 7.05859 16.0482 7.05859C15.3836 7.05859 14.8447 7.59743 14.8447 8.26211C14.8447 8.9268 15.3836 9.46563 16.0482 9.46563Z" fill="#E63950"/>
<path d="M14.6187 11.0242L12.4614 10.2468C12.0655 10.1041 11.885 9.64604 12.0773 9.27168L12.868 7.73206C12.9739 7.52601 13.1859 7.39627 13.4175 7.39581C13.8793 7.39499 14.1794 7.88188 13.971 8.29406L13.4492 9.32618L14.9675 9.81451H17.0088L18.0889 8.9773V6.62304C18.0889 6.27844 18.3686 5.99932 18.7132 6C19.0568 6.00068 19.335 6.27942 19.335 6.62304V9.28258C19.335 9.50073 19.233 9.70633 19.0592 9.83826L17.4971 11.0242V15.0864V19.6698C17.4971 20.0619 17.1754 20.3777 16.7834 20.3705C16.4014 20.3634 16.0956 20.0518 16.0956 19.6698V15.8856C16.0956 15.7069 15.9507 15.562 15.7719 15.562C15.6724 15.562 15.5785 15.6078 15.5171 15.6862L14.384 17.1344L14.9733 18.1862C15.203 18.5961 14.9067 19.1018 14.4368 19.1018H14.4049C14.1766 19.1018 13.967 18.9752 13.8607 18.7732L13.0774 17.2848C12.951 17.0446 12.9754 16.7528 13.1401 16.5369L14.6187 14.5979V11.0242Z" fill="#E63950"/>
<path d="M12.0793 4.03551V5.41523C11.9704 5.32984 11.8173 5.27631 11.6477 5.27631C11.318 5.27631 11.0498 5.47748 11.0498 5.72479C11.0498 5.97211 11.318 6.17328 11.6477 6.17328C11.9774 6.17328 12.2457 5.97211 12.2457 5.72479C12.2457 5.72141 12.2457 4.44212 12.2457 4.44212L13.687 3.93342V5.13799C13.578 5.0526 13.425 4.99907 13.2554 4.99907C12.9257 4.99907 12.6575 5.20024 12.6575 5.44756C12.6575 5.69488 12.9257 5.89604 13.2554 5.89604C13.5851 5.89604 13.8533 5.69488 13.8533 5.44756V3.44495C13.8533 3.36729 13.7756 3.31369 13.703 3.34136L12.1509 3.93184C12.1078 3.94823 12.0793 3.98943 12.0793 4.03551Z" fill="#FFC91D"/>
<path d="M19.7148 11.2575V12.783C19.5928 12.6874 19.4216 12.6275 19.2317 12.6275C18.8627 12.6275 18.5625 12.8526 18.5625 13.1294C18.5625 13.4062 18.8627 13.6314 19.2317 13.6314C19.6007 13.6314 19.9009 13.4061 19.9009 13.1294C19.9009 13.1257 19.9009 12.0041 19.9009 12.0041L20.5182 12.3414C20.5595 12.364 20.61 12.334 20.61 12.287V11.7126C20.61 11.6672 20.5851 11.6253 20.545 11.6036L19.8064 11.2029C19.765 11.1805 19.7148 11.2104 19.7148 11.2575Z" fill="#FFC91D"/>
<path d="M3.69131 5.25747V6.78303C3.56938 6.68741 3.39814 6.6275 3.20825 6.6275C2.83923 6.6275 2.53906 6.85264 2.53906 7.12943C2.53906 7.40622 2.83923 7.63136 3.20825 7.63136C3.57728 7.63136 3.87744 7.40614 3.87744 7.12943C3.87744 7.12567 3.87744 6.00409 3.87744 6.00409L4.49476 6.34139C4.53611 6.36402 4.58655 6.33402 4.58655 6.28697V5.71264C4.58655 5.66716 4.56167 5.62529 4.5216 5.60357L3.78295 5.2029C3.74161 5.18049 3.69131 5.21041 3.69131 5.25747Z" fill="#FFC91D"/>
</svg>
