<svg width="24" height="24" viewBox="0 0 24 24" fill="none" xmlns="http://www.w3.org/2000/svg">
<path fill-rule="evenodd" clip-rule="evenodd" d="M15.0868 5.93115L9.63327 9.24522H11.1842L15.2105 6.7984L15.8017 6.439L17.5063 9.24522H18.4986C18.7147 9.24522 18.9101 9.33377 19.052 9.4744C19.1939 9.61634 19.2825 9.81167 19.2825 10.0265V19.2187C19.2825 19.4335 19.1939 19.6289 19.0533 19.7695V19.7708C18.9114 19.9128 18.716 20 18.4999 20H4.78392C4.56775 20 4.37243 19.9128 4.23049 19.7708V19.7695C4.08855 19.6289 4 19.4335 4 19.22V10.0265C4 9.81167 4.08855 9.61504 4.22919 9.4744C4.37112 9.33247 4.56645 9.24522 4.78262 9.24522H5.10816L13.575 4.10027C13.6831 4.03516 13.8055 4 13.9318 4C13.9865 4 14.0412 4.00651 14.0946 4.01953C14.2717 4.06251 14.4253 4.17449 14.5191 4.33076L15.3824 5.75144L15.0868 5.93115ZM4.76699 9.94059C4.73704 9.97314 4.7123 10.0096 4.69407 10.05V11.1816H18.5858V10.0265C18.5858 10.0018 18.5767 9.97965 18.5611 9.96533H18.5598C18.5442 9.9497 18.522 9.93929 18.4973 9.93929H4.78262C4.77741 9.93929 4.7722 9.93928 4.76699 9.94059ZM6.0809 15.0308H8.56157V15.9593H6.0809V15.0308ZM6.0809 17.2289H13.0151V18.0662H6.0809V17.2289ZM15.2262 15.0308H17.7068V15.9593H15.2262V15.0308ZM12.1777 15.0308H14.6584V15.9593H12.1777V15.0308ZM9.12932 15.0308H11.61V15.9593H9.12932V15.0308ZM18.5858 13.7846H4.69407V19.2187C4.69407 19.2434 4.70318 19.2656 4.72011 19.2812H4.72141C4.73834 19.2981 4.76048 19.3072 4.78262 19.3072H18.4986C18.522 19.3072 18.5442 19.2968 18.5611 19.2812C18.578 19.2643 18.5871 19.2421 18.5871 19.2187V13.7846H18.5858Z" fill="#8F8F8F"/>
</svg>
