<svg width="24" height="24" viewBox="0 0 24 24" fill="none" xmlns="http://www.w3.org/2000/svg">
<path d="M14.4226 17.3645C14.8048 17.3645 15.1148 17.0546 15.1148 16.6724V9.75076C15.1148 9.36854 14.8048 9.05859 14.4226 9.05859C14.0404 9.05859 13.7305 9.36854 13.7305 9.75076V16.6724C13.7305 17.0546 14.0404 17.3645 14.4226 17.3645Z" fill="white"/>
<path d="M9.57693 17.3645C9.95914 17.3645 10.2691 17.0546 10.2691 16.6724V9.75076C10.2691 9.36854 9.95914 9.05859 9.57693 9.05859C9.19472 9.05859 8.88477 9.36854 8.88477 9.75076V16.6724C8.88477 17.0546 9.19472 17.3645 9.57693 17.3645Z" fill="white"/>
<path d="M14.7695 3.86675C15.1517 3.86675 15.4617 3.5568 15.4617 3.17458C15.4617 2.79237 15.1517 2.48242 14.7695 2.48242H9.2322C8.84999 2.48242 8.54004 2.79237 8.54004 3.17458C8.54004 3.5568 8.84999 3.86675 9.2322 3.86675H14.7695Z" fill="white"/>
<path d="M4.3865 4.55859C4.00429 4.55859 3.69434 4.86854 3.69434 5.25076C3.69434 5.63297 4.00429 5.94292 4.3865 5.94292H5.07866V18.6787C5.07866 20.2429 6.35224 21.5166 7.91653 21.5166H16.0841C17.6483 21.5166 18.9219 20.243 18.9219 18.6787V5.94292H19.6141C19.9963 5.94292 20.3062 5.63297 20.3062 5.25076C20.3062 4.86854 19.9963 4.55859 19.6141 4.55859H18.2298H5.77082H4.3865ZM17.5376 5.94292V18.6787C17.5376 19.4816 16.887 20.1323 16.0841 20.1323H7.91653C7.11362 20.1323 6.46299 19.4816 6.46299 18.6787V5.94292H17.5376Z" fill="white"/>
</svg>
