<svg width="24" height="24" viewBox="0 0 24 24" fill="none" xmlns="http://www.w3.org/2000/svg">
<path d="M21.614 21.2452H21.606V15.6341C21.606 15.4257 21.4336 15.2567 21.221 15.2567H20.8562V14.423C20.9683 14.2735 21.193 13.9146 21.193 13.4373C21.193 11.9632 20.0276 11.2917 19.3313 10.8904C19.1883 10.808 18.9993 10.6991 18.9232 10.6339C18.9222 10.629 18.9207 10.6244 18.9195 10.6196V10.3071C18.9195 10.0987 18.7471 9.92969 18.5346 9.92969C18.322 9.92969 18.1496 10.0987 18.1496 10.3071V10.6215C18.1496 10.6287 18.1503 10.6356 18.1508 10.6427C18.0688 10.7071 17.8978 10.8057 17.7665 10.8813C17.7037 10.9175 17.6376 10.9557 17.5694 10.996C17.6736 10.6927 17.7487 10.3391 17.7487 9.94908C17.7487 8.55141 17.2481 7.31854 16.2607 6.28475C15.4312 5.41622 14.4142 4.83014 13.5969 4.35927C13.2091 4.13584 12.8741 3.94284 12.6424 3.76692C12.4684 3.63487 12.4078 3.55283 12.3869 3.51367C12.3872 3.50447 12.3878 3.49541 12.3878 3.48612V2.37742C12.3878 2.16899 12.2155 2 12.0029 2C11.7903 2 11.618 2.16899 11.618 2.37742V3.39398C11.6104 3.42352 11.6059 3.45428 11.6059 3.48607C11.6059 3.49537 11.6066 3.50443 11.6069 3.51362C11.5859 3.55283 11.5254 3.63487 11.3514 3.76687C11.1196 3.94279 10.7847 4.13579 10.3969 4.35922C9.57966 4.8301 8.56255 5.41618 7.73304 6.2847C6.74571 7.31849 6.24511 8.55137 6.24511 9.94903C6.24511 10.3482 6.32378 10.7091 6.4319 11.0171C6.35669 10.9725 6.28361 10.9302 6.21456 10.8904C6.08494 10.8157 5.9174 10.7191 5.8305 10.6531C5.83142 10.6427 5.83214 10.6322 5.83214 10.6214V10.3071C5.83214 10.0986 5.65979 9.92964 5.44722 9.92964C5.23464 9.92964 5.06229 10.0986 5.06229 10.3071V10.5823C5.05618 10.5989 5.05084 10.6159 5.04718 10.6335C4.97135 10.6987 4.78202 10.8078 4.63883 10.8904C3.9425 11.2916 2.7771 11.9631 2.7771 13.4372C2.7771 13.9743 3.06132 14.3613 3.14975 14.4688V15.2567H2.78489C2.57232 15.2567 2.39997 15.4257 2.39997 15.6341V21.2452H2.38395C2.17137 21.2452 1.99902 21.4142 1.99902 21.6226C1.99902 21.831 2.17137 22 2.38395 22H21.6141C21.8267 22 21.999 21.831 21.999 21.6226C21.999 21.4142 21.8266 21.2452 21.614 21.2452ZM16.9949 15.2567V14.4881H20.0863V15.2567H16.9949ZM16.225 12.9578H7.78077V12.2446H16.225V12.9578ZM18.1566 11.532C18.295 11.4523 18.4266 11.3761 18.5413 11.2962C18.658 11.3777 18.7942 11.4565 18.9412 11.5412C19.6015 11.9216 20.4231 12.3951 20.4231 13.4372C20.4231 13.5475 20.3986 13.6482 20.3666 13.7333H16.9949V12.4516C17.2924 12.0301 17.769 11.7554 18.1566 11.532ZM10.7869 5.00998C11.286 4.72239 11.7106 4.47764 11.9969 4.21949C12.2832 4.47764 12.7077 4.72239 13.2068 5.00998C14.7987 5.9272 16.9789 7.18333 16.9789 9.94903C16.9789 10.6689 16.6366 11.2438 16.4625 11.4897H7.53009C7.35605 11.2462 7.01496 10.6762 7.01496 9.94903C7.01496 7.18338 9.19507 5.9272 10.7869 5.00998ZM5.0288 11.5412C5.17493 11.457 5.31038 11.3786 5.42662 11.2976C5.54292 11.3786 5.67836 11.457 5.82449 11.5412C6.22034 11.7693 6.70707 12.0499 7.01092 12.4813V13.7333H3.60348C3.57144 13.6482 3.54685 13.5476 3.54685 13.4373C3.5469 12.3951 4.36856 11.9216 5.0288 11.5412ZM3.9195 14.4881H7.01092V15.2567H3.9195V14.4881ZM3.16972 16.0115H7.39584C7.60842 16.0115 7.78077 15.8426 7.78077 15.6341V14.1116C7.78077 14.1113 7.78082 14.111 7.78082 14.1107C7.78082 14.1104 7.78077 14.1101 7.78077 14.1098V13.7126H16.225V15.6341C16.225 15.8426 16.3974 16.0115 16.61 16.0115H20.8361V21.2452H19.7314V20.9149C19.7314 20.6465 19.5821 20.3394 19.2617 19.9482C19.0565 19.6979 18.853 19.504 18.8445 19.4958C18.6952 19.3541 18.4582 19.3541 18.3089 19.4958C18.3003 19.504 18.0968 19.6979 17.8916 19.9482C17.5712 20.3394 17.4219 20.6465 17.4219 20.9149V21.2452H15.459V17.9565C15.459 17.1771 14.89 16.3508 13.7678 15.5006C12.9778 14.902 12.1988 14.5094 12.166 14.493C12.056 14.4379 11.9257 14.4379 11.8157 14.493C11.783 14.5094 11.004 14.902 10.2139 15.5006C9.09177 16.3508 8.52276 17.1771 8.52276 17.9565V21.2452H6.58394V20.9149C6.58394 20.6465 6.43464 20.3394 6.11419 19.9482C5.90903 19.6979 5.70555 19.504 5.69698 19.4958C5.54768 19.3541 5.31066 19.3541 5.16136 19.4958C5.1528 19.504 4.94932 19.6979 4.74415 19.9482C4.42366 20.3394 4.2744 20.6465 4.2744 20.9149V21.2452H3.16972V16.0115ZM18.1917 20.9157C18.1965 20.8165 18.3619 20.5681 18.5767 20.3199C18.7915 20.5681 18.9569 20.8163 18.9616 20.915V21.2452H18.1917V20.9157ZM12.7728 21.2452H11.2331V18.2525H12.7728V21.2452ZM13.1577 17.4976H10.8481C10.6356 17.4976 10.4632 17.6666 10.4632 17.875V21.2452H9.2926V17.9565C9.2926 17.4399 9.78391 16.7821 10.676 16.1044C11.197 15.7087 11.7254 15.4034 11.9909 15.2582C12.2564 15.4034 12.7848 15.7087 13.3057 16.1044C14.1979 16.7822 14.6891 17.4399 14.6891 17.9565V21.2452H13.5426V17.875C13.5426 17.6666 13.3703 17.4976 13.1577 17.4976ZM5.04425 20.9157C5.04901 20.8165 5.21439 20.5681 5.42917 20.3199C5.64401 20.5681 5.80938 20.8163 5.8141 20.915V21.2452H5.04425V20.9157Z" fill="white"/>
<path d="M2.40361 21.3185H4.41649C4.6944 21.3185 4.91971 21.0932 4.91971 20.8153V19.8718C4.91971 19.5139 4.72453 19.1044 4.30553 18.5828C4.03738 18.249 3.7713 17.9905 3.76017 17.9797C3.56498 17.7906 3.25512 17.7906 3.05994 17.9797C3.04874 17.9905 2.78273 18.249 2.51457 18.5828C2.09558 19.1044 1.90039 19.5139 1.90039 19.8718V20.8153C1.90039 21.0933 2.12571 21.3185 2.40361 21.3185ZM3.41037 19.0781C3.69104 19.4084 3.90705 19.7395 3.91334 19.8718V20.3121H2.90689V19.8728C2.913 19.7405 3.12932 19.4091 3.41037 19.0781Z" fill="white"/>
<path d="M19.5921 21.3185H21.605C21.8829 21.3185 22.1082 21.0932 22.1082 20.8153V19.8718C22.1082 19.5139 21.913 19.1044 21.494 18.5828C21.2259 18.249 20.9598 17.9905 20.9486 17.9797C20.7535 17.7906 20.4436 17.7906 20.2484 17.9797C20.2372 17.9905 19.9712 18.249 19.703 18.5828C19.2841 19.1044 19.0889 19.5139 19.0889 19.8718V20.8153C19.0889 21.0933 19.3142 21.3185 19.5921 21.3185ZM20.5988 19.0781C20.8795 19.4084 21.0955 19.7395 21.1018 19.8718V20.3121H20.0954V19.8728C20.1015 19.7405 20.3178 19.4091 20.5988 19.0781Z" fill="white"/>
</svg>
