<svg width="24" height="24" viewBox="0 0 24 24" fill="none" xmlns="http://www.w3.org/2000/svg">
<path d="M13.793 4.22366C13.3887 4.40295 13.125 4.80725 13.125 5.25022V7.50022H9.1875C5.77031 7.50022 3 10.2705 3 13.6877C3 17.6709 5.86523 19.4498 6.52266 19.8084C6.61055 19.8576 6.70898 19.8752 6.80742 19.8752C7.19063 19.8752 7.5 19.5623 7.5 19.1826C7.5 18.919 7.34883 18.6764 7.15547 18.4971C6.825 18.1842 6.375 17.569 6.375 16.5002C6.375 14.6369 7.88672 13.1252 9.75 13.1252H13.125V15.3752C13.125 15.8182 13.3852 16.2225 13.793 16.4018C14.2008 16.5811 14.6719 16.5073 15.0023 16.2119L20.6273 11.1494C20.8629 10.935 21 10.6326 21 10.3127C21 9.9928 20.8664 9.69045 20.6273 9.476L15.0023 4.4135C14.6719 4.11467 14.1973 4.04084 13.793 4.22366Z" fill="white"/>
</svg>
