<svg width="44" height="44" viewBox="0 0 44 44" fill="none" xmlns="http://www.w3.org/2000/svg">
<path d="M9.04148 10.6115V8.86549C9.04148 8.74257 8.94174 8.64282 8.81881 8.64282H8.34165C8.21873 8.64282 8.11899 8.74242 8.11899 8.86549V11.5492C8.11928 11.5489 8.48687 11.0476 9.04148 10.6115Z" fill="#B2B0AD"/>
<path d="M18.025 11.5487V8.865C18.025 8.74208 17.9254 8.64233 17.8024 8.64233H17.3252C17.2023 8.64233 17.1025 8.74193 17.1025 8.865V10.611C17.6573 11.0472 18.025 11.5487 18.025 11.5487Z" fill="#B2B0AD"/>
<path d="M19.6542 31.3053C21.0444 30.7158 21.7255 30.149 21.7255 30.149C21.7255 30.149 20.5093 28.0929 19.5521 25.2148C18.9309 23.3467 18.6019 21.6296 17.9133 19.9844C17.0806 17.9949 16.0282 17.1346 16.0282 17.1346C16.0282 17.1346 16.3126 15.4622 16.8503 14.0354C17.3329 12.7553 18.0251 11.5491 18.0251 11.5491C18.0251 11.5491 16.9961 10.1374 15.7735 9.99218C14.6253 9.85547 13.3044 10.6288 13.0721 10.8126C12.8399 10.6288 11.5188 9.85547 10.3706 9.99218C9.14798 10.1374 8.11899 11.5491 8.11899 11.5491C8.11899 11.5491 8.81119 12.7553 9.29378 14.0354C9.83152 15.4623 10.1159 17.1346 10.1159 17.1346C10.1159 17.1346 9.06349 17.9951 8.23077 19.9844C7.54223 21.6296 7.21322 23.3467 6.59202 25.2148C5.63476 28.0929 4.41861 30.149 4.41861 30.149C4.41861 30.149 5.09966 30.7156 6.48993 31.3053C6.30951 31.7402 6.19553 31.9828 6.19553 31.9828C6.19553 31.9828 7.18139 32.9138 9.21135 33.5737C9.11849 34.0172 9.0607 34.2749 9.0607 34.2749C9.0607 34.2749 10.3575 35.2322 13.0719 35.3567C15.7864 35.2322 17.0831 34.2749 17.0831 34.2749C17.0831 34.2749 17.0253 34.0172 16.9325 33.5737C18.9624 32.9138 19.9483 31.9828 19.9483 31.9828C19.9483 31.9828 19.8346 31.7402 19.6542 31.3053Z" fill="#F47DA5"/>
<path d="M14.7449 11.1417C14.9583 11.3687 15.0005 11.7068 14.8552 11.9824C14.6104 12.4465 14.2216 13.2262 13.9167 14.0351C13.7589 14.4539 13.623 14.8935 13.5096 15.3061H16.4433C16.5567 14.8935 16.6925 14.4539 16.8504 14.0351C17.3329 12.755 18.0251 11.5488 18.0251 11.5488C18.0251 11.5488 16.9962 10.1372 15.7736 9.99195C15.1061 9.91244 14.3818 10.1405 13.8455 10.3814C14.2126 10.6148 14.5248 10.9075 14.7449 11.1417Z" fill="#E06E9A"/>
<path d="M16.4435 15.3062H9.70065C9.97363 16.2992 10.1162 17.1346 10.1162 17.1346H16.0281C16.0281 17.1346 16.1707 16.2992 16.4435 15.3062Z" fill="#FEDBB0"/>
<path d="M9.27206 33.2815C7.79759 32.796 6.89637 32.1686 6.55445 31.9005C6.81731 31.3041 7.58476 29.4749 8.2064 27.1237C8.43053 26.2753 8.57091 25.4615 8.70674 24.6747C8.82086 24.0126 8.92882 23.3873 9.08019 22.7684C9.11877 22.611 9.02225 22.4522 8.86501 22.4137C8.70762 22.3753 8.54891 22.4714 8.51033 22.6289C8.35411 23.2674 8.24439 23.9026 8.12837 24.575C7.99488 25.3495 7.85656 26.1504 7.63903 26.9738C6.89461 29.79 5.93955 31.8377 5.93002 31.8581C5.87633 31.9727 5.902 32.1089 5.99397 32.1959C6.05661 32.2552 7.08237 33.2019 9.14972 33.8658C9.18302 33.7098 9.22438 33.5131 9.27206 33.2815Z" fill="#CC628E"/>
<path d="M20.2139 31.8579C20.2046 31.8375 19.2504 29.7935 18.5052 26.9736C18.2874 26.1496 18.1491 25.3482 18.0155 24.5734C17.8996 23.9015 17.7901 23.2669 17.6339 22.6289C17.5955 22.4713 17.4371 22.375 17.2793 22.4135C17.122 22.4521 17.0256 22.6108 17.0641 22.7682C17.2153 23.3866 17.3231 24.0116 17.4372 24.6732C17.5731 25.4604 17.7134 26.2745 17.9379 27.1237C18.5594 29.4756 19.3274 31.3052 19.59 31.901C19.2489 32.17 18.35 32.7983 16.8725 33.2838C16.92 33.5145 16.9612 33.7104 16.9944 33.8658C19.0617 33.202 20.0875 32.2553 20.1501 32.196C20.2423 32.1086 20.2679 31.9724 20.2139 31.8579Z" fill="#CC628E"/>
<path d="M13.0722 35.6502C13.0678 35.6502 13.0631 35.6502 13.0587 35.65C10.2869 35.5229 8.94245 34.5523 8.88671 34.5111C8.79312 34.442 8.74912 34.3244 8.77464 34.211C8.78022 34.1859 9.34128 31.6725 9.7784 28.838C9.90586 28.0102 9.9861 27.2073 10.0637 26.4308C10.1618 25.4477 10.2547 24.5192 10.4335 23.5964C10.481 23.3523 10.5343 23.1047 10.5918 22.8608C10.6289 22.7029 10.7871 22.6058 10.9445 22.6425C11.1022 22.6796 11.1999 22.8376 11.1626 22.9953C11.1069 23.2319 11.0554 23.4719 11.0094 23.7083C10.8355 24.6043 10.744 25.5198 10.6473 26.4891C10.569 27.2734 10.4879 28.0843 10.3579 28.9275C9.98933 31.3174 9.53329 33.4809 9.39115 34.1371C9.80055 34.3741 11.0163 34.9669 13.0719 35.0634C15.1266 34.9669 16.3422 34.3745 16.7525 34.1371C16.6103 33.4808 16.1541 31.3174 15.7857 28.9275C15.6557 28.0843 15.5747 27.2734 15.4963 26.4891C15.3996 25.52 15.3081 24.6044 15.1341 23.7083C15.0882 23.472 15.0367 23.232 14.981 22.9954C14.9437 22.8377 15.0414 22.6798 15.1991 22.6427C15.356 22.606 15.5147 22.7032 15.5519 22.8609C15.6095 23.105 15.6626 23.3525 15.71 23.5964C15.8891 24.5193 15.9819 25.4478 16.0799 26.4309C16.1575 27.2074 16.2378 28.0105 16.3652 28.8381C16.8022 31.6726 17.3634 34.1861 17.369 34.2111C17.3945 34.3245 17.3505 34.4423 17.2569 34.5113C17.201 34.5525 15.8567 35.5231 13.0851 35.6501C13.0811 35.6501 13.0766 35.6502 13.0722 35.6502Z" fill="#CC628E"/>
<path d="M28.0096 19.2727L32.0247 9.76978H23.9945L28.0096 19.2727Z" fill="#FEDBB0"/>
<path d="M30.1156 9.76978H25.9035C25.6391 9.76978 25.4248 9.98408 25.4248 10.2484V12.648C25.4248 12.7818 25.5585 12.8743 25.6836 12.8272L28.0095 11.9532L30.3355 12.8272C30.4606 12.8743 30.5943 12.7818 30.5943 12.648V10.2484C30.5943 9.98408 30.3799 9.76978 30.1156 9.76978Z" fill="#E8C197"/>
<path d="M28.1616 11.9086L29.4423 9.76978H26.577L27.8577 11.9086C27.9263 12.0234 28.0928 12.0234 28.1616 11.9086Z" fill="#D1AB86"/>
<path d="M19.5053 29.3209H16.6292C16.506 29.3209 16.4149 29.2064 16.4427 29.0864L20.4412 11.7856C20.5086 11.4945 20.7081 11.2513 20.9806 11.1285L23.9945 9.76978L29.1001 21.8539L27.5665 31.914C27.5309 32.1478 27.3298 32.3205 27.0933 32.3205H21.3887C21.0663 32.3205 20.8361 32.0083 20.9315 31.7003L23.6115 23.0363L22.4334 18.2503L19.6911 29.176C19.6697 29.2612 19.5931 29.3209 19.5053 29.3209Z" fill="#5E3E2F"/>
<path d="M36.5138 29.3209H39.3898C39.513 29.3209 39.6041 29.2064 39.5764 29.0864L35.5778 11.7856C35.5105 11.4945 35.311 11.2513 35.0385 11.1285L32.0246 9.76978L27.0243 21.6046C26.9553 21.7676 26.933 21.9466 26.9597 22.1215L28.4525 31.9141C28.4882 32.148 28.6893 32.3206 28.9257 32.3206H34.6304C34.9528 32.3206 35.1829 32.0085 35.0876 31.7004L32.4075 23.0364L33.5857 18.2504L36.328 29.1761C36.3495 29.2612 36.4261 29.3209 36.5138 29.3209Z" fill="#725246"/>
<path d="M27.6026 11.9521H28.4163V12.7658H27.6026V11.9521Z" fill="#725246"/>
<path d="M28.4164 12.766L29.4376 13.2923C29.5651 13.3581 29.7168 13.2655 29.7168 13.1222V11.5962C29.7168 11.4529 29.5649 11.3604 29.4376 11.4261L28.4164 11.9524V12.766Z" fill="#5E3E2F"/>
<path d="M27.6026 12.766L26.5814 13.2923C26.4539 13.3581 26.3023 13.2655 26.3023 13.1222V11.5962C26.3023 11.4529 26.4541 11.3604 26.5814 11.4261L27.6026 11.9524V12.766Z" fill="#5E3E2F"/>
<path d="M27.6985 22.3448C27.91 22.3448 28.0814 22.1734 28.0814 21.9618C28.0814 21.7503 27.91 21.5789 27.6985 21.5789C27.4869 21.5789 27.3155 21.7503 27.3155 21.9618C27.3155 22.1734 27.4869 22.3448 27.6985 22.3448Z" fill="#5E3E2F"/>
</svg>
