<svg width="24" height="24" viewBox="0 0 24 24" fill="none" xmlns="http://www.w3.org/2000/svg">
<path d="M8.62857 8.90234L7.72661 10.6503C7.34904 11.3822 7.70097 12.2795 8.47475 12.5615C9.24853 12.8435 10.0922 12.382 10.274 11.578L10.7075 9.65981L8.62857 8.90234ZM15.5087 8.90234L13.4321 9.65981L13.8633 11.5803C14.045 12.3844 14.8887 12.8458 15.6625 12.5638C16.4363 12.2818 16.7859 11.3845 16.4107 10.6527L15.5087 8.90467V8.90234Z" fill="#006DEC"/>
<path opacity="0.4" d="M9.15531 6.04499C8.80338 5.9168 8.4095 6.07062 8.23703 6.40391L6.40279 9.9675C5.73156 11.268 6.16041 12.8179 7.29777 13.6173L6.56827 15.6264L5.6127 15.2768C5.22581 15.1346 4.79696 15.335 4.65712 15.7219C4.51728 16.1088 4.71539 16.5377 5.10228 16.6775L6.75939 17.2811L8.41649 17.8871C8.80338 18.0293 9.23223 17.8288 9.37207 17.442C9.51191 17.0551 9.3138 16.6262 8.92691 16.4864L7.97133 16.1368L8.70083 14.1277C10.0853 14.2489 11.4091 13.3376 11.7307 11.9089L12.0686 10.401L12.4089 11.9089C12.7306 13.3376 14.0544 14.2489 15.4388 14.1277L16.1683 16.1368L15.2127 16.4864C14.8258 16.6285 14.6254 17.0551 14.7676 17.442C14.9097 17.8288 15.3362 18.0293 15.7231 17.8871L17.3802 17.2835L19.0373 16.6798C19.4242 16.5377 19.6247 16.1111 19.4825 15.7242C19.3403 15.3374 18.9138 15.1369 18.5269 15.2791L17.5714 15.6287L16.8419 13.6197C17.9792 12.8202 18.4081 11.2703 17.7392 9.96983L15.9003 6.40391C15.7301 6.07062 15.3362 5.9168 14.9843 6.04499L12.0686 7.10777L9.15531 6.04499ZM7.72661 10.6527L9.26252 7.67179L11.0129 8.31039L10.274 11.5803C10.0922 12.3844 9.24854 12.8459 8.47476 12.5639C7.70098 12.2819 7.35138 11.3845 7.72661 10.6527ZM16.4107 10.6527C16.7883 11.3845 16.4363 12.2819 15.6625 12.5639C14.8888 12.8459 14.0451 12.3844 13.8633 11.5803L13.1268 8.31039L14.8771 7.67179L16.413 10.6504L16.4107 10.6527Z" fill="#006DEC"/>
</svg>
