<svg width="44" height="44" viewBox="0 0 44 44" fill="none" xmlns="http://www.w3.org/2000/svg">
<path d="M22.8594 8.19336C22.8594 7.71876 22.4746 7.33398 22 7.33398C21.5254 7.33398 21.1406 7.71876 21.1406 8.19336V10.485C21.1406 10.9596 21.5254 11.3444 22 11.3444C22.4746 11.3444 22.8594 10.9596 22.8594 10.485V8.19336Z" fill="url(#paint0_linear_2821_41532)"/>
<path d="M25.0079 11.2309C25.4189 11.4682 25.9445 11.3274 26.1818 10.9164L27.3277 8.93176C27.565 8.52075 27.4242 7.99516 27.0131 7.75785C26.6021 7.52055 26.0765 7.66137 25.8392 8.07238L24.6934 10.057C24.4561 10.468 24.5969 10.9936 25.0079 11.2309Z" fill="white"/>
<path d="M17.8178 10.9164C18.0551 11.3274 18.5806 11.4682 18.9917 11.2309C19.4027 10.9936 19.5435 10.468 19.3062 10.057L18.1604 8.07238C17.9231 7.66137 17.3975 7.52055 16.9864 7.75785C16.5754 7.99516 16.4346 8.52075 16.6719 8.93176L17.8178 10.9164Z" fill="white"/>
<path d="M20.5403 13.887L12.725 12.0827C12.3203 11.9892 11.9067 12.1986 11.7424 12.58L10.041 16.5297C10.6083 16.984 11.2695 17.3056 11.9889 17.4717C11.9924 17.4725 11.9958 17.4734 11.9994 17.4741C12.0017 17.4746 12.0039 17.4751 12.0062 17.4757C13.0015 17.7139 14.0305 17.6361 14.9795 17.2503C14.9827 17.2491 14.9859 17.2478 14.989 17.2466C16.2501 16.7346 17.6177 16.6247 18.9446 16.9288C18.9486 16.9297 18.9528 16.9306 18.9568 16.9316C19.7133 17.1062 20.4226 17.408 21.0615 17.8225L21.2055 14.7647C21.2249 14.3499 20.9449 13.9804 20.5403 13.887Z" fill="white"/>
<path d="M18.5608 18.6031C17.5775 18.3778 16.5642 18.4598 15.6303 18.8401C15.6269 18.8415 15.6234 18.8429 15.6199 18.8443C14.3553 19.3569 12.987 19.4653 11.6586 19.1586C11.6424 19.1549 11.6263 19.1511 11.6102 19.1472C11.6076 19.1466 11.6047 19.1459 11.6021 19.1453C10.7836 18.9564 10.0208 18.6186 9.34235 18.1504L9.16733 18.5566C8.44746 20.2278 8.50589 22.1174 9.32763 23.7409C10.0185 25.1058 11.1806 26.1471 12.5868 26.6875L11.2105 32.6485L7.99078 33.4253C7.60338 33.5188 7.33107 33.8664 7.33302 34.2649C7.33497 34.6635 7.61071 35.0084 7.99903 35.0981L14.6978 36.6446C15.0861 36.7343 15.4852 36.5452 15.6616 36.1878C15.8381 35.8304 15.7457 35.3986 15.4385 35.1447L12.8852 33.0351L14.2614 27.0741C15.7622 27.2049 17.263 26.7784 18.4824 25.8544C19.9327 24.7554 20.8135 23.0827 20.8991 21.2652L20.9611 19.9489C20.3078 19.2797 19.4856 18.8166 18.5697 18.6051C18.5668 18.6045 18.5637 18.6038 18.5608 18.6031Z" fill="white"/>
<path d="M36.0084 33.4253L32.7886 32.6485L31.4124 26.6875C32.8186 26.1471 33.9807 25.1058 34.6716 23.7409C35.4933 22.1174 35.5517 20.2278 34.8319 18.5566L34.6568 18.1504C33.9784 18.6185 33.2156 18.9564 32.3971 19.1453C32.3945 19.1459 32.3916 19.1466 32.389 19.1472C32.3729 19.151 32.3568 19.1549 32.3406 19.1586C31.0123 19.4653 29.644 19.3569 28.3793 18.8443C28.3758 18.8429 28.3723 18.8415 28.3689 18.8401C27.435 18.4598 26.4217 18.3778 25.4384 18.6031C25.4354 18.6038 25.4324 18.6045 25.4294 18.6052C24.5135 18.8166 23.6913 19.2797 23.0381 19.949L23.1001 21.2652C23.1856 23.0828 24.0665 24.7556 25.5168 25.8545C26.7361 26.7784 28.237 27.2049 29.7378 27.0741L31.114 33.0351L28.5607 35.1448C28.2534 35.3986 28.161 35.8304 28.3375 36.1878C28.514 36.5452 28.913 36.7343 29.3013 36.6447L36.0001 35.0981C36.3884 35.0085 36.6642 34.6636 36.6661 34.265C36.6681 33.8664 36.3958 33.5188 36.0084 33.4253Z" fill="url(#paint1_linear_2821_41532)"/>
<path d="M25.0547 16.9288C26.3816 16.6247 27.7493 16.7346 29.0103 17.2466C29.0135 17.2478 29.0167 17.2491 29.0198 17.2503C29.9687 17.6361 30.9978 17.7139 31.9931 17.4757C31.9954 17.4751 31.9977 17.4746 32 17.4741C32.0036 17.4734 32.007 17.4725 32.0104 17.4717C32.7298 17.3056 33.391 16.984 33.9583 16.5297L32.2569 12.58C32.0926 12.1986 31.679 11.9892 31.2743 12.0827L23.459 13.887C23.0544 13.9804 22.7744 14.3499 22.7939 14.7647L22.9379 17.8225C23.5768 17.408 24.286 17.1062 25.0426 16.9316C25.0465 16.9306 25.0507 16.9297 25.0547 16.9288Z" fill="url(#paint2_linear_2821_41532)"/>
<defs>
<linearGradient id="paint0_linear_2821_41532" x1="22" y1="7.33398" x2="22" y2="11.3444" gradientUnits="userSpaceOnUse">
<stop stop-color="#FF1759"/>
<stop offset="1" stop-color="#BF0036"/>
</linearGradient>
<linearGradient id="paint1_linear_2821_41532" x1="29.8521" y1="18.1504" x2="29.8521" y2="36.6668" gradientUnits="userSpaceOnUse">
<stop stop-color="#FF1759"/>
<stop offset="1" stop-color="#BF0036"/>
</linearGradient>
<linearGradient id="paint2_linear_2821_41532" x1="28.3756" y1="12.0605" x2="28.3756" y2="17.8225" gradientUnits="userSpaceOnUse">
<stop stop-color="#FF1759"/>
<stop offset="1" stop-color="#BF0036"/>
</linearGradient>
</defs>
</svg>
