<svg width="24" height="24" viewBox="0 0 24 24" fill="none" xmlns="http://www.w3.org/2000/svg">
<path d="M12.8 8.8V11.6686L14.5656 13.4343C14.878 13.7467 14.878 14.2533 14.5656 14.5657C14.2532 14.8781 13.7467 14.8781 13.4343 14.5657L11.4343 12.5657C11.2843 12.4157 11.2 12.2122 11.2 12V8.8C11.2 8.35818 11.5581 8 12 8C12.4418 8 12.8 8.35818 12.8 8.8Z" fill="white"/>
<path fill-rule="evenodd" clip-rule="evenodd" d="M20 12C20 7.58172 16.4182 4 12 4C7.58172 4 4 7.58172 4 12C4 16.4182 7.58172 20 12 20C16.4182 20 20 16.4182 20 12ZM12 5.6C15.5346 5.6 18.4 8.46538 18.4 12C18.4 15.5346 15.5346 18.4 12 18.4C8.46538 18.4 5.6 15.5346 5.6 12C5.6 8.46538 8.46538 5.6 12 5.6Z" fill="white"/>
</svg>
