<svg width="24" height="24" viewBox="0 0 24 24" fill="none" xmlns="http://www.w3.org/2000/svg">
<path d="M18.8909 4.51862C18.1994 3.82713 17.0817 3.82713 16.3902 4.51862L15.4397 5.46588L18.531 8.55711L19.4814 7.60669C20.1729 6.91519 20.1729 5.79742 19.4814 5.10593L18.8909 4.51862ZM9.44358 11.4652C9.25097 11.6578 9.10257 11.8946 9.01732 12.1567L8.08269 14.9606C7.99112 15.2321 8.06374 15.5321 8.26583 15.7373C8.46791 15.9426 8.76787 16.012 9.04258 15.9205L11.8465 14.9858C12.1054 14.9006 12.3422 14.7522 12.538 14.5596L17.8205 9.27387L14.7261 6.17949L9.44358 11.4652ZM7.03123 5.85426C5.35774 5.85426 4 7.212 4 8.88549V16.9688C4 18.6423 5.35774 20 7.03123 20H15.1145C16.788 20 18.1457 18.6423 18.1457 16.9688V13.9375C18.1457 13.3787 17.6942 12.9271 17.1353 12.9271C16.5764 12.9271 16.1249 13.3787 16.1249 13.9375V16.9688C16.1249 17.5277 15.6734 17.9792 15.1145 17.9792H7.03123C6.47235 17.9792 6.02082 17.5277 6.02082 16.9688V8.88549C6.02082 8.32661 6.47235 7.87508 7.03123 7.87508H10.0625C10.6213 7.87508 11.0729 7.42355 11.0729 6.86467C11.0729 6.30579 10.6213 5.85426 10.0625 5.85426H7.03123Z" fill="white"/>
</svg>
