<svg width="31" height="9" viewBox="0 0 31 9" fill="none" xmlns="http://www.w3.org/2000/svg">
<path d="M6.15341 2.33523L5.86364 3.32386H0.340909L0.630682 2.33523H6.15341ZM3.5625 9L0.443182 5.18182L0.426136 4.46591H1.97727C2.38068 4.46591 2.72443 4.40909 3.00852 4.29545C3.29261 4.17898 3.50994 4.00568 3.66051 3.77557C3.81108 3.54261 3.88636 3.25 3.88636 2.89773C3.88636 2.37784 3.73011 1.97017 3.41761 1.67472C3.10511 1.37642 2.625 1.22727 1.97727 1.22727H0.340909L0.630682 0.272727H1.97727C2.67045 0.272727 3.23864 0.387784 3.68182 0.617897C4.12784 0.84517 4.45739 1.15767 4.67045 1.5554C4.88636 1.95028 4.99432 2.39773 4.99432 2.89773C4.99432 3.34943 4.89489 3.76562 4.69602 4.14631C4.5 4.52415 4.18466 4.82812 3.75 5.05824C3.31818 5.28835 2.74716 5.40341 2.03693 5.40341H2.01136L4.89205 8.93182V9H3.5625ZM6.15341 0.272727L5.86364 1.26136L1.51705 1.22727L1.80682 0.272727H6.15341ZM12.1339 2.33523L11.8441 3.32386H6.32138L6.61115 2.33523H12.1339ZM9.54297 9L6.42365 5.18182L6.40661 4.46591H7.95774C8.36115 4.46591 8.7049 4.40909 8.98899 4.29545C9.27308 4.17898 9.49041 4.00568 9.64098 3.77557C9.79155 3.54261 9.86683 3.25 9.86683 2.89773C9.86683 2.37784 9.71058 1.97017 9.39808 1.67472C9.08558 1.37642 8.60547 1.22727 7.95774 1.22727H6.32138L6.61115 0.272727H7.95774C8.65092 0.272727 9.21911 0.387784 9.66229 0.617897C10.1083 0.84517 10.4379 1.15767 10.6509 1.5554C10.8668 1.95028 10.9748 2.39773 10.9748 2.89773C10.9748 3.34943 10.8754 3.76562 10.6765 4.14631C10.4805 4.52415 10.1651 4.82812 9.73047 5.05824C9.29865 5.28835 8.72763 5.40341 8.0174 5.40341H7.99183L10.8725 8.93182V9H9.54297ZM12.1339 0.272727L11.8441 1.26136L7.49751 1.22727L7.78729 0.272727H12.1339Z" fill="white"/>
<path d="M18.1143 2.33523L17.8246 3.32386H12.3018L12.5916 2.33523H18.1143ZM15.5234 9L12.4041 5.18182L12.3871 4.46591H13.9382C14.3416 4.46591 14.6854 4.40909 14.9695 4.29545C15.2536 4.17898 15.4709 4.00568 15.6214 3.77557C15.772 3.54261 15.8473 3.25 15.8473 2.89773C15.8473 2.37784 15.6911 1.97017 15.3786 1.67472C15.0661 1.37642 14.5859 1.22727 13.9382 1.22727H12.3018L12.5916 0.272727H13.9382C14.6314 0.272727 15.1996 0.387784 15.6428 0.617897C16.0888 0.84517 16.4183 1.15767 16.6314 1.5554C16.8473 1.95028 16.9553 2.39773 16.9553 2.89773C16.9553 3.34943 16.8558 3.76562 16.657 4.14631C16.4609 4.52415 16.1456 4.82812 15.7109 5.05824C15.2791 5.28835 14.7081 5.40341 13.9979 5.40341H13.9723L16.853 8.93182V9H15.5234ZM18.1143 0.272727L17.8246 1.26136L13.478 1.22727L13.7678 0.272727H18.1143ZM24.0948 2.33523L23.805 3.32386H18.2823L18.5721 2.33523H24.0948ZM21.5039 9L18.3846 5.18182L18.3675 4.46591H19.9187C20.3221 4.46591 20.6658 4.40909 20.9499 4.29545C21.234 4.17898 21.4513 4.00568 21.6019 3.77557C21.7525 3.54261 21.8278 3.25 21.8278 2.89773C21.8278 2.37784 21.6715 1.97017 21.359 1.67472C21.0465 1.37642 20.5664 1.22727 19.9187 1.22727H18.2823L18.5721 0.272727H19.9187C20.6119 0.272727 21.18 0.387784 21.6232 0.617897C22.0692 0.84517 22.3988 1.15767 22.6119 1.5554C22.8278 1.95028 22.9357 2.39773 22.9357 2.89773C22.9357 3.34943 22.8363 3.76562 22.6374 4.14631C22.4414 4.52415 22.1261 4.82812 21.6914 5.05824C21.2596 5.28835 20.6886 5.40341 19.9783 5.40341H19.9528L22.8335 8.93182V9H21.5039ZM24.0948 0.272727L23.805 1.26136L19.4585 1.22727L19.7482 0.272727H24.0948ZM30.0753 2.33523L29.7855 3.32386H24.2628L24.5526 2.33523H30.0753ZM27.4844 9L24.3651 5.18182L24.348 4.46591H25.8991C26.3026 4.46591 26.6463 4.40909 26.9304 4.29545C27.2145 4.17898 27.4318 4.00568 27.5824 3.77557C27.733 3.54261 27.8082 3.25 27.8082 2.89773C27.8082 2.37784 27.652 1.97017 27.3395 1.67472C27.027 1.37642 26.5469 1.22727 25.8991 1.22727H24.2628L24.5526 0.272727H25.8991C26.5923 0.272727 27.1605 0.387784 27.6037 0.617897C28.0497 0.84517 28.3793 1.15767 28.5923 1.5554C28.8082 1.95028 28.9162 2.39773 28.9162 2.89773C28.9162 3.34943 28.8168 3.76562 28.6179 4.14631C28.4219 4.52415 28.1065 4.82812 27.6719 5.05824C27.2401 5.28835 26.669 5.40341 25.9588 5.40341H25.9332L28.8139 8.93182V9H27.4844ZM30.0753 0.272727L29.7855 1.26136L25.4389 1.22727L25.7287 0.272727H30.0753Z" fill="#818181"/>
</svg>
