<svg width="24" height="24" viewBox="0 0 24 24" fill="none" xmlns="http://www.w3.org/2000/svg">
<path d="M11.7914 19.9949H6.84586C6.58674 19.9949 6.33232 19.9257 6.10894 19.7944C5.88557 19.6631 5.70136 19.4744 5.5754 19.248C5.44944 19.0215 5.3863 18.7655 5.39253 18.5065C5.39875 18.2474 5.47412 17.9948 5.61081 17.7746L5.94478 17.2363C5.17581 16.3387 4.61346 15.2831 4.29751 14.1442C3.98155 13.0053 3.9197 11.8109 4.11634 10.6455C4.38011 9.06437 5.11587 7.60001 6.22701 6.44467C7.33814 5.28932 8.7727 4.49702 10.3423 4.1718C11.5469 3.91811 12.7938 3.9457 13.986 4.25243C15.1781 4.55916 16.2835 5.13676 17.2161 5.9403C18.1487 6.74384 18.8833 7.75167 19.3629 8.88541C19.8425 10.0191 20.0542 11.2482 19.9814 12.4771C19.8308 14.5377 18.8994 16.4631 17.3773 17.8603C15.8552 19.2574 13.8573 20.0209 11.7914 19.9949ZM11.9908 5.46006C11.5337 5.46034 11.0778 5.50623 10.6298 5.59705C9.34889 5.86276 8.17834 6.50971 7.27189 7.4529C6.36543 8.39609 5.76548 9.59141 5.55083 10.8818C5.38832 11.838 5.43917 12.8183 5.69974 13.7525C5.96031 14.6867 6.42415 15.5518 7.05808 16.2859C7.25748 16.5224 7.37669 16.8161 7.39856 17.1247C7.42044 17.4333 7.34385 17.7409 7.17981 18.0032L6.84586 18.5412H11.7914C13.4864 18.5676 15.1276 17.9459 16.3799 16.8033C17.6322 15.6606 18.4012 14.083 18.5298 12.3926C18.5837 11.5014 18.4544 10.6085 18.15 9.7691C17.8456 8.9297 17.3724 8.16155 16.7598 7.51201C16.1471 6.86246 15.4079 6.3453 14.5877 5.99239C13.7675 5.63948 12.8837 5.45832 11.9908 5.46006Z" fill="white"/>
<path d="M11.5651 8.84343L10.8551 10.5003C10.83 10.5587 10.7883 10.6086 10.7352 10.6436C10.6821 10.6786 10.6199 10.6973 10.5563 10.6973H9.14628C9.07893 10.6973 9.01326 10.7182 8.95832 10.7571C8.90338 10.7961 8.8619 10.8511 8.83961 10.9147C8.81732 10.9782 8.81532 11.0471 8.83389 11.1118C8.85245 11.1766 8.89067 11.2339 8.94326 11.276L10.1742 12.2608C10.2248 12.3012 10.2621 12.3559 10.2814 12.4178C10.3007 12.4796 10.3011 12.5459 10.2825 12.6079L9.71827 14.4886C9.69861 14.5541 9.70013 14.6242 9.72262 14.6888C9.74512 14.7534 9.78743 14.8093 9.84354 14.8485C9.89965 14.8876 9.96669 14.9081 10.0351 14.9069C10.1035 14.9057 10.1698 14.883 10.2246 14.8419L11.6689 13.7587C11.7251 13.7165 11.7935 13.6937 11.8639 13.6937C11.9342 13.6937 12.0026 13.7165 12.0588 13.7587L13.5031 14.8419C13.5579 14.883 13.6242 14.9057 13.6926 14.9069C13.761 14.9081 13.828 14.8876 13.8842 14.8485C13.9403 14.8093 13.9826 14.7534 14.0051 14.6888C14.0276 14.6242 14.0291 14.5541 14.0094 14.4886L13.4452 12.6079C13.4266 12.5458 13.427 12.4796 13.4463 12.4178C13.4656 12.3559 13.5029 12.3012 13.5535 12.2608L14.7845 11.276C14.837 11.2339 14.8753 11.1766 14.8938 11.1118C14.9124 11.0471 14.9104 10.9782 14.8881 10.9147C14.8658 10.8511 14.8243 10.7961 14.7694 10.7571C14.7145 10.7182 14.6488 10.6973 14.5814 10.6973H13.1714C13.1078 10.6973 13.0456 10.6786 12.9925 10.6436C12.9394 10.6086 12.8977 10.5587 12.8727 10.5003L12.1625 8.84343C12.1375 8.78498 12.0958 8.73516 12.0427 8.70015C11.9896 8.66514 11.9274 8.64648 11.8638 8.64648C11.8002 8.64648 11.738 8.66514 11.6849 8.70015C11.6318 8.73516 11.5902 8.78498 11.5651 8.84343Z" fill="white"/>
</svg>
