<svg width="40" height="27" viewBox="0 0 40 27" fill="none" xmlns="http://www.w3.org/2000/svg">
<path d="M40.0004 13.3379H26.667V0C31.6009 0 35.9094 2.68204 38.216 6.66895C39.3503 8.63062 40.0004 10.9082 40.0004 13.3379Z" fill="#FFEB34"/>
<path d="M26.6674 0V13.3379C21.7335 13.3379 17.4228 10.656 15.1184 6.66895C13.9818 4.70715 13.334 2.42972 13.334 0H26.6674Z" fill="#3AFFAD"/>
<path d="M13.3334 0V13.3379H0C0 5.97204 5.96999 0 13.3334 0Z" fill="#FF1759"/>
<path d="M40.0004 26.6758H26.667V13.3379C31.6009 13.3379 35.9094 16.0198 38.216 20.0068C39.3503 21.9685 40.0004 24.246 40.0004 26.6758Z" fill="#2BE6FF"/>
<path d="M26.6664 13.3379V26.6758C24.2365 26.6758 21.9612 26.0266 19.9997 24.8907C17.9755 23.7204 16.2875 22.032 15.1174 20.0068C13.9809 18.0452 13.333 15.7676 13.333 13.3379H26.6664Z" fill="#F07DF0"/>
</svg>
