<svg width="120" height="124" viewBox="0 0 120 124" fill="none" xmlns="http://www.w3.org/2000/svg">
<path d="M113.245 35.3816H77.875V0C90.9632 0 102.392 7.11468 108.511 17.6908C111.52 22.8946 113.245 28.9362 113.245 35.3816Z" fill="#FFEB34"/>
<path d="M77.8756 0V35.3816C64.7873 35.3816 53.3523 28.2672 47.2393 17.6908C44.2244 12.4867 42.5059 6.44534 42.5059 0H77.8756Z" fill="#3AFFAD"/>
<path d="M42.5055 0V35.3816H7.13574C7.13574 15.8421 22.9724 0 42.5055 0Z" fill="#FF1759"/>
<path d="M113.245 70.7635H77.875V35.3818C90.9632 35.3818 102.392 42.4962 108.511 53.0726C111.52 58.2764 113.245 64.3181 113.245 70.7635Z" fill="#2BE6FF"/>
<path d="M77.8756 35.3818V70.7635C71.4296 70.7635 65.3939 69.0414 60.1907 66.0283C54.821 62.9236 50.3433 58.4447 47.2393 53.0726C44.2244 47.8689 42.5059 41.8272 42.5059 35.3818H77.8756Z" fill="#F07DF0"/>
<path d="M20.7146 87.0864V92.647H5.80973V102.554H20.2109V108.115H5.80973V122.471H0V87.0894H20.7176L20.7146 87.0864Z" fill="#FBFBFB"/>
<path d="M50.2243 112.157H30.1145C30.5183 114.044 31.4352 115.509 32.8671 116.553C34.2996 117.597 36.077 118.118 38.2005 118.118C41.0608 118.118 43.2313 117.075 44.7179 114.985L49.2134 117.612C46.7575 121.286 43.0648 123.122 38.147 123.122C34.0731 123.122 30.7543 121.875 28.1955 119.381C25.6695 116.854 24.4053 113.669 24.4053 109.828C24.4053 105.986 25.6522 102.937 28.1456 100.375C30.6039 97.8154 33.8049 96.5327 37.7426 96.5327C41.4176 96.5327 44.4503 97.8302 46.8408 100.425C49.2313 103.02 50.4265 106.171 50.4265 109.878C50.4265 110.553 50.3611 111.311 50.2243 112.151V112.157ZM30.0645 107.708H44.92C44.5454 105.721 43.7129 104.187 42.4166 103.108C41.1203 102.029 39.5444 101.489 37.6951 101.489C35.6703 101.489 33.9874 102.047 32.6406 103.158C31.2937 104.27 30.4326 105.788 30.0645 107.708Z" fill="#FBFBFB"/>
<path d="M59.1188 104.17C59.1188 104.945 59.5171 105.576 60.3258 106.065C61.1346 106.555 62.312 107.017 63.864 107.454C65.0414 107.725 66.0702 108.011 66.9502 108.312C67.8244 108.616 68.7461 109.061 69.7273 109.651C70.7025 110.24 71.4518 111.016 71.9751 111.977C72.4984 112.938 72.7422 114.059 72.7124 115.338C72.7124 117.765 71.7669 119.67 69.8819 121.049C67.9909 122.433 65.6539 123.122 62.859 123.122C60.3615 123.122 58.2268 122.6 56.4369 121.557C54.6529 120.513 53.3566 119.062 52.5479 117.21L57.2456 114.48C58.09 116.907 59.9572 118.119 62.859 118.119C65.755 118.119 67.1525 117.175 67.1525 115.288C67.1525 113.908 65.5528 112.829 62.3477 112.054C61.1405 111.75 60.1177 111.446 59.2912 111.142C58.4646 110.839 57.5548 110.403 56.5617 109.828C55.5687 109.256 54.8135 108.498 54.2902 107.554C53.7669 106.611 53.523 105.517 53.5587 104.27C53.5587 101.943 54.4329 100.074 56.1811 98.659C57.971 97.2438 60.1713 96.5361 62.8055 96.5361C64.8928 96.5361 66.754 96.9988 68.3834 97.9246C70.0186 98.8505 71.2733 100.142 72.1475 101.79L67.5508 104.367C66.7064 102.448 65.1247 101.487 62.8055 101.487C61.7233 101.487 60.8432 101.722 60.1534 102.194C59.4636 102.666 59.1188 103.323 59.1188 104.167V104.17Z" fill="#FBFBFB"/>
<path d="M90.5953 97.1965V102.454H84.3278V114.583C84.3278 115.628 84.5656 116.379 85.0354 116.834C85.5111 117.287 86.2068 117.541 87.1345 117.591C88.0562 117.641 89.2157 117.632 90.5953 117.564V122.468C86.4149 122.972 83.4179 122.609 81.5983 121.38C79.7846 120.151 78.8689 117.883 78.8689 114.581V102.451H74.2246V97.1935H78.8689V91.7358L84.3278 90.1172V97.1935H90.5953V97.1965Z" fill="#FBFBFB"/>
<path d="M114.547 100.785V97.1962H120V122.468H114.547V118.83C112.49 121.692 109.546 123.125 105.705 123.125C102.238 123.125 99.2708 121.846 96.8149 119.283C94.353 116.724 93.1221 113.572 93.1221 109.831C93.1221 106.089 94.353 102.94 96.8149 100.378C99.2708 97.8182 102.238 96.5361 105.705 96.5361C109.546 96.5361 112.49 97.9514 114.547 100.782V100.785ZM100.853 115.645C102.369 117.16 104.272 117.918 106.561 117.918C108.851 117.918 110.759 117.16 112.27 115.645C113.786 114.094 114.541 112.157 114.541 109.834C114.541 107.51 113.786 105.588 112.27 104.072C110.759 102.524 108.851 101.746 106.561 101.746C104.272 101.746 102.369 102.521 100.853 104.072C99.3362 105.588 98.581 107.51 98.581 109.834C98.581 112.157 99.3362 114.062 100.853 115.645Z" fill="#FBFBFB"/>
</svg>
