<svg width="113" height="75" viewBox="0 0 113 75" fill="none" xmlns="http://www.w3.org/2000/svg">
<path d="M75.3876 0V37.4412C61.5363 37.4412 49.4405 29.9127 42.9686 18.7206C39.7807 13.2139 37.959 6.8206 37.959 0H75.3876Z" fill="#3AFFAD"/>
<path d="M37.9599 0V37.4412H0.53125C0.53125 16.7642 17.2898 0 37.9599 0Z" fill="#FF1759"/>
<path d="M112.816 37.4412H75.3877V0C89.2391 0 101.335 7.52852 107.807 18.7206C110.995 24.2273 112.816 30.6206 112.816 37.4412Z" fill="#FFEB34"/>
<path d="M112.816 74.8822H75.3877V37.4409C89.2391 37.4409 101.335 44.9694 107.807 56.1615C110.995 61.6682 112.816 68.0616 112.816 74.8822Z" fill="#2BE6FF"/>
<path d="M75.3876 37.4409V74.8822C68.5696 74.8822 62.1787 73.0598 56.6733 69.8713C50.9904 66.5859 46.2527 61.8463 42.9686 56.1615C39.7807 50.6548 37.959 44.2615 37.959 37.4409H75.3876Z" fill="#F07DF0"/>
</svg>
