<svg width="20" height="15" viewBox="0 0 20 15" fill="none" xmlns="http://www.w3.org/2000/svg">
<path d="M3.75 10C3.41848 10 3.10054 10.1317 2.86612 10.3661C2.6317 10.6005 2.5 10.9185 2.5 11.25C2.5 11.5815 2.6317 11.8995 2.86612 12.1339C3.10054 12.3683 3.41848 12.5 3.75 12.5C4.08152 12.5 4.39946 12.3683 4.63388 12.1339C4.8683 11.8995 5 11.5815 5 11.25C5 10.9185 4.8683 10.6005 4.63388 10.3661C4.39946 10.1317 4.08152 10 3.75 10ZM7.28516 10H18.75C19.4414 10 20 10.5586 20 11.25C20 11.9414 19.4414 12.5 18.75 12.5H7.28516C6.76953 13.957 5.38281 15 3.75 15C1.67969 15 0 13.3203 0 11.25C0 9.17969 1.67969 7.5 3.75 7.5C5.38281 7.5 6.77344 8.54297 7.28516 10ZM15 3.75C15 4.08152 15.1317 4.39946 15.3661 4.63388C15.6005 4.8683 15.9185 5 16.25 5C16.5815 5 16.8995 4.8683 17.1339 4.63388C17.3683 4.39946 17.5 4.08152 17.5 3.75C17.5 3.41848 17.3683 3.10054 17.1339 2.86612C16.8995 2.6317 16.5815 2.5 16.25 2.5C15.9185 2.5 15.6005 2.6317 15.3661 2.86612C15.1317 3.10054 15 3.41848 15 3.75ZM12.7148 2.5C13.2305 1.04297 14.6172 0 16.25 0C18.3203 0 20 1.67969 20 3.75C20 5.82031 18.3203 7.5 16.25 7.5C14.6172 7.5 13.2266 6.45703 12.7148 5H1.25C0.558594 5 0 4.44141 0 3.75C0 3.05859 0.558594 2.5 1.25 2.5H12.7148Z" fill="white"/>
</svg>
