<svg width="16" height="17" viewBox="0 0 16 17" fill="none" xmlns="http://www.w3.org/2000/svg">
<path d="M3.83301 9.83317C3.61199 9.83317 3.40003 9.92097 3.24375 10.0772C3.08747 10.2335 2.99967 10.4455 2.99967 10.6665C2.99967 10.8875 3.08747 11.0995 3.24375 11.2558C3.40003 11.412 3.61199 11.4998 3.83301 11.4998C4.05402 11.4998 4.26598 11.412 4.42226 11.2558C4.57854 11.0995 4.66634 10.8875 4.66634 10.6665C4.66634 10.4455 4.57854 10.2335 4.42226 10.0772C4.26598 9.92097 4.05402 9.83317 3.83301 9.83317ZM6.18978 9.83317H13.833C14.2939 9.83317 14.6663 10.2056 14.6663 10.6665C14.6663 11.1274 14.2939 11.4998 13.833 11.4998H6.18978C5.84603 12.4712 4.92155 13.1665 3.83301 13.1665C2.4528 13.1665 1.33301 12.0467 1.33301 10.6665C1.33301 9.2863 2.4528 8.1665 3.83301 8.1665C4.92155 8.1665 5.84863 8.86182 6.18978 9.83317ZM11.333 5.6665C11.333 5.88752 11.4208 6.09948 11.5771 6.25576C11.7334 6.41204 11.9453 6.49984 12.1663 6.49984C12.3874 6.49984 12.5993 6.41204 12.7556 6.25576C12.9119 6.09948 12.9997 5.88752 12.9997 5.6665C12.9997 5.44549 12.9119 5.23353 12.7556 5.07725C12.5993 4.92097 12.3874 4.83317 12.1663 4.83317C11.9453 4.83317 11.7334 4.92097 11.5771 5.07725C11.4208 5.23353 11.333 5.44549 11.333 5.6665ZM9.80957 4.83317C10.1533 3.86182 11.0778 3.1665 12.1663 3.1665C13.5465 3.1665 14.6663 4.2863 14.6663 5.6665C14.6663 7.04671 13.5465 8.1665 12.1663 8.1665C11.0778 8.1665 10.1507 7.47119 9.80957 6.49984H2.16634C1.7054 6.49984 1.33301 6.12744 1.33301 5.6665C1.33301 5.20557 1.7054 4.83317 2.16634 4.83317H9.80957Z" fill="white"/>
</svg>
