<svg width="24" height="24" viewBox="0 0 24 24" fill="none" xmlns="http://www.w3.org/2000/svg">
<path d="M6.34721 7.15636C6.34305 7.07323 6.27862 7.00672 6.19549 7.00049C6.11236 6.99425 6.03754 7.04829 6.01883 7.12727L5.3891 9.80416C5.36208 9.91639 5.34961 10.0328 5.34961 10.1492C5.34961 10.9784 6.01883 11.6497 6.84601 11.6559V16.4777C6.84601 16.7541 7.06839 16.9765 7.34481 16.9765C7.62122 16.9765 7.8436 16.7541 7.8436 16.4777V11.6559C8.67078 11.6497 9.34 10.9784 9.34 10.1492C9.34 10.0328 9.32753 9.91639 9.30051 9.80416L8.67078 7.12935C8.65208 7.04829 8.57726 6.99425 8.49412 7.00257C8.41099 7.01088 8.34656 7.07531 8.3424 7.15844L8.18653 9.82702H7.8249L7.50899 7.14805C7.4986 7.06492 7.42794 7.00049 7.34481 7.00049C7.26167 7.00049 7.18893 7.06284 7.18062 7.14805L6.86471 9.82702H6.50308L6.34721 7.15636ZM15.9907 9.99328V12.6535C15.9907 13.0214 16.2879 13.3186 16.6557 13.3186H17.6533V16.4777C17.6533 16.7541 17.8757 16.9765 18.1521 16.9765C18.4285 16.9765 18.6509 16.7541 18.6509 16.4777V13.3186V11.1571V7.43486C18.6509 7.19585 18.4576 7.00049 18.2165 7.00049C18.1729 7.00049 18.1313 7.00672 18.0898 7.02127C17.7406 7.15013 15.9907 7.89833 15.9907 9.99328Z" fill="#FFD43C"/>
<path opacity="0.4" d="M8.50879 14.6455C9.35051 15.8531 10.7492 16.6449 12.3329 16.6449C14.1909 16.6449 15.7954 15.5559 16.5436 13.9805C16.0469 13.9389 15.6291 13.623 15.4379 13.1866C14.9558 14.4315 13.7483 15.3148 12.3329 15.3148C10.4957 15.3148 9.00759 13.8267 9.00759 11.9894C9.00759 11.9853 9.00759 11.9811 9.00759 11.977C8.85379 12.0767 8.68545 12.1557 8.50879 12.2139V14.6455ZM9.95115 9.67003C10.5559 9.04861 11.3997 8.66412 12.3329 8.66412C13.6485 8.66412 14.7874 9.42894 15.3257 10.5388V9.99425C15.3257 9.47466 15.4151 9.02367 15.5606 8.63294C14.723 7.82863 13.5861 7.33398 12.3329 7.33398C11.3166 7.33398 10.3751 7.66028 9.60823 8.21312L9.94699 9.65132C9.94907 9.65756 9.94907 9.66171 9.95115 9.66795V9.67003ZM14.9932 11.9894C14.9932 11.2839 14.7129 10.6072 14.214 10.1084C13.7151 9.60946 13.0385 9.32918 12.3329 9.32918C11.6274 9.32918 10.9507 9.60946 10.4518 10.1084C9.95293 10.6072 9.67265 11.2839 9.67265 11.9894C9.67265 12.695 9.95293 13.3716 10.4518 13.8705C10.9507 14.3694 11.6274 14.6497 12.3329 14.6497C13.0385 14.6497 13.7151 14.3694 14.214 13.8705C14.7129 13.3716 14.9932 12.695 14.9932 11.9894Z" fill="#FFD43C"/>
</svg>
