<svg width="24" height="24" viewBox="0 0 24 24" fill="none" xmlns="http://www.w3.org/2000/svg">
<path d="M19.9688 9.15625C19.9688 6.30853 17.6602 4 14.8125 4C11.9648 4 9.65625 6.30853 9.65625 9.15625C9.65625 9.92287 9.82381 10.6503 10.1239 11.3042C10.9514 10.942 11.5312 10.1158 11.5312 9.15625C11.5312 7.34406 13.0003 5.875 14.8125 5.875C16.6247 5.875 18.0938 7.34406 18.0938 9.15625C18.0938 10.9684 16.6247 12.4375 14.8125 12.4375C14.6537 12.4375 14.4977 12.426 14.345 12.4042C13.9703 12.9993 13.4948 13.5269 12.9393 13.9611C13.2387 14.0779 13.5515 14.1678 13.875 14.2272V16.875H12.9082C12.7387 16.875 12.5843 16.9696 12.5114 17.118C12.4386 17.2664 12.4603 17.4422 12.5671 17.5698L14.4714 19.8426C14.5549 19.9422 14.6802 20 14.8125 20C14.9448 20 15.0701 19.9422 15.1536 19.8426L17.0579 17.5699C17.1648 17.4423 17.1865 17.2665 17.1136 17.118C17.0408 16.9696 16.8863 16.875 16.7168 16.875H15.75V14.2273C18.1501 13.7863 19.9688 11.6838 19.9688 9.15625Z" fill="white"/>
<path d="M11.0625 16.7188H10.125V14.2272C12.5251 13.7863 14.3438 11.6838 14.3438 9.15625C14.3438 8.38963 14.1762 7.66222 13.8761 7.00828C13.0486 7.37044 12.4688 8.19669 12.4688 9.15625C12.4688 10.9684 10.9997 12.4375 9.1875 12.4375C7.37531 12.4375 5.90625 10.9684 5.90625 9.15625C5.90625 7.34406 7.37531 5.875 9.1875 5.875C9.34744 5.875 9.50462 5.88669 9.65847 5.90878C10.0354 5.31272 10.5126 4.78616 11.0665 4.35322C10.4843 4.12525 9.85053 4 9.1875 4C6.33978 4 4.03125 6.30853 4.03125 9.15625C4.03125 11.6838 5.84994 13.7863 8.25 14.2272V16.7188H7.3125C7.05363 16.7188 6.84375 16.9286 6.84375 17.1875V18.125C6.84375 18.3839 7.05363 18.5938 7.3125 18.5938H8.25V19.5312C8.25 19.7901 8.45988 20 8.71875 20H9.65625C9.91512 20 10.125 19.7901 10.125 19.5312V18.5938H11.0625C11.3214 18.5938 11.5312 18.3839 11.5312 18.125V17.1875C11.5312 16.9286 11.3214 16.7188 11.0625 16.7188Z" fill="white"/>
</svg>
