<svg width="44" height="44" viewBox="0 0 44 44" fill="none" xmlns="http://www.w3.org/2000/svg">
<path d="M36.6094 16.7871C36.6094 11.5663 32.3771 7.33398 27.1562 7.33398C21.9354 7.33398 17.7031 11.5663 17.7031 16.7871C17.7031 18.1926 18.0103 19.5262 18.5606 20.725C20.0776 20.061 21.1406 18.5463 21.1406 16.7871C21.1406 13.4648 23.8339 10.7715 27.1562 10.7715C30.4786 10.7715 33.1719 13.4648 33.1719 16.7871C33.1719 20.1095 30.4786 22.8027 27.1562 22.8027C26.8652 22.8027 26.5792 22.7817 26.2992 22.7417C25.6122 23.8327 24.7404 24.8 23.7221 25.596C24.2709 25.8101 24.8444 25.9749 25.4376 26.0839V30.9382H23.6651C23.3543 30.9382 23.0712 31.1115 22.9376 31.3837C22.804 31.6558 22.8438 31.9781 23.0397 32.212L26.531 36.3787C26.6839 36.5613 26.9136 36.6673 27.1562 36.6673C27.3989 36.6673 27.6286 36.5613 27.7815 36.3787L31.2728 32.2121C31.4688 31.9782 31.5085 31.6558 31.3749 31.3837C31.2414 31.1116 30.9583 30.9382 30.6474 30.9382H28.875V26.0839C33.2751 25.2756 36.6094 21.4209 36.6094 16.7871Z" fill="url(#paint0_linear_2821_41462)"/>
<path d="M20.2812 30.6517H18.5625V26.0839C22.9626 25.2756 26.2969 21.4209 26.2969 16.7871C26.2969 15.3816 25.9897 14.0481 25.4396 12.8492C23.9225 13.5131 22.8594 15.0279 22.8594 16.7871C22.8594 20.1095 20.1661 22.8027 16.8438 22.8027C13.5214 22.8027 10.8281 20.1095 10.8281 16.7871C10.8281 13.4648 13.5214 10.7715 16.8438 10.7715C17.137 10.7715 17.4251 10.7929 17.7072 10.8334C18.3982 9.74064 19.2731 8.77527 20.2885 7.98155C19.2211 7.56361 18.0593 7.33398 16.8438 7.33398C11.6229 7.33398 7.39062 11.5663 7.39062 16.7871C7.39062 21.4209 10.7249 25.2756 15.125 26.0839V30.6517H13.4062C12.9316 30.6517 12.5469 31.0365 12.5469 31.5111V33.2298C12.5469 33.7044 12.9316 34.0892 13.4062 34.0892H15.125V35.8079C15.125 36.2825 15.5098 36.6673 15.9844 36.6673H17.7031C18.1777 36.6673 18.5625 36.2825 18.5625 35.8079V34.0892H20.2812C20.7559 34.0892 21.1406 33.7044 21.1406 33.2298V31.5111C21.1406 31.0365 20.7559 30.6517 20.2812 30.6517Z" fill="white"/>
<defs>
<linearGradient id="paint0_linear_2821_41462" x1="27.1562" y1="7.33398" x2="27.1563" y2="36.6673" gradientUnits="userSpaceOnUse">
<stop stop-color="#FF1759"/>
<stop offset="1" stop-color="#BF0036"/>
</linearGradient>
</defs>
</svg>
