<svg width="38" height="35" viewBox="0 0 38 35" fill="none" xmlns="http://www.w3.org/2000/svg">
<g clip-path="url(#clip0_4095_41150)">
<path d="M18.5548 17.3432C18.5548 17.5385 18.5453 17.7316 18.5275 17.9223C22.2415 17.8904 25.2532 14.8596 25.2532 11.1383C25.2532 7.39715 22.2095 4.35352 18.4684 4.35352C14.7272 4.35352 11.6836 7.3971 11.6836 11.1383C11.6836 11.1518 11.6839 11.1657 11.6839 11.1793C11.9043 11.1555 12.128 11.1429 12.3546 11.1429C15.7734 11.143 18.5548 13.9243 18.5548 17.3432ZM17.82 5.73368H19.1167V10.4899H21.9577V11.7866H17.82V5.73368Z" fill="#FCD400"/>
<path d="M18.447 0.0800781C12.3396 0.0800781 7.38867 5.03109 7.38867 11.1384C7.38867 11.8904 7.46427 12.6247 7.60735 13.3346C8.33335 12.48 9.28633 11.824 10.3724 11.461C10.3679 11.352 10.3655 11.2442 10.3655 11.1384C10.3655 6.68219 13.9909 3.05684 18.447 3.05684C22.9032 3.05684 26.5286 6.68219 26.5286 11.1384C26.5286 15.5946 22.9032 19.2199 18.447 19.2199C18.3816 19.2199 18.3134 19.2186 18.244 19.2166C17.8969 20.3092 17.2547 21.2715 16.4113 22.0095C17.0712 22.1323 17.7516 22.1967 18.447 22.1967C24.5544 22.1967 29.5054 17.2457 29.5054 11.1384C29.5054 5.031 24.5544 0.0800781 18.447 0.0800781Z" fill="white"/>
<path d="M17.2581 17.3429C17.2581 14.6391 15.0584 12.4395 12.3546 12.4395C9.65084 12.4395 7.45117 14.6392 7.45117 17.3429C7.45117 20.0467 9.65088 22.2463 12.3546 22.2463C15.0584 22.2463 17.2581 20.0467 17.2581 17.3429ZM13.107 15.1571H14.4038V16.467H13.107V15.1571ZM10.3055 15.1571H11.6023V16.467H10.3055V15.1571ZM12.3546 20.1771C11.2247 20.1771 10.3055 19.2578 10.3055 18.1279H11.6022C11.6022 18.5428 11.9398 18.8803 12.3546 18.8803C12.7695 18.8803 13.107 18.5428 13.107 18.1279H14.4038C14.4038 19.2579 13.4845 20.1771 12.3546 20.1771Z" fill="white"/>
<path d="M7.4375 1.0293L8.3543 0.112499L10.0874 1.84561L9.17061 2.76241L7.4375 1.0293Z" fill="white"/>
<path d="M26.8828 1.84766L28.6159 0.114541L29.5327 1.03134L27.7996 2.76445L26.8828 1.84766Z" fill="white"/>
<path d="M26.8809 20.5L27.7977 19.5832L29.5308 21.3163L28.614 22.2331L26.8809 20.5Z" fill="white"/>
</g>
<path d="M0.354091 26.3139H1.30409V28.7753H2.32318V26.3139H3.27318V32.3594H2.32318V29.6389H1.30409V32.3594H0.354091V26.3139ZM4.71478 26.3139H6.0016L6.98614 32.3594H6.03614L5.86342 31.1589V31.1762H4.78387L4.61114 32.3594H3.73023L4.71478 26.3139ZM5.75114 30.3557L5.32796 27.3676H5.31069L4.89614 30.3557H5.75114ZM7.44704 26.3139H8.84613C9.31825 26.3139 9.67235 26.4406 9.90841 26.6939C10.1445 26.9473 10.2625 27.3186 10.2625 27.808V28.4039C10.2625 28.8933 10.1445 29.2647 9.90841 29.518C9.67235 29.7713 9.31825 29.898 8.84613 29.898H8.39704V32.3594H7.44704V26.3139ZM8.84613 29.0344C9.00159 29.0344 9.11674 28.9912 9.19159 28.9048C9.27219 28.8185 9.3125 28.6716 9.3125 28.4644V27.7476C9.3125 27.5403 9.27219 27.3935 9.19159 27.3071C9.11674 27.2207 9.00159 27.1776 8.84613 27.1776H8.39704V29.0344H8.84613ZM10.7785 26.3139H12.1775C12.6497 26.3139 13.0038 26.4406 13.2398 26.6939C13.4759 26.9473 13.5939 27.3186 13.5939 27.808V28.4039C13.5939 28.8933 13.4759 29.2647 13.2398 29.518C13.0038 29.7713 12.6497 29.898 12.1775 29.898H11.7285V32.3594H10.7785V26.3139ZM12.1775 29.0344C12.333 29.0344 12.4481 28.9912 12.523 28.9048C12.6036 28.8185 12.6439 28.6716 12.6439 28.4644V27.7476C12.6439 27.5403 12.6036 27.3935 12.523 27.3071C12.4481 27.2207 12.333 27.1776 12.1775 27.1776H11.7285V29.0344H12.1775ZM14.94 29.7857L13.7913 26.3139H14.8018L15.4495 28.5335H15.4668L16.1145 26.3139H17.0386L15.89 29.7857V32.3594H14.94V29.7857ZM18.8497 26.3139H19.7997V28.7753H20.8188V26.3139H21.7688V32.3594H20.8188V29.6389H19.7997V32.3594H18.8497V26.3139ZM23.8495 32.4457C23.3832 32.4457 23.0262 32.3133 22.7786 32.0485C22.531 31.7836 22.4072 31.4094 22.4072 30.9257V27.7476C22.4072 27.2639 22.531 26.8897 22.7786 26.6248C23.0262 26.36 23.3832 26.2276 23.8495 26.2276C24.3159 26.2276 24.6729 26.36 24.9204 26.6248C25.168 26.8897 25.2918 27.2639 25.2918 27.7476V30.9257C25.2918 31.4094 25.168 31.7836 24.9204 32.0485C24.6729 32.3133 24.3159 32.4457 23.8495 32.4457ZM23.8495 31.5821C24.1777 31.5821 24.3418 31.3835 24.3418 30.9862V27.6871C24.3418 27.2898 24.1777 27.0912 23.8495 27.0912C23.5213 27.0912 23.3572 27.2898 23.3572 27.6871V30.9862C23.3572 31.3835 23.5213 31.5821 23.8495 31.5821ZM27.3161 32.4457C26.8555 32.4457 26.5043 32.3162 26.2624 32.0571C26.0206 31.7923 25.8997 31.4151 25.8997 30.9257V26.3139H26.8497V30.9948C26.8497 31.2021 26.89 31.3518 26.9706 31.4439C27.057 31.536 27.1779 31.5821 27.3333 31.5821C27.4888 31.5821 27.6068 31.536 27.6874 31.4439C27.7738 31.3518 27.817 31.2021 27.817 30.9948V26.3139H28.7324V30.9257C28.7324 31.4151 28.6115 31.7923 28.3697 32.0571C28.1279 32.3162 27.7767 32.4457 27.3161 32.4457ZM29.409 26.3139H30.8168C31.3062 26.3139 31.6631 26.4291 31.8877 26.6594C32.1122 26.8839 32.2245 27.2323 32.2245 27.7044V28.0757C32.2245 28.7033 32.0172 29.1006 31.6027 29.2676V29.2848C31.833 29.3539 31.9942 29.495 32.0863 29.708C32.1842 29.921 32.2331 30.206 32.2331 30.563V31.6253C32.2331 31.798 32.2389 31.9391 32.2504 32.0485C32.2619 32.1521 32.2907 32.2557 32.3368 32.3594H31.3695C31.335 32.2615 31.3119 32.1694 31.3004 32.083C31.2889 31.9966 31.2831 31.8412 31.2831 31.6166V30.5112C31.2831 30.2348 31.2371 30.042 31.145 29.9326C31.0586 29.8232 30.906 29.7685 30.6872 29.7685H30.359V32.3594H29.409V26.3139ZM30.7045 28.9048C30.8945 28.9048 31.0356 28.8559 31.1277 28.758C31.2256 28.6601 31.2745 28.496 31.2745 28.2657V27.7994C31.2745 27.5806 31.2342 27.4223 31.1536 27.3244C31.0787 27.2265 30.9578 27.1776 30.7909 27.1776H30.359V28.9048H30.7045ZM34.1273 32.4457C33.6667 32.4457 33.3183 32.3162 33.0823 32.0571C32.8462 31.7923 32.7282 31.4151 32.7282 30.9257V30.5803H33.6264V30.9948C33.6264 31.3863 33.7905 31.5821 34.1186 31.5821C34.2798 31.5821 34.4008 31.536 34.4814 31.4439C34.5677 31.346 34.6109 31.1906 34.6109 30.9776C34.6109 30.7242 34.5533 30.5026 34.4382 30.3126C34.323 30.1168 34.11 29.8836 33.7991 29.613C33.4076 29.2676 33.1341 28.9566 32.9786 28.6803C32.8232 28.3982 32.7455 28.0815 32.7455 27.7303C32.7455 27.2524 32.8664 26.8839 33.1082 26.6248C33.35 26.36 33.7012 26.2276 34.1618 26.2276C34.6167 26.2276 34.9592 26.36 35.1895 26.6248C35.4256 26.8839 35.5436 27.2582 35.5436 27.7476V27.998H34.6455V27.6871C34.6455 27.4798 34.6051 27.3301 34.5245 27.238C34.4439 27.1401 34.3259 27.0912 34.1705 27.0912C33.8538 27.0912 33.6955 27.2841 33.6955 27.6698C33.6955 27.8886 33.753 28.093 33.8682 28.283C33.9891 28.473 34.205 28.7033 34.5159 28.9739C34.9132 29.3194 35.1867 29.6332 35.3364 29.9153C35.4861 30.1974 35.5609 30.5285 35.5609 30.9085C35.5609 31.4036 35.4371 31.7836 35.1895 32.0485C34.9477 32.3133 34.5936 32.4457 34.1273 32.4457ZM36.1833 28.8357V26.3139H37.1333V28.8357L37.0124 30.7616H36.3042L36.1833 28.8357ZM36.2006 31.4439H37.1161V32.3594H36.2006V31.4439Z" fill="#FCD400"/>
<defs>
<clipPath id="clip0_4095_41150">
<rect width="22.1667" height="22.1667" fill="white" transform="translate(7.38867 0.0820312)"/>
</clipPath>
</defs>
</svg>
