<svg width="20" height="18" viewBox="0 0 20 18" fill="none" xmlns="http://www.w3.org/2000/svg">
<path d="M2.5592 9.90232L2.56022 9.90332L9.61872 16.8385C9.72935 16.9472 9.86623 17 10 17C10.1338 17 10.2707 16.9472 10.3813 16.8385L17.4398 9.90332L17.4408 9.90232C18.4297 8.93345 19 7.56175 19 6.11508V5.87665C19 3.452 17.341 1.44777 15.1632 1.06509L2.5592 9.90232ZM2.5592 9.90232C1.57028 8.93345 1 7.56175 1 6.11508V5.87665C1 3.452 2.659 1.44777 4.83683 1.06509L2.5592 9.90232ZM10 3.66549L9.27507 2.90256L8.80632 2.40924C7.75672 1.30463 6.27847 0.812307 4.83707 1.06505L10 3.66549ZM10 3.66549L10.7249 2.90256M10 3.66549L10.7249 2.90256M10.7249 2.90256L11.1937 2.40924C12.2433 1.30463 13.7215 0.812307 15.1629 1.06505L10.7249 2.90256Z" fill="#FF4F99" stroke="white" stroke-width="2"/>
</svg>
