<svg width="24" height="24" viewBox="0 0 24 24" fill="none" xmlns="http://www.w3.org/2000/svg">
<path d="M4.5592 12.9023L4.56022 12.9033L11.6187 19.8385C11.7293 19.9472 11.8662 20 12 20C12.1338 20 12.2707 19.9472 12.3813 19.8385L19.4398 12.9033L19.4408 12.9023C20.4297 11.9335 21 10.5617 21 9.11508V8.87665C21 6.452 19.341 4.44777 17.1632 4.06509L4.5592 12.9023ZM4.5592 12.9023C3.57028 11.9335 3 10.5617 3 9.11508V8.87665C3 6.452 4.659 4.44777 6.83683 4.06509L4.5592 12.9023ZM12 6.66549L11.2751 5.90256L10.8063 5.40924C9.75672 4.30463 8.27847 3.81231 6.83707 4.06505L12 6.66549ZM12 6.66549L12.7249 5.90256M12 6.66549L12.7249 5.90256M12.7249 5.90256L13.1937 5.40924C14.2433 4.30463 15.7215 3.81231 17.1629 4.06505L12.7249 5.90256Z" stroke="white" stroke-width="2"/>
</svg>
