<svg width="20" height="18" viewBox="0 0 20 18" fill="none" xmlns="http://www.w3.org/2000/svg">
<mask id="path-1-inside-1_3918_127" fill="white">
<path d="M1.85938 10.6166L8.91797 17.5519C9.21094 17.8397 9.59766 18 10 18C10.4023 18 10.7891 17.8397 11.082 17.5519L18.1406 10.6166C19.3281 9.45322 20 7.82115 20 6.11508V5.87665C20 3.00305 18.0273 0.552893 15.3359 0.0801278C13.5547 -0.232309 11.7422 0.380231 10.4688 1.72042L10 2.21374L9.53125 1.72042C8.25781 0.380231 6.44531 -0.232309 4.66406 0.0801278C1.97266 0.552893 0 3.00305 0 5.87665V6.11508C0 7.82115 0.671875 9.45322 1.85938 10.6166Z"/>
</mask>
<path d="M1.85938 10.6166L3.26107 9.19001L3.25903 9.18801L1.85938 10.6166ZM8.91797 17.5519L7.51627 18.9785L7.51647 18.9787L8.91797 17.5519ZM11.082 17.5519L12.4835 18.9787L12.4837 18.9785L11.082 17.5519ZM18.1406 10.6166L16.741 9.18801L16.7389 9.19001L18.1406 10.6166ZM15.3359 0.0801278L15.682 -1.88971L15.6815 -1.8898L15.3359 0.0801278ZM10 2.21374L8.55014 3.59139L10 5.11724L11.4499 3.59139L10 2.21374ZM4.66406 0.0801278L4.31853 -1.8898L4.31805 -1.88971L4.66406 0.0801278ZM0.457679 12.0433L7.51627 18.9785L10.3197 16.1253L3.26107 9.19001L0.457679 12.0433ZM7.51647 18.9787C8.17412 19.6247 9.06051 20 10 20V16C10.1348 16 10.2478 16.0546 10.3195 16.1251L7.51647 18.9787ZM10 20C10.9395 20 11.8259 19.6247 12.4835 18.9787L9.68053 16.1251C9.75224 16.0546 9.8652 16 10 16V20ZM12.4837 18.9785L19.5423 12.0433L16.7389 9.19001L9.68034 16.1253L12.4837 18.9785ZM19.5403 12.0453C21.1249 10.4928 22 8.33995 22 6.11508H18C18 7.30235 17.5313 8.41369 16.741 9.18801L19.5403 12.0453ZM22 6.11508V5.87665H18V6.11508H22ZM22 5.87665C22 2.10533 19.4003 -1.23656 15.682 -1.88971L14.9899 2.04997C16.6544 2.34235 18 3.90077 18 5.87665H22ZM15.6815 -1.8898C13.2207 -2.32143 10.7399 -1.46844 9.01889 0.342772L11.9186 3.09807C12.7445 2.2289 13.8887 1.85681 14.9904 2.05005L15.6815 -1.8898ZM9.01889 0.342772L8.55014 0.836093L11.4499 3.59139L11.9186 3.09807L9.01889 0.342772ZM11.4499 0.836093L10.9811 0.342772L8.08139 3.09807L8.55014 3.59139L11.4499 0.836093ZM10.9811 0.342772C9.26011 -1.46844 6.77933 -2.32143 4.31853 -1.8898L5.00959 2.05005C6.11129 1.85681 7.25552 2.2289 8.08139 3.09807L10.9811 0.342772ZM4.31805 -1.88971C0.599724 -1.23656 -2 2.10533 -2 5.87665H2C2 3.90077 3.34559 2.34235 5.01008 2.04997L4.31805 -1.88971ZM-2 5.87665V6.11508H2V5.87665H-2ZM-2 6.11508C-2 8.33995 -1.12493 10.4928 0.459724 12.0453L3.25903 9.18801C2.46868 8.41369 2 7.30235 2 6.11508H-2Z" fill="white" mask="url(#path-1-inside-1_3918_127)"/>
</svg>
