<svg width="24" height="24" viewBox="0 0 24 24" fill="none" xmlns="http://www.w3.org/2000/svg">
<path fill-rule="evenodd" clip-rule="evenodd" d="M13.6144 18.9376C13.6144 18.3508 13.1661 17.8751 12.6131 17.8751H11.3869C11.1214 17.8751 10.8667 17.9871 10.6789 18.1863C10.4911 18.3855 10.3856 18.6558 10.3856 18.9376C10.3856 19.5243 10.8339 20 11.3869 20H12.6131C13.1661 20 13.6144 19.5243 13.6144 18.9376ZM6.10503 16.198C6.27228 16.2115 6.47463 16.2193 6.67788 16.2067C6.78616 16.7893 7.05516 17.3297 7.45669 17.7558C7.98975 18.3214 8.71272 18.6391 9.46656 18.6391H9.84863C9.83178 18.737 9.82312 18.8368 9.82312 18.9376C9.82312 19.0395 9.83178 19.1392 9.84837 19.236H9.46656C8.56353 19.236 7.69747 18.8554 7.05894 18.1778C6.54953 17.6373 6.21819 16.9432 6.10503 16.198ZM5.81891 15.5629C5.37481 15.4835 4.96156 15.2594 4.63897 14.9171C4.22984 14.483 4 13.8942 4 13.2803V11.8697C4 11.2558 4.22984 10.667 4.63897 10.2329C5.04809 9.79879 5.603 9.55488 6.18159 9.55488H6.32681C6.55894 6.44615 9.01025 4 12 4C14.9897 4 17.4411 6.44615 17.6732 9.55488H17.8184C18.397 9.55488 18.9519 9.79879 19.361 10.2329C19.7702 10.667 20 11.2558 20 11.8697V13.2803C20 13.8942 19.7702 14.483 19.361 14.9171C18.9519 15.3513 18.397 15.5951 17.8184 15.5951H17.1746C16.9076 15.5951 16.6912 15.3654 16.6912 15.0822V10.0386C16.6912 7.28958 14.5909 5.06105 12 5.06105C9.40913 5.06105 7.30881 7.28958 7.30881 10.0386V15.0822C7.30881 15.2822 7.20091 15.4555 7.04347 15.5401C6.61009 15.6996 5.938 15.5842 5.81891 15.5629Z" fill="white"/>
</svg>
