<svg width="10" height="12" viewBox="0 0 10 12" fill="none" xmlns="http://www.w3.org/2000/svg">
<path d="M5.18261 0.666504C3.30835 0.666504 1.74512 2.17629 1.74512 4.104C1.74512 4.83738 1.96549 5.49133 2.38843 6.10413L4.91955 10.0537C5.04234 10.2457 5.32314 10.2453 5.44568 10.0537L7.98778 6.09069C8.40161 5.50567 8.62011 4.81873 8.62011 4.104C8.62011 2.20857 7.07805 0.666504 5.18261 0.666504ZM5.18261 5.6665C4.32109 5.6665 3.62012 4.96552 3.62012 4.104C3.62012 3.24248 4.32109 2.5415 5.18261 2.5415C6.04414 2.5415 6.74511 3.24248 6.74511 4.104C6.74511 4.96552 6.04414 5.6665 5.18261 5.6665Z" fill="white"/>
<path d="M7.62561 7.84766L6.05205 10.3078C5.64474 10.9428 4.71822 10.9408 4.31286 10.3084L2.73674 7.8483C1.34999 8.16893 0.495117 8.75628 0.495117 9.45818C0.495117 10.6761 2.91028 11.3332 5.18261 11.3332C7.45495 11.3332 9.87011 10.6761 9.87011 9.45818C9.87011 8.75578 9.01405 8.16811 7.62561 7.84766Z" fill="white"/>
</svg>
