<svg width="24" height="24" viewBox="0 0 24 24" fill="none" xmlns="http://www.w3.org/2000/svg">
<path d="M3.64097 15.6801C3.82562 15.6801 3.97531 15.5304 3.97531 15.3458V14.6771C3.97531 14.4925 3.82562 14.3428 3.64097 14.3428C3.45633 14.3428 3.30664 14.4925 3.30664 14.6771V15.3458C3.30664 15.5304 3.45633 15.6801 3.64097 15.6801Z" fill="white"/>
<path d="M4.97887 15.6801C5.16351 15.6801 5.3132 15.5304 5.3132 15.3458V14.6771C5.3132 14.4925 5.16351 14.3428 4.97887 14.3428C4.79422 14.3428 4.64453 14.4925 4.64453 14.6771V15.3458C4.64453 15.5304 4.79422 15.6801 4.97887 15.6801Z" fill="white"/>
<path d="M7.98765 17.686C7.80301 17.686 7.65332 17.8357 7.65332 18.0204V20.3607C7.65332 20.5454 7.80301 20.695 7.98765 20.695C8.1723 20.695 8.32199 20.5454 8.32199 20.3607V18.0204C8.32199 17.8357 8.1723 17.686 7.98765 17.686Z" fill="white"/>
<path d="M16.0121 17.686C15.8274 17.686 15.6777 17.8357 15.6777 18.0204V20.3607C15.6777 20.5454 15.8274 20.695 16.0121 20.695C16.1967 20.695 16.3464 20.5454 16.3464 20.3607V18.0204C16.3464 17.8357 16.1967 17.686 16.0121 17.686Z" fill="white"/>
<path d="M7.98765 14.0088C7.80301 14.0088 7.65332 14.1585 7.65332 14.3431V15.3461C7.65332 15.5308 7.80301 15.6805 7.98765 15.6805C8.1723 15.6805 8.32199 15.5308 8.32199 15.3461V14.3431C8.32199 14.1585 8.1723 14.0088 7.98765 14.0088Z" fill="white"/>
<path d="M16.0121 14.0088C15.8274 14.0088 15.6777 14.1585 15.6777 14.3431V15.3461C15.6777 15.5308 15.8274 15.6805 16.0121 15.6805C16.1967 15.6805 16.3464 15.5308 16.3464 15.3461V14.3431C16.3464 14.1585 16.1967 14.0088 16.0121 14.0088Z" fill="white"/>
<path d="M19.0209 15.6801C19.2055 15.6801 19.3552 15.5304 19.3552 15.3458V14.6771C19.3552 14.4925 19.2055 14.3428 19.0209 14.3428C18.8362 14.3428 18.6865 14.4925 18.6865 14.6771V15.3458C18.6865 15.5304 18.8362 15.6801 19.0209 15.6801Z" fill="white"/>
<path d="M20.3578 15.6801C20.5424 15.6801 20.6921 15.5304 20.6921 15.3458V14.6771C20.6921 14.4925 20.5424 14.3428 20.3578 14.3428C20.1731 14.3428 20.0234 14.4925 20.0234 14.6771V15.3458C20.0234 15.5304 20.1731 15.6801 20.3578 15.6801Z" fill="white"/>
<path d="M21.1438 3.64421C20.7752 3.28453 20.4839 2.85334 20.2879 2.37708C20.1748 2.15013 19.943 2.00669 19.6894 2.00669C19.4359 2.00669 19.2041 2.15013 19.091 2.37708C18.9879 2.60766 18.8695 2.83105 18.7366 3.04575C18.2986 3.72779 17.3491 4.19252 17.3491 5.47302C17.3481 5.92158 17.5124 6.3548 17.8105 6.68999C17.5366 6.77927 17.3507 7.03387 17.3491 7.32188V7.99055C17.3491 8.35985 17.6485 8.65922 18.0178 8.65922V9.99656H5.98174V8.65922C6.35103 8.65922 6.65041 8.35985 6.65041 7.99055V7.32188C6.65164 7.0314 6.4652 6.77335 6.18903 6.68331C6.48559 6.34983 6.64972 5.91928 6.65041 5.47302C6.65041 4.57366 6.179 4.0755 5.76442 3.64421C5.39505 3.28257 5.10376 2.84904 4.90853 2.3704C4.79541 2.14344 4.56365 2 4.31007 2C4.05649 2 3.82473 2.14344 3.71161 2.3704C3.60858 2.60097 3.49018 2.82436 3.35722 3.03907C2.91924 3.72779 1.96973 4.19252 1.96973 5.47302C1.96878 5.92158 2.13302 6.3548 2.43111 6.68999C2.15728 6.77927 1.97138 7.03387 1.96973 7.32188V7.99055C1.96973 8.35985 2.2691 8.65922 2.6384 8.65922V11.3339H2.30406C2.11942 11.3339 1.96973 11.4836 1.96973 11.6682V21.6982C1.96973 21.8829 2.11942 22.0326 2.30406 22.0326H21.6954C21.8801 22.0326 22.0298 21.8829 22.0298 21.6982V11.6682C22.0298 11.4836 21.8801 11.3339 21.6954 11.3339H21.3611V8.65922C21.7304 8.65922 22.0298 8.35985 22.0298 7.99055V7.32188C22.031 7.0314 21.8446 6.77335 21.5684 6.68331C21.8649 6.34983 22.0291 5.91928 22.0298 5.47302C22.0298 4.57366 21.5584 4.0755 21.1438 3.64421ZM19.6894 2.64121C19.9129 3.18553 20.2425 3.67992 20.659 4.09556C21.0502 4.51014 21.3611 4.83778 21.3611 5.47302C21.3611 6.12482 20.8327 6.65322 20.1809 6.65322H19.198C18.5462 6.65322 18.0178 6.12482 18.0178 5.47302C18.0178 4.31288 19.111 4.14905 19.6894 2.64121ZM21.3611 12.0026V12.6712H18.0178V12.0026H21.3611ZM21.3611 17.6862H18.0178V17.0176H21.3611V17.6862ZM8.99074 12.0026V12.6712H6.65041V12.0026H8.99074ZM14.3401 12.0026V12.6712H9.65941V12.0026H14.3401ZM17.3491 12.0026V12.6712H15.0088V12.0026H17.3491ZM21.3611 16.3489H18.0178V13.3399H21.3611V16.3489ZM5.98174 16.3489H2.6384V13.3399H5.98174V16.3489ZM2.6384 17.0176H5.98174V17.6862H2.6384V17.0176ZM6.65041 13.3399H8.99074V16.3489H6.65041V13.3399ZM9.65941 13.3399H14.3401V14.3429H9.65941V13.3399ZM15.0088 13.3399H17.3491V16.3489H15.0088V13.3399ZM18.0178 10.6652V11.3339H5.98174V10.6652H18.0178ZM2.6384 7.99055V7.32188H5.98174V7.99055H2.6384ZM4.31007 2.64121C4.53354 3.18553 4.86313 3.67992 5.27964 4.09556C5.67081 4.51014 5.98174 4.83778 5.98174 5.47302C5.98174 6.12482 5.45335 6.65322 4.80154 6.65322H3.8186C3.16679 6.65322 2.6384 6.12482 2.6384 5.47302C2.6384 4.31288 3.73167 4.14905 4.31007 2.64121ZM3.30707 8.65922H5.31307V11.3339H3.30707V8.65922ZM2.6384 12.0026H5.98174V12.6712H2.6384V12.0026ZM2.6384 18.3549H5.98174V21.3639H2.6384V18.3549ZM6.65041 17.0176H8.99074V21.3639H6.65041V17.0176ZM9.65941 15.0116H14.3401V21.3639H13.6714V18.2178C13.6714 17.3519 13.3605 16.7869 12.4444 15.9845C12.1909 15.7588 11.8086 15.7588 11.5551 15.9845C10.639 16.7869 10.3281 17.3519 10.3281 18.2178V21.3639H9.65941V15.0116ZM10.9967 21.3639V18.2178C10.9967 17.6361 11.1472 17.2148 11.9998 16.486C12.849 17.2315 13.0028 17.6361 13.0028 18.2178V21.3639H10.9967ZM15.0088 17.0176H17.3491V21.3639H15.0088V17.0176ZM18.0178 21.3639V18.3549H21.3611V21.3639H18.0178ZM20.6924 11.3339H18.6864V8.65922H20.6924V11.3339ZM18.0178 7.99055V7.32188H21.3611V7.99055H18.0178Z" fill="white"/>
</svg>
