<svg width="20" height="16" viewBox="0 0 20 16" fill="none" xmlns="http://www.w3.org/2000/svg">
<path d="M1.10096 10.5932H18.8981C19.3835 10.5932 19.7071 10.2696 19.7071 9.78423C19.7071 9.29886 19.3835 8.97527 18.8981 8.97527H17.5229C17.442 7.03376 16.9566 5.17314 16.2286 3.55522C15.6623 2.42267 15.0151 1.45191 14.1253 0.642952C13.3972 -0.00421891 12.3455 -0.004219 11.6175 0.562055C10.7276 1.37102 9.27148 1.37102 8.38162 0.562055C7.65356 -0.0851153 6.52101 -0.00421891 5.87384 0.642952C3.93233 2.50357 2.63798 5.57763 2.47619 8.97527H1.10096C0.615577 8.97527 0.291992 9.29886 0.291992 9.78423C0.291992 10.2696 0.615577 10.5932 1.10096 10.5932Z" fill="white"/>
<path d="M17.361 12.6154V12.2109H10.7275V12.6154C10.7275 14.476 12.1837 15.9322 14.0443 15.9322C15.9049 15.9322 17.361 14.3951 17.361 12.6154Z" fill="white"/>
<path d="M5.95444 15.9322C7.81506 15.9322 9.27119 14.476 9.27119 12.6154V12.2109H2.6377V12.6154C2.6377 14.3951 4.09383 15.9322 5.95444 15.9322Z" fill="white"/>
</svg>
