<svg width="16" height="16" viewBox="0 0 16 16" fill="none" xmlns="http://www.w3.org/2000/svg">
<path d="M7.99967 14.6673C4.31777 14.6673 1.33301 11.6825 1.33301 8.00065C1.33301 4.31875 4.31777 1.33398 7.99967 1.33398C11.6815 1.33398 14.6663 4.31875 14.6663 8.00065C14.6663 11.6825 11.6815 14.6673 7.99967 14.6673ZM7.99967 13.334C10.9452 13.334 13.333 10.9462 13.333 8.00065C13.333 5.05513 10.9452 2.66732 7.99967 2.66732C5.05415 2.66732 2.66634 5.05513 2.66634 8.00065C2.66634 10.9462 5.05415 13.334 7.99967 13.334ZM7.33301 4.66732H8.66634V6.00065H7.33301V4.66732ZM7.33301 7.33398H8.66634V11.334H7.33301V7.33398Z" fill="#757575"/>
</svg>
