<svg width="20" height="20" viewBox="0 0 20 20" fill="none" xmlns="http://www.w3.org/2000/svg">
<g clip-path="url(#clip0_4456_36714)">
<path d="M19.9655 0.280909C19.8952 0.110923 19.7294 4.26137e-05 19.5455 0C1.90909 0 0 7.31093 0 10.4545C0 14.5327 3.10547 17.2727 7.72726 17.2727C13.5645 17.2727 14.7873 11.7182 15.4436 8.73363C16.0817 5.69561 17.6234 2.92151 19.8664 0.775441C19.9962 0.645725 20.0353 0.45064 19.9655 0.280909Z" fill="#4CAF50"/>
<path d="M0.45456 20.0016C0.203523 20.0016 0 19.798 0 19.547C0 16.8443 4.68635 8.17242 12.0745 4.59245C12.3005 4.48302 12.5724 4.57741 12.6818 4.80334C12.7913 5.02928 12.6969 5.30116 12.4709 5.41063C5.01 9.0261 0.909077 17.4225 0.909077 19.547C0.909077 19.7981 0.705597 20.0016 0.45456 20.0016Z" fill="#388E3C"/>
</g>
<defs>
<clipPath id="clip0_4456_36714">
<rect width="20" height="20" fill="white"/>
</clipPath>
</defs>
</svg>
