<svg width="24" height="24" viewBox="0 0 24 24" fill="none" xmlns="http://www.w3.org/2000/svg">
<path d="M19.5849 18.6625L11.0223 19.7024L6.92355 9.48665L6.14648 7.42396L7.33238 6.60742L8.76973 8.12698L19.659 18.438C19.7393 18.514 19.6947 18.6492 19.5849 18.6625Z" fill="url(#paint0_linear_4028_16386)"/>
<path d="M12.9028 19.9985C12.9605 20.0077 13.0169 19.9754 13.0383 19.921L17.1437 9.48665L18.0049 7.24687L16.9884 6.60742L15.2975 8.12698L4.39068 18.4547C4.31548 18.5259 4.35473 18.6524 4.45705 18.6685L12.9028 19.9985Z" fill="url(#paint1_linear_4028_16386)"/>
<path d="M16.131 6.63672L15.0936 6.82241L15.0757 6.84886L14.5876 7.36185C14.5003 7.45361 14.5165 7.60209 14.6217 7.67282L17.7662 9.78722C17.8714 9.85796 18.0147 9.81686 18.067 9.70151L18.3579 9.05598L18.3757 9.02953V8.32225L16.131 6.63672Z" fill="#AA9EA9"/>
<path d="M18.5136 6.05585C19.2219 6.53219 19.4099 7.49253 18.9335 8.20083L18.3759 9.03022L15.0938 6.8231L15.6513 5.99372C16.1277 5.28541 17.088 5.09742 17.7963 5.57377L18.5136 6.05585Z" fill="#B5ADB6"/>
<path d="M9.47954 7.3618L8.99141 6.84881L8.97357 6.82237L8.13176 6.60742L5.69141 8.17802V9.02948L5.70925 9.05593L6.00015 9.70147C6.05241 9.81681 6.19579 9.85791 6.30094 9.78718L9.44545 7.67278C9.5506 7.60204 9.56685 7.45356 9.47954 7.3618Z" fill="#AA9EA9"/>
<path d="M8.4155 5.99372L8.97309 6.8231L5.69093 9.03022L5.13334 8.20083C4.65699 7.49253 4.84498 6.53219 5.55329 6.05585L6.27051 5.57377C6.97882 5.09742 7.93915 5.28541 8.4155 5.99372Z" fill="#B5ADB6"/>
<path d="M8.13163 4.23828V4.89178C8.13163 5.1231 7.94396 5.31077 7.71264 5.31077H5.06645C4.83513 5.31077 4.64746 5.1231 4.64746 4.89178V4.23828H8.13163Z" fill="#BAAFB9"/>
<path d="M19.4207 4.23828V4.89178C19.4207 5.1231 19.233 5.31077 19.0017 5.31077H16.3555C16.1242 5.31077 15.9365 5.1231 15.9365 4.89178V4.23828H19.4207Z" fill="#BAAFB9"/>
<path d="M8.52668 4.47794H4.25557C4.1236 4.47794 4.0166 4.37094 4.0166 4.23897C4.0166 4.10699 4.1236 4 4.25557 4H8.52668C8.65866 4 8.76565 4.10699 8.76565 4.23897C8.76565 4.37094 8.65866 4.47794 8.52668 4.47794Z" fill="#AA9EA9"/>
<path d="M18.4646 13.2261C18.2968 13.121 18.1554 12.9855 18.0421 12.8178C17.9765 12.7208 17.8325 12.7297 17.7771 12.8328C17.6857 13.0031 17.5427 13.1383 17.3475 13.2387C17.2422 13.2929 17.2345 13.4404 17.3336 13.5053C17.4997 13.6143 17.6388 13.7559 17.7489 13.9327C17.8099 14.0306 17.9508 14.0291 18.0123 13.9316C18.1243 13.7538 18.2756 13.6063 18.4654 13.4887C18.5628 13.4282 18.5617 13.2869 18.4646 13.2261Z" fill="#FEE45A"/>
<path d="M10.5426 17.0487C10.3562 16.9319 10.199 16.7813 10.0731 16.5949C10.0003 16.4871 9.84014 16.4969 9.77862 16.6116C9.6771 16.8008 9.51814 16.9511 9.30116 17.0627C9.18409 17.1229 9.17562 17.2868 9.28567 17.359C9.47028 17.4801 9.62491 17.6375 9.74726 17.834C9.815 17.9427 9.9717 17.9411 10.04 17.8327C10.1644 17.635 10.3326 17.4712 10.5436 17.3404C10.6519 17.2733 10.6506 17.1163 10.5426 17.0487Z" fill="#FEDF30"/>
<path d="M6.65216 13.5617C6.50167 13.4675 6.37489 13.346 6.27325 13.1956C6.21447 13.1086 6.08529 13.1166 6.03565 13.2091C5.95373 13.3617 5.82546 13.483 5.65037 13.573C5.5559 13.6216 5.54905 13.7539 5.63788 13.8121C5.78687 13.9098 5.91164 14.0368 6.01035 14.1954C6.065 14.2831 6.19146 14.2818 6.24655 14.1943C6.34698 14.0349 6.48268 13.9027 6.65293 13.7971C6.74032 13.743 6.73931 13.6163 6.65216 13.5617Z" fill="#FEE45A"/>
<path d="M19.8118 4.47794H15.5407C15.4087 4.47794 15.3018 4.37094 15.3018 4.23897C15.3018 4.10699 15.4087 4 15.5407 4H19.8118C19.9438 4 20.0508 4.10699 20.0508 4.23897C20.0508 4.37094 19.9438 4.47794 19.8118 4.47794Z" fill="#AA9EA9"/>
<defs>
<linearGradient id="paint0_linear_4028_16386" x1="8" y1="8.66667" x2="16" y2="19.3333" gradientUnits="userSpaceOnUse">
<stop stop-color="#FEF6AD"/>
<stop offset="0.782814" stop-color="#FEF6AD" stop-opacity="0"/>
</linearGradient>
<linearGradient id="paint1_linear_4028_16386" x1="16" y1="8.66675" x2="7.33333" y2="19.3334" gradientUnits="userSpaceOnUse">
<stop stop-color="#FEE97D"/>
<stop offset="0.808506" stop-color="#FEE97D" stop-opacity="0"/>
</linearGradient>
</defs>
</svg>
