<svg width="24" height="24" viewBox="0 0 24 24" fill="none" xmlns="http://www.w3.org/2000/svg">
<path d="M12.2734 4C9.46203 4 7.11719 6.26469 7.11719 9.15625C7.11719 10.2563 7.44775 11.2372 8.08216 12.1564L11.8788 18.0808C12.063 18.3688 12.4842 18.3682 12.668 18.0808L16.4812 12.1363C17.1019 11.2587 17.4297 10.2283 17.4297 9.15625C17.4297 6.31309 15.1166 4 12.2734 4ZM12.2734 11.5C10.9812 11.5 9.92969 10.4485 9.92969 9.15625C9.92969 7.86397 10.9812 6.8125 12.2734 6.8125C13.5657 6.8125 14.6172 7.86397 14.6172 9.15625C14.6172 10.4485 13.5657 11.5 12.2734 11.5Z" fill="white"/>
<path d="M15.9379 14.7717L13.5776 18.4619C12.9666 19.4145 11.5768 19.4114 10.9688 18.4629L8.60462 14.7727C6.5245 15.2536 5.24219 16.1347 5.24219 17.1875C5.24219 19.0144 8.86494 20 12.2734 20C15.6819 20 19.3047 19.0144 19.3047 17.1875C19.3047 16.1339 18.0206 15.2524 15.9379 14.7717Z" fill="white"/>
</svg>
