<svg width="24" height="24" viewBox="0 0 24 24" fill="none" xmlns="http://www.w3.org/2000/svg">
<path d="M14.4613 15.1875V16.125C14.4613 17.1589 13.6202 18 12.5862 18H7.87508C6.84113 18 6 17.1589 6 16.125V7.875C6 6.84109 6.84113 6 7.87508 6H12.5862C13.6202 6 14.4613 6.84109 14.4613 7.875V8.8125C14.4613 9.07141 14.2515 9.28125 13.9925 9.28125C13.7336 9.28125 13.5238 9.07141 13.5238 8.8125V7.875C13.5238 7.35809 13.1032 6.9375 12.5862 6.9375H7.87508C7.35815 6.9375 6.93754 7.35809 6.93754 7.875V16.125C6.93754 16.6419 7.35815 17.0625 7.87508 17.0625H12.5862C13.1032 17.0625 13.5238 16.6419 13.5238 16.125V15.1875C13.5238 14.9286 13.7336 14.7188 13.9925 14.7188C14.2515 14.7188 14.4613 14.9286 14.4613 15.1875ZM17.6573 11.1948L16.6076 10.1451C16.4245 9.96204 16.1276 9.96204 15.9446 10.1451C15.7615 10.3282 15.7615 10.625 15.9446 10.808L16.6913 11.5547H11.0627C10.8038 11.5547 10.594 11.7645 10.594 12.0234C10.594 12.2823 10.8038 12.4922 11.0627 12.4922H16.6913L15.9446 13.2389C15.7615 13.4219 15.7615 13.7187 15.9446 13.9017C16.0362 13.9933 16.1561 14.0391 16.2761 14.0391C16.3961 14.0391 16.516 13.9933 16.6076 13.9017L17.6573 12.8521C18.1142 12.3951 18.1142 11.6517 17.6573 11.1948Z" fill="#B3B3B3"/>
</svg>
