<svg width="24" height="24" viewBox="0 0 24 24" fill="none" xmlns="http://www.w3.org/2000/svg">
<path d="M16.25 18H7.75C5.68225 18 4 16.401 4 14.4356V9.56436C4 7.59897 5.68225 6 7.75 6H16.25C18.3177 6 20 7.59897 20 9.56436V14.4356C20 16.401 18.3177 18 16.25 18ZM7.75 7.18812C6.3715 7.18812 5.25 8.2541 5.25 9.56436V14.4356C5.25 15.7459 6.3715 16.8119 7.75 16.8119H16.25C17.6285 16.8119 18.75 15.7459 18.75 14.4356V9.56436C18.75 8.2541 17.6285 7.18812 16.25 7.18812H7.75ZM14.2902 13.0517L17.3794 10.8087C17.6537 10.6096 17.7062 10.2368 17.4967 9.97604C17.2871 9.71531 16.8949 9.66541 16.6206 9.86456L13.5318 12.1072C12.6399 12.7538 11.3943 12.7543 10.5018 12.1089L7.50863 9.89733C7.23609 9.69594 6.84341 9.74272 6.63159 10.0018C6.41975 10.2608 6.46894 10.634 6.74147 10.8354L9.73694 13.0486C9.73844 13.0497 9.73997 13.0508 9.7415 13.0519C10.411 13.5373 11.2132 13.7799 12.0156 13.7799C12.8179 13.7799 13.6205 13.5371 14.2902 13.0517Z" fill="white"/>
</svg>
