<svg width="24" height="24" viewBox="0 0 24 24" fill="none" xmlns="http://www.w3.org/2000/svg">
<path d="M13.4668 5.33398H11.8668C11.6457 5.33398 11.4668 5.51292 11.4668 5.73398C11.4668 5.95505 11.6457 6.13398 11.8668 6.13398H13.4668C13.6879 6.13398 13.8668 5.95505 13.8668 5.73398C13.8668 5.51292 13.6879 5.33398 13.4668 5.33398Z" fill="white"/>
<path d="M15.2002 4H8.8002C7.91807 4 7.2002 4.71788 7.2002 5.6V18.4C7.2002 19.2821 7.91807 20 8.8002 20H15.2002C16.0823 20 16.8002 19.2821 16.8002 18.4V5.6C16.8002 4.71788 16.0823 4 15.2002 4ZM16.0002 18.4C16.0002 18.8419 15.6421 19.2 15.2002 19.2H8.8002C8.35832 19.2 8.0002 18.8419 8.0002 18.4V5.6C8.0002 5.15813 8.35832 4.8 8.8002 4.8H15.2002C15.6421 4.8 16.0002 5.15813 16.0002 5.6V18.4Z" fill="white"/>
<path d="M12.0002 18.6664C12.442 18.6664 12.8002 18.3082 12.8002 17.8664C12.8002 17.4246 12.442 17.0664 12.0002 17.0664C11.5584 17.0664 11.2002 17.4246 11.2002 17.8664C11.2002 18.3082 11.5584 18.6664 12.0002 18.6664Z" fill="white"/>
<path d="M10.5338 6.13398C10.7547 6.13398 10.9338 5.9549 10.9338 5.73398C10.9338 5.51307 10.7547 5.33398 10.5338 5.33398C10.3129 5.33398 10.1338 5.51307 10.1338 5.73398C10.1338 5.9549 10.3129 6.13398 10.5338 6.13398Z" fill="white"/>
</svg>
