<svg width="44" height="44" viewBox="0 0 44 44" fill="none" xmlns="http://www.w3.org/2000/svg">
<path d="M15.9266 10.4221C17.477 12.2667 19.3641 14.942 19.3641 16.786C19.3641 17.8946 18.305 19.2054 17.8954 19.6167C17.5614 19.9532 17.5631 20.497 17.8988 20.8319C18.2349 21.1663 18.7766 21.1667 19.1123 20.831C19.3138 20.6296 21.0828 18.8026 21.0828 16.786C21.0828 13.101 16.2337 8.143 15.6761 7.58596C15.4392 7.34821 15.0694 7.26256 14.7392 7.39914C14.4156 7.53297 14.2079 7.85019 14.2079 8.19239V20.0688C13.4876 19.6327 12.601 19.3641 11.6298 19.3641C9.25987 19.3641 7.33301 20.9057 7.33301 22.8015C7.33301 24.6973 9.25987 26.239 11.6298 26.239C13.9998 26.239 15.9266 24.6973 15.9266 22.8015V10.4221Z" fill="url(#paint0_linear_2821_41498)"/>
<path d="M36.2877 12.7407C36.0299 12.586 35.7377 12.5516 35.4627 12.672L23.4316 17.8281C23.1223 17.9657 22.916 18.275 22.916 18.6188V23.7062L36.6658 17.6907V13.4627C36.6658 13.1704 36.5282 12.9127 36.2877 12.7407Z" fill="white"/>
<path d="M22.9169 30.4954C22.1966 30.0593 21.31 29.7907 20.3388 29.7907C17.9689 29.7907 16.042 31.3323 16.042 33.2282C16.042 35.124 17.9689 36.6656 20.3388 36.6656C22.7087 36.6656 24.6356 35.124 24.6356 33.2282V24.8301L22.9169 25.582V30.4954Z" fill="white"/>
<path d="M34.9481 20.3183V25.3392C34.2279 24.9031 33.3412 24.6345 32.37 24.6345C30.0001 24.6345 28.0732 26.1761 28.0732 28.0719C28.0732 29.9677 30.0001 31.5093 32.37 31.5093C34.74 31.5093 36.6669 29.9677 36.6669 28.0719V19.5664L34.9481 20.3183Z" fill="white"/>
<defs>
<linearGradient id="paint0_linear_2821_41498" x1="14.2079" y1="7.33398" x2="14.2079" y2="26.239" gradientUnits="userSpaceOnUse">
<stop stop-color="#FF1759"/>
<stop offset="1" stop-color="#BF0036"/>
</linearGradient>
</defs>
</svg>
