<svg width="24" height="24" viewBox="0 0 24 24" fill="none" xmlns="http://www.w3.org/2000/svg">
<rect width="24" height="24" rx="12" fill="#343434"/>
<path d="M16.7992 16.8695C16.8386 16.9105 16.8691 16.9587 16.8892 17.0112C16.9092 17.0637 16.9182 17.1195 16.9158 17.1755C16.9134 17.2314 16.8996 17.2864 16.8751 17.3371C16.8506 17.3878 16.816 17.4333 16.7733 17.471C16.7305 17.5086 16.6805 17.5377 16.6261 17.5564C16.5717 17.5752 16.5139 17.5833 16.4563 17.5803C16.3986 17.5773 16.3421 17.5632 16.2901 17.5389C16.238 17.5146 16.1915 17.4805 16.1532 17.4386L13.8571 14.9904V17.5608C13.8585 17.6366 13.8395 17.7114 13.8021 17.7779C13.7647 17.8445 13.7102 17.9005 13.6438 17.9405C13.5684 17.984 13.4812 18.0045 13.3935 17.9992C13.3059 17.9939 13.222 17.9631 13.1527 17.9109L9.34201 15.0385H6.87302C6.64148 15.0385 6.41942 14.9493 6.2557 14.7906C6.09198 14.6319 6 14.4167 6 14.1923V10.8073C6 10.5829 6.09198 10.3676 6.2557 10.2089C6.41942 10.0502 6.64148 9.96109 6.87302 9.96109H9.14013L7.42302 8.13005C7.34679 8.04677 7.3075 7.93771 7.31367 7.82653C7.31984 7.71536 7.37097 7.61102 7.45598 7.53613C7.54098 7.46125 7.65301 7.42187 7.76777 7.42652C7.88254 7.43116 7.99078 7.47947 8.06905 7.56096L16.7992 16.8695ZM15.6321 14.1923C15.7443 14.1829 15.8488 14.1327 15.9244 14.0518C16 13.9708 16.0412 13.8651 16.0397 13.7559V11.2447C16.0415 11.1353 16.0004 11.0294 15.9248 10.9482C15.8491 10.867 15.7445 10.8167 15.6321 10.8073C15.5724 10.8035 15.5125 10.8116 15.4562 10.8311C15.3998 10.8507 15.3482 10.8812 15.3046 10.9209C15.2609 10.9606 15.2262 11.0085 15.2024 11.0618C15.1787 11.115 15.1665 11.1724 15.1667 11.2304V13.7691C15.1665 13.8271 15.1787 13.8846 15.2024 13.9378C15.2262 13.9911 15.2609 14.039 15.3046 14.0787C15.3482 14.1184 15.3998 14.1489 15.4562 14.1685C15.5125 14.188 15.5724 14.1961 15.6321 14.1923ZM13.4752 12.0698C13.5047 12.1022 13.5437 12.1251 13.587 12.1354C13.6303 12.1457 13.6759 12.1428 13.7175 12.1273C13.7591 12.1117 13.7947 12.0842 13.8197 12.0484C13.8447 12.0126 13.8578 11.9702 13.8571 11.927V7.43509C13.8582 7.37102 13.8446 7.30753 13.8174 7.24912C13.7903 7.19071 13.7502 7.13882 13.7 7.09712C13.6236 7.03583 13.5279 7.00159 13.4287 7.00005C13.3295 6.99852 13.2328 7.02977 13.1544 7.08866L10.7923 8.86786C10.7686 8.88578 10.7489 8.90825 10.7346 8.93388C10.7202 8.95951 10.7115 8.98773 10.7089 9.01679C10.7064 9.04584 10.71 9.07509 10.7197 9.10271C10.7293 9.13033 10.7448 9.15571 10.765 9.17727L13.4752 12.0698ZM17.3203 9.96109C17.2079 9.97045 17.1033 10.0208 17.0276 10.102C16.952 10.1831 16.9109 10.2891 16.9127 10.3985V14.6011C16.9112 14.7103 16.9524 14.816 17.028 14.8969C17.1036 14.9779 17.208 15.0281 17.3203 15.0374C17.38 15.0413 17.4399 15.0332 17.4962 15.0136C17.5526 14.9941 17.6042 14.9635 17.6478 14.9239C17.6915 14.8842 17.7262 14.8362 17.7499 14.783C17.7737 14.7297 17.7858 14.6723 17.7857 14.6143V10.3842C17.7858 10.3262 17.7737 10.2688 17.7499 10.2155C17.7262 10.1623 17.6915 10.1143 17.6478 10.0747C17.6042 10.035 17.5526 10.0044 17.4962 9.98488C17.4399 9.96535 17.38 9.95725 17.3203 9.96109Z" fill="white"/>
</svg>
