<svg width="24" height="24" viewBox="0 0 24 24" fill="none" xmlns="http://www.w3.org/2000/svg">
<path d="M12.7887 5.77778H12.2492C12.0066 5.77787 11.7665 5.82651 11.5434 5.92076C11.3203 6.01501 11.1188 6.15294 10.951 6.32622L7.60921 9.77778H3.79811V14.2222H7.60921L10.951 17.6738C11.1188 17.8471 11.3203 17.985 11.5434 18.0792C11.7665 18.1735 12.0066 18.2221 12.2492 18.2222H12.7887V5.77778ZM6.84141 8L9.65096 5.09689C9.98683 4.74999 10.3903 4.47396 10.837 4.28544C11.2837 4.09692 11.7644 3.99982 12.2501 4H13.6877C13.9262 4 14.1548 4.09365 14.3234 4.26035C14.4921 4.42705 14.5868 4.65314 14.5868 4.88889V19.1111C14.5868 19.3469 14.4921 19.573 14.3234 19.7397C14.1548 19.9064 13.9262 20 13.6877 20H12.2492C11.7638 19.9999 11.2835 19.9027 10.8371 19.7142C10.3907 19.5257 9.98752 19.2498 9.65186 18.9031L6.84141 16H3.79811C3.32122 16 2.86387 15.8127 2.52665 15.4793C2.18944 15.1459 2 14.6937 2 14.2222V9.77778C2 9.30628 2.18944 8.8541 2.52665 8.5207C2.86387 8.1873 3.32122 8 3.79811 8H6.84141ZM19.4552 12L20.7255 13.2569C20.8114 13.3389 20.8799 13.437 20.927 13.5454C20.9741 13.6539 20.9989 13.7705 21 13.8885C21.001 14.0066 20.9783 14.1236 20.933 14.2328C20.8878 14.3421 20.8211 14.4413 20.7367 14.5248C20.6523 14.6083 20.5519 14.6743 20.4414 14.719C20.3309 14.7636 20.2125 14.7861 20.0931 14.7851C19.9738 14.7841 19.8558 14.7596 19.7461 14.713C19.6364 14.6664 19.5372 14.5987 19.4543 14.5138L18.183 13.2569L16.9117 14.5138C16.8288 14.5987 16.7296 14.6664 16.6199 14.713C16.5102 14.7596 16.3922 14.7841 16.2729 14.7851C16.1535 14.7861 16.0351 14.7636 15.9246 14.719C15.8141 14.6743 15.7137 14.6083 15.6293 14.5248C15.5449 14.4413 15.4782 14.3421 15.4329 14.2328C15.3877 14.1236 15.365 14.0066 15.366 13.8885C15.3671 13.7705 15.3919 13.6539 15.439 13.5454C15.4861 13.437 15.5546 13.3389 15.6405 13.2569L16.9117 12L15.6405 10.7431C15.4767 10.5755 15.3861 10.3509 15.3881 10.1179C15.3902 9.8848 15.4847 9.66186 15.6514 9.49705C15.8181 9.33224 16.0436 9.23876 16.2793 9.23673C16.5151 9.23471 16.7422 9.3243 16.9117 9.48622L18.183 10.7431L19.4543 9.48622C19.5372 9.40132 19.6364 9.33361 19.7461 9.28702C19.8558 9.24044 19.9738 9.21591 20.0931 9.21489C20.2125 9.21386 20.3309 9.23635 20.4414 9.28105C20.5519 9.32574 20.6523 9.39174 20.7367 9.4752C20.8211 9.55867 20.8878 9.65791 20.933 9.76715C20.9783 9.87639 21.001 9.99344 21 10.1115C20.9989 10.2295 20.9741 10.3461 20.927 10.4546C20.8799 10.563 20.8114 10.6611 20.7255 10.7431L19.4543 12H19.4552Z" fill="white"/>
</svg>
