<svg width="81" height="80" viewBox="0 0 81 80" fill="none" xmlns="http://www.w3.org/2000/svg">
<rect x="1.5" y="1" width="78" height="78" rx="39" stroke="white" stroke-width="2"/>
<g opacity="0.7">
<path d="M48.1454 45.1514C48.3287 44.4831 48.4347 43.7834 48.4347 43.0569C48.4347 38.6809 44.8749 35.1211 40.4989 35.1211C36.1228 35.1211 32.563 38.6809 32.563 43.0569C32.563 43.7824 32.669 44.4822 32.8523 45.1514C28.124 45.223 24.2979 49.0864 24.2979 53.8328V60.2565C24.2979 62.5839 26.1909 64.4759 28.5173 64.4759H36.5935C36.5954 64.4759 36.5963 64.4769 36.5982 64.4769H41.8497C41.8525 64.4769 41.8554 64.4759 41.8592 64.4759H52.4804C54.8078 64.4759 56.6999 62.5839 56.6999 60.2565V53.8318C56.6999 49.0864 52.8737 45.223 48.1454 45.1514ZM40.4998 37.0313C43.8229 37.0313 46.5264 39.7348 46.5264 43.0579C46.5264 46.3809 43.8229 49.0835 40.4998 49.0835C37.1768 49.0835 34.4732 46.38 34.4732 43.0569C34.4732 39.7339 37.1768 37.0313 40.4998 37.0313ZM54.7906 60.2565C54.7906 61.53 53.7539 62.5667 52.4804 62.5667H44.999C45.2663 62.0655 45.4314 61.5032 45.4314 60.897C45.4314 60.2908 45.2653 59.7276 44.998 59.2264H49.27C49.797 59.2264 50.2246 58.7997 50.2246 58.2718V55.4871C50.2246 54.9592 49.797 54.5325 49.27 54.5325C48.743 54.5325 48.3154 54.9592 48.3154 55.4871V57.3172H41.8516H38.7089H32.186V55.4871C32.186 54.9592 31.7583 54.5325 31.2313 54.5325C30.7044 54.5325 30.2767 54.9592 30.2767 55.4871V58.2718C30.2767 58.7997 30.7044 59.2264 31.2313 59.2264H38.7089H41.8516C42.7728 59.2264 43.5222 59.9758 43.5222 60.897C43.5222 61.8154 42.7776 62.5619 41.8611 62.5667H28.5192C27.2457 62.5667 26.209 61.53 26.209 60.2565V53.8318C26.209 50.0945 29.2495 47.053 32.9869 47.053H33.6561C35.0346 49.4052 37.5825 50.9918 40.4998 50.9918C43.4172 50.9918 45.9651 49.4052 47.3436 47.053H48.0127C51.7501 47.053 54.7906 50.0945 54.7906 53.8318V60.2565Z" fill="white"/>
<path d="M34.2028 28.7335H46.5938C49.41 28.7335 51.7011 26.4434 51.7011 23.6263C51.7011 20.8159 49.41 18.5286 46.5938 18.5286C46.1862 18.5286 45.7748 18.582 45.3719 18.6842C44.4135 16.7577 42.4698 15.5215 40.2742 15.5215C37.7817 15.5215 35.6099 17.1568 34.85 19.466C32.0338 19.0422 29.5537 21.2922 29.5537 24.075C29.5537 26.6439 31.6386 28.7335 34.2028 28.7335ZM34.2028 21.3256C34.5245 21.3256 34.8643 21.3934 35.2147 21.529C35.4886 21.6349 35.7951 21.6101 36.0461 21.4593C36.2982 21.3104 36.4671 21.0526 36.5053 20.7634C36.7535 18.8636 38.3745 17.4317 40.2742 17.4317C41.9582 17.4317 43.4207 18.5314 43.9142 20.1696C43.9944 20.4369 44.1882 20.6555 44.4431 20.7681C44.6989 20.8798 44.9901 20.875 45.2421 20.7548C45.6774 20.5447 46.1328 20.4388 46.5948 20.4388C48.358 20.4388 49.7928 21.8688 49.7928 23.6272C49.7928 25.3904 48.358 26.8252 46.5948 26.8252H34.2037C32.6925 26.8252 31.4639 25.5919 31.4639 24.0759C31.4639 22.56 32.6916 21.3256 34.2028 21.3256Z" fill="white"/>
<path d="M35.6858 30.2973L35.1187 32.2065C34.9689 32.7115 35.2572 33.2433 35.7622 33.3931C35.8528 33.4199 35.9445 33.4323 36.0342 33.4323C36.4457 33.4323 36.8256 33.164 36.9488 32.7488L37.5158 30.8395C37.6657 30.3345 37.3774 29.8028 36.8724 29.6529C36.3655 29.503 35.8357 29.7913 35.6858 30.2973Z" fill="white"/>
<path d="M39.9963 30.2973L39.4293 32.2065C39.2794 32.7115 39.5677 33.2433 40.0727 33.3931C40.1634 33.4199 40.255 33.4323 40.3448 33.4323C40.7562 33.4323 41.1362 33.164 41.2593 32.7488L41.8264 30.8395C41.9762 30.3345 41.6879 29.8028 41.1829 29.6529C40.6751 29.503 40.1462 29.7913 39.9963 30.2973Z" fill="white"/>
<path d="M44.3069 30.2973L43.7398 32.2065C43.59 32.7115 43.8783 33.2433 44.3833 33.3931C44.4739 33.4199 44.5656 33.4323 44.6553 33.4323C45.0668 33.4323 45.4467 33.164 45.5699 32.7488L46.1369 30.8395C46.2868 30.3345 45.9985 29.8028 45.4935 29.6529C44.9856 29.503 44.4568 29.7913 44.3069 30.2973Z" fill="white"/>
</g>
</svg>
