<svg width="86" height="86" viewBox="0 0 86 86" fill="none" xmlns="http://www.w3.org/2000/svg">
<path d="M14 38.3789C14 42.4393 15.0576 46.4393 17.0585 49.947C17.6677 51.0151 19.0276 51.3873 20.0957 50.7776C21.1637 50.1684 21.536 48.8085 20.9267 47.7405C19.3085 44.9038 18.4531 41.6666 18.4531 38.3789C18.4531 27.9432 26.9432 19.4531 37.3789 19.4531C47.8147 19.4531 56.3048 27.9432 56.3048 38.3789C56.3048 48.8146 47.8147 57.3047 37.3789 57.3047C34.1313 57.3047 30.9284 56.4689 28.117 54.8876C27.045 54.2849 25.6877 54.665 25.085 55.737C24.4823 56.8089 24.8623 58.1662 25.9343 58.7689C29.4107 60.7245 33.3681 61.7578 37.3789 61.7578C42.9984 61.7578 48.1608 59.7643 52.1974 56.448L67.2045 71.3533C67.6389 71.7847 68.2065 72 68.7735 72C69.3458 72 69.9181 71.7808 70.3534 71.3425C71.2197 70.4701 71.2149 69.0602 70.3426 68.1935L55.3554 53.3086C58.7275 49.256 60.7579 44.0506 60.7579 38.3789C60.7579 25.4879 50.27 15 37.3789 15C24.4879 15 14 25.4879 14 38.3789ZM29.125 30.1245C29.9943 29.2552 31.4042 29.2552 32.2735 30.1245L37.3789 35.23L42.4844 30.125C43.3537 29.2552 44.7636 29.2552 45.6329 30.125C46.5026 30.9943 46.5026 32.4042 45.6329 33.2739L40.5279 38.3789L45.6329 43.4839C46.5026 44.3537 46.5026 45.7635 45.6329 46.6328C45.1985 47.0677 44.6283 47.2852 44.0586 47.2852C43.489 47.2852 42.9188 47.0677 42.4844 46.6333L37.3789 41.5278L32.2739 46.6328C31.8391 47.0677 31.2689 47.2852 30.6992 47.2852C30.1296 47.2852 29.5594 47.0677 29.125 46.6333C28.2552 45.7635 28.2552 44.3537 29.125 43.4843L34.23 38.3789L29.125 33.2739C28.2552 32.4042 28.2552 30.9943 29.125 30.1245Z" fill="white"/>
</svg>
