<svg width="24" height="24" viewBox="0 0 24 24" fill="none" xmlns="http://www.w3.org/2000/svg">
<path d="M18.2406 14.9756L17.3109 14.0284C17.1809 13.8962 17.1094 13.7212 17.1094 13.5359V10.6719C17.1094 8.36 15.5659 6.40219 13.4553 5.77406C13.4744 5.67906 13.4844 5.58187 13.4844 5.48438C13.4844 4.66594 12.8184 4 12 4C11.1816 4 10.5156 4.66594 10.5156 5.48438C10.5156 5.58281 10.5253 5.67969 10.5437 5.77437C8.43374 6.40281 6.89061 8.36031 6.89061 10.6719V13.5359C6.89061 13.7212 6.81905 13.8962 6.68905 14.0284L5.75936 14.9756C5.24311 15.5013 5.09936 16.25 5.38468 16.9297C5.66968 17.6091 6.30468 18.0312 7.04155 18.0312H9.78187C9.91374 19.1384 10.8578 20 12 20C13.1422 20 14.0862 19.1384 14.2181 18.0312H16.9584C17.6953 18.0312 18.3303 17.6091 18.6153 16.9297C18.9006 16.25 18.7569 15.5013 18.2406 14.9756ZM11.6094 5.48438C11.6094 5.26906 11.7847 5.09375 12 5.09375C12.2153 5.09375 12.3906 5.26906 12.3906 5.48438C12.3906 5.51813 12.3862 5.54844 12.3794 5.57656C12.2541 5.5675 12.1275 5.5625 12 5.5625C11.8725 5.5625 11.7459 5.5675 11.6206 5.57656C11.6137 5.54875 11.6094 5.51813 11.6094 5.48438ZM12 18.9062C11.4625 18.9062 11.0109 18.5325 10.8909 18.0312H13.1091C12.9891 18.5325 12.5375 18.9062 12 18.9062ZM17.6069 16.5066C17.5644 16.6078 17.3922 16.9375 16.9584 16.9375H7.04155C6.6078 16.9375 6.43561 16.6075 6.39311 16.5066C6.35061 16.4053 6.23593 16.0516 6.53968 15.7419L7.46968 14.7947C7.80155 14.4566 7.98436 14.0097 7.98436 13.5359V10.6719C7.98436 8.45781 9.78561 6.65625 12 6.65625C14.2144 6.65625 16.0156 8.45781 16.0156 10.6719V13.5359C16.0156 14.0097 16.1984 14.4566 16.5303 14.7947L17.4603 15.7419C17.7641 16.0512 17.6494 16.4053 17.6069 16.5066Z" fill="white"/>
</svg>
