<svg width="44" height="44" viewBox="0 0 44 44" fill="none" xmlns="http://www.w3.org/2000/svg">
<path d="M30.3736 17.1701C30.4874 16.9983 30.6902 16.9076 30.8942 16.9372C31.0981 16.9668 31.2667 17.1115 31.327 17.3086L32.1792 20.1092C32.2821 20.4524 32.5494 20.7217 32.8918 20.8272L35.6615 21.7087C35.8503 21.7694 35.9897 21.9301 36.0232 22.1255C36.0568 22.321 35.979 22.5189 35.8213 22.6392L33.4372 24.4618C33.1596 24.6754 32.9997 25.008 33.0063 25.3583L33.0543 28.4054C33.0569 28.6084 32.944 28.7953 32.763 28.8872C32.582 28.9792 32.3645 28.9603 32.2021 28.8385L29.9325 27.1197C29.7489 26.9797 29.5243 26.9039 29.2934 26.904C29.166 26.9045 29.0397 26.9277 28.9205 26.9727L26.251 27.9538C26.0602 28.0243 25.8459 27.98 25.6987 27.8396C25.5515 27.6992 25.4971 27.4872 25.5586 27.2933L26.4688 24.4118C26.5741 24.0774 26.5149 23.7129 26.3091 23.4291L24.5444 20.9625C24.429 20.8007 24.4132 20.5881 24.5034 20.4111C24.5937 20.234 24.775 20.1219 24.9737 20.1204L27.8643 20.0991C28.2229 20.0952 28.5559 19.9128 28.7522 19.6128L30.3736 17.1701Z" fill="white"/>
<path d="M18.1454 16.3184L16.3776 17.9802C16.229 18.1199 16.0137 18.1624 15.8231 18.0898C15.6325 18.0171 15.5002 17.842 15.4823 17.6388L15.2522 15.0465C15.2217 14.7135 15.0359 14.4145 14.751 14.2395L12.4953 12.9032C12.3227 12.8008 12.2223 12.6101 12.2355 12.4098C12.2488 12.2096 12.3735 12.0338 12.5581 11.9551L14.8815 10.9665C15.199 10.832 15.4283 10.5478 15.4929 10.2091L15.9606 7.76648C15.9994 7.56385 16.1517 7.40185 16.3516 7.35066C16.5514 7.29947 16.7629 7.3683 16.8943 7.52733L18.4805 9.4448C18.6975 9.71074 19.0331 9.85064 19.3747 9.81764L21.8664 9.55133C22.0657 9.52991 22.2602 9.62224 22.3696 9.79024C22.479 9.95823 22.4848 10.1734 22.3846 10.3471L21.0717 12.6214C20.9037 12.9126 20.8839 13.2662 21.0184 13.5743L22.0629 15.9573C22.1447 16.1441 22.1126 16.3612 21.9803 16.5164C21.8481 16.6716 21.6388 16.7376 21.4414 16.6864L19.0941 16.0755C18.7571 15.9879 18.3988 16.0797 18.1454 16.3184Z" fill="white"/>
<path d="M25.9949 11.3881C25.9949 11.0939 25.7565 10.8555 25.4623 10.8555C25.1682 10.8555 24.9297 11.0939 24.9297 11.3881V11.9207C24.9297 12.2149 25.1682 12.4534 25.4623 12.4534C25.7565 12.4534 25.9949 12.2149 25.9949 11.9207V11.3881Z" fill="url(#paint0_linear_2821_41466)"/>
<path d="M26.5277 13.5184H27.0604C27.3545 13.5184 27.593 13.2799 27.593 12.9858C27.593 12.6916 27.3545 12.4531 27.0604 12.4531H26.5277C26.2336 12.4531 25.9951 12.6916 25.9951 12.9858C25.9951 13.2799 26.2336 13.5184 26.5277 13.5184Z" fill="url(#paint1_linear_2821_41466)"/>
<path d="M25.4623 15.1155C25.7565 15.1155 25.9949 14.877 25.9949 14.5828V14.0502C25.9949 13.756 25.7565 13.5176 25.4623 13.5176C25.1682 13.5176 24.9297 13.756 24.9297 14.0502V14.5828C24.9297 14.877 25.1682 15.1155 25.4623 15.1155Z" fill="url(#paint2_linear_2821_41466)"/>
<path d="M24.3973 13.5184C24.6915 13.5184 24.9299 13.2799 24.9299 12.9858C24.9299 12.6916 24.6915 12.4531 24.3973 12.4531H23.8647C23.5705 12.4531 23.332 12.6916 23.332 12.9858C23.332 13.2799 23.5705 13.5184 23.8647 13.5184H24.3973Z" fill="url(#paint3_linear_2821_41466)"/>
<path d="M20.1356 18.8451C20.1356 18.551 19.8971 18.3125 19.6029 18.3125C19.3088 18.3125 19.0703 18.551 19.0703 18.8451V19.3778C19.0703 19.6719 19.3088 19.9104 19.6029 19.9104C19.8971 19.9104 20.1356 19.6719 20.1356 19.3778V18.8451Z" fill="url(#paint4_linear_2821_41466)"/>
<path d="M20.6684 20.9774H21.201C21.4952 20.9774 21.7336 20.7389 21.7336 20.4447C21.7336 20.1506 21.4952 19.9121 21.201 19.9121H20.6684C20.3742 19.9121 20.1357 20.1506 20.1357 20.4447C20.1357 20.7389 20.3742 20.9774 20.6684 20.9774Z" fill="url(#paint5_linear_2821_41466)"/>
<path d="M19.6029 22.5725C19.8971 22.5725 20.1356 22.334 20.1356 22.0399V21.5072C20.1356 21.2131 19.8971 20.9746 19.6029 20.9746C19.3088 20.9746 19.0703 21.2131 19.0703 21.5072V22.0399C19.0703 22.334 19.3088 22.5725 19.6029 22.5725Z" fill="url(#paint6_linear_2821_41466)"/>
<path d="M18.5379 19.9121H18.0053C17.7111 19.9121 17.4727 20.1506 17.4727 20.4447C17.4727 20.7389 17.7111 20.9774 18.0053 20.9774H18.5379C18.8321 20.9774 19.0705 20.7389 19.0705 20.4447C19.0705 20.1506 18.8321 19.9121 18.5379 19.9121Z" fill="url(#paint7_linear_2821_41466)"/>
<path d="M10.0164 15.6479C10.0164 15.3537 9.77797 15.1152 9.4838 15.1152C9.18964 15.1152 8.95117 15.3537 8.95117 15.6479V16.1805C8.95117 16.4747 9.18964 16.7131 9.4838 16.7131C9.77797 16.7131 10.0164 16.4747 10.0164 16.1805V15.6479Z" fill="url(#paint8_linear_2821_41466)"/>
<path d="M10.5492 17.7801H11.0819C11.376 17.7801 11.6145 17.5416 11.6145 17.2475C11.6145 16.9533 11.376 16.7148 11.0819 16.7148H10.5492C10.2551 16.7148 10.0166 16.9533 10.0166 17.2475C10.0166 17.5416 10.2551 17.7801 10.5492 17.7801Z" fill="url(#paint9_linear_2821_41466)"/>
<path d="M10.0164 18.3139C10.0164 18.0197 9.77797 17.7812 9.4838 17.7812C9.18964 17.7812 8.95117 18.0197 8.95117 18.3139V18.8465C8.95117 19.1407 9.18964 19.3791 9.4838 19.3791C9.77797 19.3791 10.0164 19.1407 10.0164 18.8465V18.3139Z" fill="url(#paint10_linear_2821_41466)"/>
<path d="M8.4178 17.7801C8.71196 17.7801 8.95043 17.5416 8.95043 17.2475C8.95043 16.9533 8.71196 16.7148 8.4178 16.7148H7.88517C7.59101 16.7148 7.35254 16.9533 7.35254 17.2475C7.35254 17.5416 7.59101 17.7801 7.88517 17.7801H8.4178Z" fill="url(#paint11_linear_2821_41466)"/>
<path d="M36.1151 12.9858C36.1151 12.6916 35.8766 12.4531 35.5824 12.4531C35.2883 12.4531 35.0498 12.6916 35.0498 12.9858V13.5184C35.0498 13.8125 35.2883 14.051 35.5824 14.051C35.8766 14.051 36.1151 13.8125 36.1151 13.5184V12.9858Z" fill="url(#paint12_linear_2821_41466)"/>
<path d="M37.1805 14.0527H36.6479C36.3537 14.0527 36.1152 14.2912 36.1152 14.5854C36.1152 14.8795 36.3537 15.118 36.6479 15.118H37.1805C37.4747 15.118 37.7131 14.8795 37.7131 14.5854C37.7131 14.2912 37.4747 14.0527 37.1805 14.0527Z" fill="url(#paint13_linear_2821_41466)"/>
<path d="M35.5824 16.7131C35.8766 16.7131 36.1151 16.4747 36.1151 16.1805V15.6479C36.1151 15.3537 35.8766 15.1152 35.5824 15.1152C35.2883 15.1152 35.0498 15.3537 35.0498 15.6479V16.1805C35.0498 16.4747 35.2883 16.7131 35.5824 16.7131Z" fill="url(#paint14_linear_2821_41466)"/>
<path d="M34.5174 14.0527H33.9848C33.6906 14.0527 33.4521 14.2912 33.4521 14.5854C33.4521 14.8795 33.6906 15.118 33.9848 15.118H34.5174C34.8116 15.118 35.05 14.8795 35.05 14.5854C35.05 14.2912 34.8116 14.0527 34.5174 14.0527Z" fill="url(#paint15_linear_2821_41466)"/>
<path d="M24.9301 32.1604C25.2243 32.1604 25.4627 31.9219 25.4627 31.6278V31.0951C25.4627 30.801 25.2243 30.5625 24.9301 30.5625C24.6359 30.5625 24.3975 30.801 24.3975 31.0951V31.6278C24.3975 31.9219 24.6359 32.1604 24.9301 32.1604Z" fill="url(#paint16_linear_2821_41466)"/>
<path d="M26.5272 32.1602H25.9945C25.7004 32.1602 25.4619 32.3986 25.4619 32.6928C25.4619 32.987 25.7004 33.2254 25.9945 33.2254H26.5272C26.8213 33.2254 27.0598 32.987 27.0598 32.6928C27.0598 32.3986 26.8213 32.1602 26.5272 32.1602Z" fill="url(#paint17_linear_2821_41466)"/>
<path d="M24.9301 33.2246C24.6359 33.2246 24.3975 33.4631 24.3975 33.7572V34.2899C24.3975 34.584 24.6359 34.8225 24.9301 34.8225C25.2243 34.8225 25.4627 34.584 25.4627 34.2899V33.7572C25.4627 33.4631 25.2243 33.2246 24.9301 33.2246Z" fill="url(#paint18_linear_2821_41466)"/>
<path d="M23.8641 32.1602H23.3315C23.0373 32.1602 22.7988 32.3986 22.7988 32.6928C22.7988 32.987 23.0373 33.2254 23.3315 33.2254H23.8641C24.1583 33.2254 24.3967 32.987 24.3967 32.6928C24.3967 32.3986 24.1583 32.1602 23.8641 32.1602Z" fill="url(#paint19_linear_2821_41466)"/>
<path d="M28.6582 10.8557C28.6582 11.7382 29.3736 12.4536 30.2561 12.4536C31.1386 12.4536 31.854 11.7382 31.854 10.8557C31.854 9.97321 31.1386 9.25781 30.2561 9.25781C29.3736 9.25781 28.6582 9.97321 28.6582 10.8557ZM30.7887 10.8557C30.7887 11.1499 30.5503 11.3883 30.2561 11.3883C29.9619 11.3883 29.7235 11.1499 29.7235 10.8557C29.7235 10.5615 29.9619 10.3231 30.2561 10.3231C30.5503 10.3231 30.7887 10.5615 30.7887 10.8557Z" fill="url(#paint20_linear_2821_41466)"/>
<path d="M30.2561 30.0312C29.3736 30.0312 28.6582 30.7467 28.6582 31.6291C28.6582 32.5116 29.3736 33.227 30.2561 33.227C31.1386 33.227 31.854 32.5116 31.854 31.6291C31.854 30.7467 31.1386 30.0312 30.2561 30.0312ZM30.2561 32.1618C29.9619 32.1618 29.7235 31.9233 29.7235 31.6291C29.7235 31.335 29.9619 31.0965 30.2561 31.0965C30.5503 31.0965 30.7887 31.335 30.7887 31.6291C30.7887 31.9233 30.5503 32.1618 30.2561 32.1618Z" fill="url(#paint21_linear_2821_41466)"/>
<path d="M8.4182 24.7055C9.30069 24.7055 10.0161 23.9901 10.0161 23.1077C10.0161 22.2252 9.30069 21.5098 8.4182 21.5098C7.53571 21.5098 6.82031 22.2252 6.82031 23.1077C6.82031 23.9901 7.53571 24.7055 8.4182 24.7055ZM8.4182 22.575C8.71237 22.575 8.95083 22.8135 8.95083 23.1077C8.95083 23.4018 8.71237 23.6403 8.4182 23.6403C8.12404 23.6403 7.88557 23.4018 7.88557 23.1077C7.88557 22.8135 8.12404 22.575 8.4182 22.575Z" fill="url(#paint22_linear_2821_41466)"/>
<path d="M13.729 20.3746L16.6708 24.0902C16.8038 24.258 17.011 24.3494 17.2247 24.3347L21.907 24.0012C22.1523 23.9844 22.386 24.1074 22.511 24.3191C22.636 24.5308 22.6309 24.7949 22.4977 25.0015L19.9267 28.9904C19.8122 29.1683 19.7914 29.3908 19.8708 29.5869L21.6626 34.011C21.7559 34.2399 21.7109 34.5021 21.5465 34.6867C21.382 34.8714 21.1269 34.9465 20.8887 34.8802L16.3719 33.6152C16.1641 33.5567 15.9408 33.6061 15.777 33.7468L12.2148 36.7977C12.0268 36.9583 11.7638 36.9979 11.5368 36.8999C11.3098 36.8019 11.1584 36.5834 11.1463 36.3364L10.9061 31.5689C10.8954 31.3576 10.7828 31.1648 10.6041 31.0517L6.59072 28.5185C6.38301 28.3872 6.26712 28.15 6.29123 27.9054C6.31535 27.6609 6.47535 27.4509 6.7047 27.3627L11.0909 25.6907C11.2911 25.6142 11.4405 25.4438 11.4904 25.2353L12.5913 20.626C12.649 20.3848 12.8394 20.1977 13.0815 20.1442C13.3237 20.0907 13.5751 20.1801 13.729 20.3746Z" fill="white"/>
<defs>
<linearGradient id="paint0_linear_2821_41466" x1="25.4623" y1="10.8555" x2="25.4623" y2="12.4534" gradientUnits="userSpaceOnUse">
<stop stop-color="#FF1759"/>
<stop offset="1" stop-color="#BF0036"/>
</linearGradient>
<linearGradient id="paint1_linear_2821_41466" x1="26.7941" y1="12.4531" x2="26.7941" y2="13.5184" gradientUnits="userSpaceOnUse">
<stop stop-color="#FF1759"/>
<stop offset="1" stop-color="#BF0036"/>
</linearGradient>
<linearGradient id="paint2_linear_2821_41466" x1="25.4623" y1="13.5176" x2="25.4623" y2="15.1155" gradientUnits="userSpaceOnUse">
<stop stop-color="#FF1759"/>
<stop offset="1" stop-color="#BF0036"/>
</linearGradient>
<linearGradient id="paint3_linear_2821_41466" x1="24.131" y1="12.4531" x2="24.131" y2="13.5184" gradientUnits="userSpaceOnUse">
<stop stop-color="#FF1759"/>
<stop offset="1" stop-color="#BF0036"/>
</linearGradient>
<linearGradient id="paint4_linear_2821_41466" x1="19.6029" y1="18.3125" x2="19.6029" y2="19.9104" gradientUnits="userSpaceOnUse">
<stop stop-color="#FF1759"/>
<stop offset="1" stop-color="#BF0036"/>
</linearGradient>
<linearGradient id="paint5_linear_2821_41466" x1="20.9347" y1="19.9121" x2="20.9347" y2="20.9774" gradientUnits="userSpaceOnUse">
<stop stop-color="#FF1759"/>
<stop offset="1" stop-color="#BF0036"/>
</linearGradient>
<linearGradient id="paint6_linear_2821_41466" x1="19.6029" y1="20.9746" x2="19.6029" y2="22.5725" gradientUnits="userSpaceOnUse">
<stop stop-color="#FF1759"/>
<stop offset="1" stop-color="#BF0036"/>
</linearGradient>
<linearGradient id="paint7_linear_2821_41466" x1="18.2716" y1="19.9121" x2="18.2716" y2="20.9774" gradientUnits="userSpaceOnUse">
<stop stop-color="#FF1759"/>
<stop offset="1" stop-color="#BF0036"/>
</linearGradient>
<linearGradient id="paint8_linear_2821_41466" x1="9.4838" y1="15.1152" x2="9.4838" y2="16.7131" gradientUnits="userSpaceOnUse">
<stop stop-color="#FF1759"/>
<stop offset="1" stop-color="#BF0036"/>
</linearGradient>
<linearGradient id="paint9_linear_2821_41466" x1="10.8155" y1="16.7148" x2="10.8155" y2="17.7801" gradientUnits="userSpaceOnUse">
<stop stop-color="#FF1759"/>
<stop offset="1" stop-color="#BF0036"/>
</linearGradient>
<linearGradient id="paint10_linear_2821_41466" x1="9.4838" y1="17.7812" x2="9.4838" y2="19.3791" gradientUnits="userSpaceOnUse">
<stop stop-color="#FF1759"/>
<stop offset="1" stop-color="#BF0036"/>
</linearGradient>
<linearGradient id="paint11_linear_2821_41466" x1="8.15148" y1="16.7148" x2="8.15148" y2="17.7801" gradientUnits="userSpaceOnUse">
<stop stop-color="#FF1759"/>
<stop offset="1" stop-color="#BF0036"/>
</linearGradient>
<linearGradient id="paint12_linear_2821_41466" x1="35.5824" y1="12.4531" x2="35.5824" y2="14.051" gradientUnits="userSpaceOnUse">
<stop stop-color="#FF1759"/>
<stop offset="1" stop-color="#BF0036"/>
</linearGradient>
<linearGradient id="paint13_linear_2821_41466" x1="36.9142" y1="14.0527" x2="36.9142" y2="15.118" gradientUnits="userSpaceOnUse">
<stop stop-color="#FF1759"/>
<stop offset="1" stop-color="#BF0036"/>
</linearGradient>
<linearGradient id="paint14_linear_2821_41466" x1="35.5824" y1="15.1152" x2="35.5824" y2="16.7131" gradientUnits="userSpaceOnUse">
<stop stop-color="#FF1759"/>
<stop offset="1" stop-color="#BF0036"/>
</linearGradient>
<linearGradient id="paint15_linear_2821_41466" x1="34.2511" y1="14.0527" x2="34.2511" y2="15.118" gradientUnits="userSpaceOnUse">
<stop stop-color="#FF1759"/>
<stop offset="1" stop-color="#BF0036"/>
</linearGradient>
<linearGradient id="paint16_linear_2821_41466" x1="24.9301" y1="30.5625" x2="24.9301" y2="32.1604" gradientUnits="userSpaceOnUse">
<stop stop-color="#FF1759"/>
<stop offset="1" stop-color="#BF0036"/>
</linearGradient>
<linearGradient id="paint17_linear_2821_41466" x1="26.2609" y1="32.1602" x2="26.2609" y2="33.2254" gradientUnits="userSpaceOnUse">
<stop stop-color="#FF1759"/>
<stop offset="1" stop-color="#BF0036"/>
</linearGradient>
<linearGradient id="paint18_linear_2821_41466" x1="24.9301" y1="33.2246" x2="24.9301" y2="34.8225" gradientUnits="userSpaceOnUse">
<stop stop-color="#FF1759"/>
<stop offset="1" stop-color="#BF0036"/>
</linearGradient>
<linearGradient id="paint19_linear_2821_41466" x1="23.5978" y1="32.1602" x2="23.5978" y2="33.2254" gradientUnits="userSpaceOnUse">
<stop stop-color="#FF1759"/>
<stop offset="1" stop-color="#BF0036"/>
</linearGradient>
<linearGradient id="paint20_linear_2821_41466" x1="30.2561" y1="9.25781" x2="30.2561" y2="12.4536" gradientUnits="userSpaceOnUse">
<stop stop-color="#FF1759"/>
<stop offset="1" stop-color="#BF0036"/>
</linearGradient>
<linearGradient id="paint21_linear_2821_41466" x1="30.2561" y1="30.0312" x2="30.2561" y2="33.227" gradientUnits="userSpaceOnUse">
<stop stop-color="#FF1759"/>
<stop offset="1" stop-color="#BF0036"/>
</linearGradient>
<linearGradient id="paint22_linear_2821_41466" x1="8.4182" y1="21.5098" x2="8.4182" y2="24.7055" gradientUnits="userSpaceOnUse">
<stop stop-color="#FF1759"/>
<stop offset="1" stop-color="#BF0036"/>
</linearGradient>
</defs>
</svg>
