<svg width="24" height="24" viewBox="0 0 24 24" fill="none" xmlns="http://www.w3.org/2000/svg">
<path d="M7.33333 8.66667V7.85714C7.33333 5.17462 9.42267 3 12 3C14.5773 3 16.6667 5.17462 16.6667 7.85714V8.66667H18.2222C18.6518 8.66667 19 9.02911 19 9.47619V19.1905C19 19.6376 18.6518 20 18.2222 20H5.77778C5.34823 20 5 19.6376 5 19.1905V9.47619C5 9.02911 5.34823 8.66667 5.77778 8.66667H7.33333ZM17.4444 10.2857H6.55556V18.381H17.4444V10.2857ZM11.2222 14.9262C10.7573 14.6463 10.4444 14.1231 10.4444 13.5238C10.4444 12.6296 11.1409 11.9048 12 11.9048C12.8591 11.9048 13.5556 12.6296 13.5556 13.5238C13.5556 14.1231 13.2427 14.6463 12.7778 14.9262V16.7619H11.2222V14.9262ZM8.88889 8.66667H15.1111V7.85714C15.1111 6.06879 13.7182 4.61905 12 4.61905C10.2818 4.61905 8.88889 6.06879 8.88889 7.85714V8.66667Z" fill="white"/>
</svg>
