<svg width="24" height="24" viewBox="0 0 24 24" fill="none" xmlns="http://www.w3.org/2000/svg">
<path d="M0 12C0 5.37258 5.37258 0 12 0C18.6274 0 24 5.37258 24 12C24 18.6274 18.6274 24 12 24C5.37258 24 0 18.6274 0 12Z" fill="#343434"/>
<path fill-rule="evenodd" clip-rule="evenodd" d="M9.25 7C8.55964 7 8 7.55964 8 8.25V15.75C8 16.4404 8.55964 17 9.25 17C9.94036 17 10.5 16.4404 10.5 15.75V8.25C10.5 7.55964 9.94036 7 9.25 7ZM14.25 7C13.5596 7 13 7.55964 13 8.25V15.75C13 16.4404 13.5596 17 14.25 17C14.9404 17 15.5 16.4404 15.5 15.75V8.25C15.5 7.55964 14.9404 7 14.25 7Z" fill="white"/>
</svg>
