<svg width="24" height="24" viewBox="0 0 24 24" fill="none" xmlns="http://www.w3.org/2000/svg">
<path d="M19.7856 9.8559L14.0924 4.19305C13.8337 3.93565 13.4455 3.93565 13.1867 4.19305L11.1165 6.25227C10.793 6.57402 10.9224 6.96012 11.1165 7.15318L11.5693 7.60363L9.62848 9.53414C8.65805 9.34109 6.00555 8.89064 4.58226 10.3064C4.32348 10.5638 4.32348 10.9499 4.58226 11.2073L8.26988 14.8752L4.19409 18.9293C3.9353 19.1867 3.9353 19.5728 4.19409 19.8302C4.45287 20.0876 4.90573 20.0233 5.09982 19.8302L9.17561 15.7761L12.8632 19.4441C13.2514 19.7659 13.6396 19.6372 13.769 19.4441C15.1923 18.0284 14.7394 15.39 14.5453 14.4248L16.4862 12.4943L16.939 12.9447C17.1978 13.2021 17.586 13.2021 17.8448 12.9447L19.915 10.8855C20.0444 10.4994 20.0444 10.1133 19.7856 9.8559Z" fill="white"/>
</svg>
