<svg width="12" height="13" viewBox="0 0 12 13" fill="none" xmlns="http://www.w3.org/2000/svg">
<path d="M1.67676 12.4229C1.4082 12.4229 1.19336 12.3252 1.03223 12.1299C0.875977 11.9395 0.797852 11.6855 0.797852 11.3682V1.07031C0.797852 0.75293 0.875977 0.499023 1.03223 0.308594C1.19336 0.118164 1.4082 0.0229492 1.67676 0.0229492C1.82324 0.0229492 1.9624 0.0498047 2.09424 0.103516C2.22607 0.152344 2.36523 0.218262 2.51172 0.30127L11.0518 5.24512C11.3594 5.4209 11.5718 5.57959 11.689 5.72119C11.811 5.85791 11.8721 6.02393 11.8721 6.21924C11.8721 6.41455 11.811 6.58301 11.689 6.72461C11.5718 6.86133 11.3594 7.02002 11.0518 7.20068L2.51172 12.1372C2.36523 12.2251 2.22607 12.2935 2.09424 12.3423C1.9624 12.396 1.82324 12.4229 1.67676 12.4229Z" fill="#007AFF"/>
</svg>
