<svg width="24" height="24" viewBox="0 0 24 24" fill="none" xmlns="http://www.w3.org/2000/svg">
<path d="M18.7811 6.39255C16.4528 6.39255 13.3895 5.60691 12.2976 4.15135C12.1523 3.97447 11.8912 3.94896 11.7143 4.09422C11.6935 4.11131 11.6743 4.13048 11.6572 4.15135C10.5652 5.60679 7.50182 6.39255 5.1737 6.39255C4.95264 6.39255 4.77344 6.57175 4.77344 6.79282V11.9956C4.77344 16.3964 8.59508 19.0495 11.8675 19.9843C11.9393 20.0052 12.0155 20.0052 12.0873 19.9843C15.3597 19.0495 19.1813 16.3964 19.1813 11.9956V6.79282C19.1813 6.57175 19.0021 6.39255 18.7811 6.39255ZM18.3808 11.9956C18.3808 15.9024 14.9571 18.2974 11.9774 19.1832C8.99767 18.2974 5.57385 15.9024 5.57385 11.9956V7.18601C7.8872 7.10776 10.6228 6.36204 11.9774 4.99961C13.3321 6.36204 16.0676 7.10776 18.3809 7.18589L18.3808 11.9956Z" fill="white"/>
<path d="M10.3767 10.3957V11.1962H9.97644C9.75537 11.1962 9.57617 11.3754 9.57617 11.5964V14.7981C9.57617 15.0191 9.75537 15.1983 9.97644 15.1983H13.9786C14.1997 15.1983 14.3789 15.0191 14.3789 14.7981V11.5964C14.3789 11.3754 14.1997 11.1962 13.9786 11.1962H13.5784V10.3957C13.5784 9.51159 12.8617 8.79492 11.9775 8.79492C11.0934 8.79492 10.3767 9.51159 10.3767 10.3957ZM13.5784 14.3979H10.3767V11.9966H13.5784V14.3979ZM12.7779 10.3957V11.1962H11.1771V10.3957C11.1771 9.95373 11.5354 9.59533 11.9775 9.59533C12.4195 9.59533 12.7779 9.95373 12.7779 10.3957Z" fill="white"/>
</svg>
