<svg width="24" height="24" viewBox="0 0 24 24" fill="none" xmlns="http://www.w3.org/2000/svg">
<path fill-rule="evenodd" clip-rule="evenodd" d="M11.9984 4L11.9072 4.00534C11.8758 4.00897 11.8446 4.01447 11.812 4.02241L11.7221 4.04958C11.662 4.07183 11.6039 4.10162 11.5492 4.13902L11.472 4.19888L11.2619 4.3792C9.57802 5.77803 7.42989 6.50121 5.23656 6.40084C4.86842 6.384 4.5364 6.62082 4.43246 6.97438C3.63821 9.67624 3.97363 12.5847 5.36205 15.0348C6.75046 17.485 9.07316 19.2673 11.7991 19.9744C11.9309 20.0086 12.0691 20.0086 12.2008 19.9744C14.9268 19.2673 17.2495 17.485 18.6379 15.0348C20.0263 12.5847 20.3618 9.67624 19.5675 6.97438C19.4636 6.62082 19.1316 6.384 18.7634 6.40084L18.4895 6.40911C16.3919 6.43977 14.3518 5.71974 12.7381 4.3792L12.5344 4.20481L12.4508 4.13902C12.3961 4.10162 12.338 4.07183 12.2779 4.04958L12.1889 4.02257L12.1397 4.01219L12.0928 4.00534L11.9984 4ZM11.8588 5.94505L12 5.83601L12.1412 5.94505C13.8307 7.20597 15.8646 7.92382 17.9713 8.00276L18.1816 8.00721L18.2332 8.25524C18.6236 10.2969 18.2797 12.4216 17.2459 14.246L17.1121 14.474C15.9707 16.3545 14.1657 17.7395 12.054 18.3554L12 18.3704L11.946 18.3554C9.74975 17.7149 7.88537 16.2424 6.75408 14.246L6.61738 13.9954C5.6905 12.2286 5.39414 10.2041 5.76675 8.25524L5.81758 8.00721L6.02862 8.00276C8.13534 7.92382 10.1692 7.20597 11.8588 5.94505ZM12 9.6C11.1163 9.6 10.4 10.3163 10.4 11.2C10.4 11.7922 10.7218 12.3093 11.2 12.5859V14L11.2054 14.0933C11.2516 14.4912 11.5897 14.8 12 14.8C12.4418 14.8 12.8 14.4418 12.8 14V12.5859C13.2782 12.3093 13.6 11.7922 13.6 11.2C13.6 10.3163 12.8837 9.6 12 9.6Z" fill="white"/>
</svg>
