<svg width="31" height="31" viewBox="0 0 31 31" fill="none" xmlns="http://www.w3.org/2000/svg">
<path opacity="0.1" d="M24.8133 29.1435C24.8133 30.0553 20.5372 30.7948 15.2626 30.7948C9.98802 30.7948 5.71191 30.0553 5.71191 29.1435C5.71191 28.2317 9.98802 27.4922 15.2626 27.4922C20.5372 27.4922 24.8133 28.2317 24.8133 29.1435Z" fill="black"/>
<path d="M15.2631 0C17.5348 0 20.6667 7.96206 21.0134 8.17775C21.3602 8.39396 29.7709 9.41127 30.4686 11.0469C31.1663 12.6826 24.6947 18.6006 24.5344 19.0032C24.3741 19.4059 25.9909 27.8202 24.6608 28.9221C23.3306 30.023 15.7273 25.7171 15.2636 25.7145C14.7998 25.7119 7.50365 30.0465 5.86643 28.9221C4.22921 27.7978 6.11083 19.4586 5.9928 19.0032C5.87478 18.5484 -0.680898 13.2127 0.0580706 11.0469C0.797561 8.88068 9.21136 8.40179 9.51321 8.17775C9.81507 7.95319 12.9919 0 15.2631 0Z" fill="#FFBD39"/>
<path d="M15.263 0.988281C17.3802 0.988281 20.1569 8.69444 20.4802 8.89551C20.8035 9.09709 28.7854 9.76033 29.4356 11.2848C30.0857 12.8097 23.9113 18.183 23.762 18.5585C23.6126 18.9335 25.2618 26.919 24.022 27.9457C22.7828 28.9725 15.6954 24.8165 15.263 24.8139C14.8306 24.8113 8.03002 28.9939 6.50352 27.9457C4.97701 26.8981 7.01688 19.1256 6.90616 18.7011C6.79597 18.277 0.401144 13.3037 1.08998 11.2853C1.77881 9.26629 9.90643 9.10492 10.1879 8.89602C10.4694 8.6866 13.1454 0.988804 15.2625 0.988804L15.263 0.988281Z" fill="#FFEB34"/>
<path d="M2.94479 11.6616C2.79752 10.226 7.5076 9.381 7.71545 11.061C7.92278 12.7406 3.14585 13.6179 2.94479 11.6616Z" fill="white"/>
<path d="M8.91959 10.5895C8.8846 9.66614 10.2926 9.60974 10.3657 10.3675C10.4471 11.2156 8.95197 11.4532 8.91959 10.5895Z" fill="white"/>
<g opacity="0.6">
<g opacity="0.6">
<path d="M10.8369 18.8277C10.8369 19.7615 10.0164 20.5193 9.00486 20.5193C7.99328 20.5193 7.17285 19.762 7.17285 18.8277C7.17285 17.8934 7.99328 17.1367 9.00486 17.1367C10.0164 17.1367 10.8369 17.894 10.8369 18.8277Z" fill="#FF5F82"/>
</g>
<g opacity="0.6">
<path d="M23.351 18.8277C23.351 19.7615 22.5311 20.5193 21.5195 20.5193C20.5079 20.5193 19.6875 19.762 19.6875 18.8277C19.6875 17.8934 20.5074 17.1367 21.5195 17.1367C22.5316 17.1367 23.351 17.894 23.351 18.8277Z" fill="#FF5F82"/>
</g>
</g>
<path opacity="0.5" d="M0.0578029 11.0469C0.554975 8.81279 9.21109 8.40178 9.51295 8.17774C9.8148 7.95318 12.9916 0 15.2628 0C17.534 0 20.6664 7.96206 21.0127 8.17774C21.3594 8.39395 29.7706 9.41127 30.4678 11.0469C30.7169 12.1807 29.1648 13.9182 28.722 14.4436C28.2786 14.9684 24.5508 14.9799 21.56 13.4419C18.5691 11.9044 12.9336 11.6282 9.8383 13.2847C6.74403 14.9413 3.39492 15.464 1.61826 14.4431C0.577438 13.0116 -0.140648 11.9373 0.0572802 11.0464L0.0578029 11.0469Z" fill="#00FF00"/>
<path d="M10.4294 12.7216C7.76385 12.9258 8.48716 17.2306 10.6283 17.1449C12.7706 17.0588 13.0943 12.5168 10.4294 12.7216Z" fill="#541300"/>
<path d="M11.0733 15.1229C10.4659 15.0691 10.2722 16.2175 10.961 16.3241C11.6493 16.4306 11.9371 15.1986 11.0733 15.1229Z" fill="white"/>
<path d="M20.085 12.7216C22.75 12.9258 22.0272 17.2306 19.8855 17.1449C17.7443 17.0588 17.42 12.5168 20.085 12.7216Z" fill="#541300"/>
<path d="M19.4429 15.1229C20.0508 15.0691 20.244 16.2175 19.5557 16.3241C18.8674 16.4306 18.5802 15.1986 19.4429 15.1229Z" fill="white"/>
<path d="M12.4401 9.29101C12.6903 10.0545 11.0995 12.2338 9.20955 11.5043C8.90404 11.3826 9.9715 11.0201 10.8922 10.4305C11.6562 9.9412 12.3743 9.09203 12.4396 9.29153L12.4401 9.29101Z" fill="#541300"/>
<path d="M18.0652 9.29101C17.815 10.0545 19.4705 12.2338 21.2958 11.5043C21.6013 11.3826 20.5338 11.0201 19.6131 10.4305C18.8491 9.9412 18.131 9.09203 18.0652 9.29153V9.29101Z" fill="#541300"/>
<path d="M18.4556 21.9618C18.3062 22.0746 16.8878 21.4244 15.2856 21.4249C13.6667 21.4259 12.2174 22.0761 12.0644 21.9618C11.7594 21.7341 12.6431 19.1406 15.259 19.1406C17.8749 19.1406 18.7569 21.7341 18.4561 21.9618H18.4556Z" fill="#872A2A"/>
</svg>
