<svg width="41" height="39" viewBox="0 0 41 39" fill="none" xmlns="http://www.w3.org/2000/svg">
<path d="M20.6525 0.265625C23.6487 0.265625 27.7786 10.7667 28.2367 11.0519C28.694 11.337 39.7868 12.6788 40.707 14.836C41.6272 16.9933 33.0919 24.7992 32.8804 25.3303C32.669 25.8613 34.8014 36.9589 33.0471 38.4122C31.2928 39.8642 21.2649 34.1845 20.6532 34.1817C20.0416 34.1783 10.4187 39.8952 8.25867 38.4122C6.09866 36.9293 8.58101 25.9309 8.42535 25.3303C8.26969 24.7296 -0.376548 17.6931 0.598073 14.836C1.57338 11.979 12.6703 11.3474 13.0684 11.0519C13.4665 10.7557 17.6564 0.265625 20.6525 0.265625Z" fill="#FFBD39"/>
<path d="M20.6522 1.57031C23.4452 1.57031 27.1067 11.7339 27.5331 11.9998C27.9595 12.2657 38.4867 13.1404 39.3443 15.1516C40.2018 17.1629 32.0584 24.2497 31.8614 24.7449C31.6644 25.2395 33.8395 35.7723 32.2044 37.1257C30.5692 38.4799 21.2225 32.9986 20.6515 32.9951C20.0812 32.9917 11.1119 38.5088 9.09932 37.1257C7.08603 35.744 9.77571 25.493 9.63037 24.933C9.48504 24.3737 1.05095 17.8145 1.96014 15.1516C2.86933 12.4888 13.5874 12.276 13.9593 11.9998C14.3306 11.7243 17.8599 1.57031 20.6522 1.57031Z" fill="#FFEB34"/>
<path d="M4.40384 15.6454C4.2103 13.7519 10.4217 12.6375 10.6958 14.8526C10.97 17.0684 4.66902 18.2249 4.40384 15.6454Z" fill="white"/>
<path d="M12.286 14.2335C12.2399 13.0158 14.0968 12.9414 14.1932 13.9408C14.3014 15.0594 12.3294 15.3727 12.286 14.2335Z" fill="white"/>
<g opacity="0.6">
<g opacity="0.6">
<path d="M14.3706 23.4217C14.3706 24.6532 13.2885 25.6526 11.9543 25.6526C10.6202 25.6526 9.53809 24.6532 9.53809 23.4217C9.53809 22.1901 10.6202 21.1914 11.9543 21.1914C13.2885 21.1914 14.3706 22.1901 14.3706 23.4217Z" fill="#FF5F82"/>
</g>
<g opacity="0.6">
<path d="M30.8764 23.4217C30.8764 24.6532 29.795 25.6526 28.4602 25.6526C27.1253 25.6526 26.0439 24.6532 26.0439 23.4217C26.0439 22.1901 27.1253 21.1914 28.4602 21.1914C29.795 21.1914 30.8764 22.1901 30.8764 23.4217Z" fill="#FF5F82"/>
</g>
</g>
<path d="M17.6673 9.97613C17.9972 10.9831 15.8992 13.8574 13.4072 12.8952C13.0043 12.7347 14.4121 12.2567 15.6265 11.479C16.6341 10.8337 17.5812 9.7137 17.668 9.97682L17.6673 9.97613Z" fill="#541300"/>
<path d="M23.8711 11.551C23.5411 12.558 25.7246 15.4323 28.1318 14.4701C28.5348 14.3096 27.1269 13.8316 25.9126 13.0533C24.9056 12.4079 23.9578 11.2879 23.8717 11.551H23.8711Z" fill="#541300"/>
<path d="M24.0436 26.6003C23.7185 26.9419 22.3767 26.2849 20.6734 26.2862C18.9528 26.2876 17.5732 26.9399 17.2488 26.6003C16.9244 26.2607 17.8639 23.3672 20.6451 23.3672C23.4264 23.3672 24.3687 26.258 24.0436 26.6003Z" fill="#872A2A"/>
<path d="M14.7635 16.4512C18.3465 16.682 17.3746 20.3153 14.4955 20.2189C11.6164 20.1224 11.1811 16.2205 14.7635 16.4512Z" fill="#541300"/>
<path d="M16.0206 16.7338C14.05 15.8267 11.1482 17.1161 10.7645 18.4055C10.6894 19.0578 12.9507 18.028 14.1643 17.8779" fill="#541300"/>
<path d="M15.9511 18.4076C16.7095 18.7375 16.3355 20.4705 15.5158 20.1681C14.6404 19.8465 15.2396 18.0983 15.9511 18.4076Z" fill="white"/>
<path d="M26.5311 16.4512C22.948 16.682 23.9199 20.3153 26.799 20.2189C29.6781 20.1224 30.1134 16.2205 26.5311 16.4512Z" fill="#541300"/>
<path d="M25.2744 16.7338C27.1506 15.8267 30.1461 17.1161 30.5305 18.4055C30.6056 19.0578 28.3443 18.028 27.1307 17.8779" fill="#541300"/>
<path d="M25.3443 18.4076C24.5859 18.7375 24.9599 20.4705 25.7796 20.1681C26.655 19.8465 26.0558 18.0983 25.3443 18.4076Z" fill="white"/>
</svg>
