<svg width="51" height="48" viewBox="0 0 51 48" fill="none" xmlns="http://www.w3.org/2000/svg">
<path d="M25.5092 0C29.1904 0 34.2645 12.902 34.8273 13.2523C35.3892 13.6027 49.0181 15.2512 50.1487 17.9016C51.2793 20.5521 40.7925 30.1419 40.5327 30.7943C40.2729 31.4468 42.8929 45.0825 40.7375 46.8664C38.5821 48.6503 26.2615 41.6729 25.51 41.6687C24.7585 41.6653 12.9355 48.6884 10.2817 46.8664C7.62781 45.0444 10.6777 31.5314 10.4865 30.7943C10.2952 30.0564 -0.326975 21.4111 0.870474 17.9016C2.06877 14.3914 15.7028 13.6154 16.1919 13.2523C16.6802 12.8893 21.8271 0 25.5092 0Z" fill="#FFBD39"/>
<path d="M25.5086 1.60156C28.9393 1.60156 33.4388 14.0889 33.9626 14.4155C34.4865 14.7422 47.4198 15.8169 48.4742 18.2871C49.5278 20.7582 39.5225 29.4662 39.2805 30.0738C39.0385 30.6814 41.7109 43.6223 39.7019 45.2852C37.6929 46.9489 26.2084 40.2136 25.5086 40.2102C24.8079 40.206 13.788 46.9836 11.3144 45.2852C8.84161 43.5876 12.1454 30.992 11.9668 30.3048C11.7883 29.6176 1.42589 21.5596 2.54209 18.288C3.65915 15.0164 16.8285 14.7549 17.2847 14.4164C17.74 14.077 22.0762 1.60241 25.5077 1.60241L25.5086 1.60156Z" fill="#FFEB34"/>
<path d="M5.54552 18.8953C5.30688 16.569 12.9392 15.1997 13.276 17.9221C13.6129 20.6437 5.87133 22.0654 5.54552 18.8953Z" fill="white"/>
<path d="M15.2306 17.1615C15.173 15.6653 17.4554 15.5739 17.5738 16.8018C17.7067 18.1762 15.2839 18.5612 15.2306 17.1615Z" fill="white"/>
<g opacity="0.6">
<g opacity="0.6">
<path d="M18.6317 29.6464C18.6317 31.1604 17.303 32.3874 15.663 32.3874C14.023 32.3874 12.6943 31.1604 12.6943 29.6464C12.6943 28.1325 14.023 26.9062 15.663 26.9062C17.303 26.9062 18.6317 28.1333 18.6317 29.6464Z" fill="#FF5F82"/>
</g>
<g opacity="0.6">
<path d="M38.9119 29.6464C38.9119 31.1604 37.5825 32.3874 35.9433 32.3874C34.3041 32.3874 32.9746 31.1604 32.9746 29.6464C32.9746 28.1325 34.3041 26.9062 35.9433 26.9062C37.5825 26.9062 38.9119 28.1333 38.9119 29.6464Z" fill="#FF5F82"/>
</g>
</g>
<path d="M29.3205 32.4051C29.9493 31.3464 29.0404 30.5289 28.4438 31.5123C27.2861 33.4189 24.21 33.2598 23.0354 31.5123C22.4033 30.5712 21.59 31.2863 22.1595 32.4051C23.5059 35.0521 27.5663 35.3602 29.3205 32.4051Z" fill="#872A2A"/>
<path d="M18.5215 18.3875C18.8482 17.4964 16.9179 16.3421 14.6186 17.0614C13.0641 17.548 11.7524 19.656 12.1823 20.0554C12.6122 20.4557 13.0624 18.7522 15.0832 18.1928C16.818 17.7122 18.3811 18.7725 18.5215 18.3875Z" fill="#541300"/>
<path d="M32.4893 18.3875C32.1627 17.4964 34.093 16.3421 36.3923 17.0614C37.9468 17.548 39.2594 19.656 38.8295 20.0554C38.3996 20.4557 37.9494 18.7522 35.9277 18.1928C34.1937 17.7122 32.6298 18.7725 32.4893 18.3875Z" fill="#541300"/>
<path d="M13.8187 26.938C13.0596 26.2957 14.1885 23.7383 17.2113 23.7383C20.2341 23.7383 21.3046 26.2542 20.6767 26.938C20.1343 27.5295 19.4683 25.6999 17.2849 25.6999C15.1016 25.6999 14.461 27.4804 13.8187 26.938Z" fill="#541300"/>
<path d="M30.5598 26.938C29.8007 26.2957 30.9305 23.7383 33.9525 23.7383C36.9744 23.7383 38.0458 26.2542 37.4187 26.938C36.8754 27.5295 36.2103 25.6999 34.0269 25.6999C31.8436 25.6999 31.203 27.4804 30.5607 26.938H30.5598Z" fill="#541300"/>
</svg>
