<svg width="50" height="39" viewBox="0 0 50 39" fill="none" xmlns="http://www.w3.org/2000/svg">
<path d="M20.3659 0C23.3621 0 27.492 10.5011 27.9494 10.7856C28.4067 11.0707 39.4995 12.4125 40.4197 14.5697C41.3399 16.727 32.8046 24.5329 32.5924 25.0633C32.381 25.5943 34.5141 36.6919 32.7591 38.1452C31.0048 39.5979 20.9769 33.9182 20.3645 33.9148C19.7529 33.9113 10.13 39.6282 7.97068 38.1452C5.81067 36.6623 8.29302 25.6639 8.13667 25.0633C7.98101 24.4627 -0.665218 17.4261 0.310092 14.5697C1.2854 11.7127 12.3823 11.0811 12.7804 10.7856C13.1785 10.4901 17.3684 0 20.3645 0H20.3659Z" fill="#FFBD39"/>
<path d="M20.3661 1.30469C23.1584 1.30469 26.8206 11.4683 27.247 11.7342C27.6733 12 38.1999 12.8748 39.0581 14.8853C39.9157 16.8966 31.7722 23.9834 31.5752 24.4786C31.3776 24.9732 33.5534 35.5053 31.9183 36.8594C30.2831 38.2136 20.9364 32.7323 20.3661 32.7288C19.7965 32.7254 10.8265 38.2418 8.81389 36.8594C6.80059 35.4777 9.49027 25.2266 9.34493 24.6667C9.1996 24.1074 0.764816 17.5488 1.674 14.886C2.58319 12.2232 13.302 12.0104 13.6732 11.7349C14.0445 11.4587 17.5731 1.30538 20.3661 1.30538V1.30469Z" fill="#FFEB34"/>
<path d="M4.11774 15.3798C3.92351 13.4863 10.1356 12.3719 10.4097 14.587C10.6839 16.8021 4.38292 17.9593 4.11774 15.3798Z" fill="white"/>
<path d="M11.9999 13.964C11.9531 12.7462 13.81 12.6718 13.9064 13.6712C14.0146 14.7898 12.0426 15.1032 11.9999 13.964Z" fill="white"/>
<g opacity="0.6">
<g opacity="0.6">
<path d="M14.769 23.0428C14.769 24.2743 13.6869 25.2737 12.3528 25.2737C11.0186 25.2737 9.93652 24.275 9.93652 23.0428C9.93652 21.8105 11.0186 20.8125 12.3528 20.8125C13.6869 20.8125 14.769 21.8112 14.769 23.0428Z" fill="#FF5F82"/>
</g>
<g opacity="0.6">
<path d="M30.7885 23.0428C30.7885 24.2743 29.7065 25.2737 28.3723 25.2737C27.0381 25.2737 25.9561 24.275 25.9561 23.0428C25.9561 21.8105 27.0381 20.8125 28.3723 20.8125C29.7065 20.8125 30.7885 21.8112 30.7885 23.0428Z" fill="#FF5F82"/>
</g>
</g>
<path d="M24.6922 19.0605C24.0385 18.5074 25.011 16.8516 27.6119 16.8516C30.2127 16.8516 31.1357 18.4709 30.595 19.0605C30.128 19.5702 29.5549 18.2835 27.6759 18.2835C25.7969 18.2835 25.2452 19.5268 24.6928 19.0605H24.6922Z" fill="#541300"/>
<path d="M13.5896 14.8662C10.114 15.09 11.0569 20.2028 13.8499 20.1098C16.6422 20.0162 17.0651 14.6423 13.5896 14.8662Z" fill="#541300"/>
<path d="M19.6403 20.931C19.8408 20.3586 23.8715 21.232 23.7303 22.3155C23.5898 23.3989 21.9836 23.5105 22.0538 23.9334C22.1248 24.3563 23.7971 24.3625 23.7303 25.4446C23.6662 26.4839 19.993 27.4193 19.7808 27.0253C19.495 26.4929 21.9436 26.1031 21.967 25.6085C21.9932 25.0602 20.2781 24.5478 20.2058 23.8204C20.1328 23.0931 22.0614 22.6227 22.0139 22.2473C21.967 21.8712 19.475 21.4014 19.6396 20.931H19.6403Z" fill="#872A2A"/>
<path d="M14.7956 17.2679C14.0565 17.2024 13.8216 18.5993 14.6585 18.7287C15.496 18.8589 15.8452 17.3601 14.7956 17.2679Z" fill="white"/>
<path d="M30.7015 22.8092C27.0661 15.8657 22.4493 22.6529 27.8472 28.7844C35.6469 28.9573 38.6273 22.2562 30.7015 22.8092Z" fill="#F94661"/>
<path d="M38.529 19.8154C32.8191 18.3407 34.2779 24.342 40.4239 24.4233C44.4566 20.1563 42.2202 15.1124 38.529 19.8154Z" fill="#F94661"/>
<path d="M47.2622 25.1705C45.4025 21.5544 43.0407 25.32 45.8027 28.4519C49.7928 28.323 51.3163 24.6505 47.2622 25.1705Z" fill="#F94661"/>
</svg>
