<svg width="32" height="31" viewBox="0 0 32 31" fill="none" xmlns="http://www.w3.org/2000/svg">
<path opacity="0.1" d="M16.0488 30.7948C21.3235 30.7948 25.5995 30.0555 25.5995 29.1435C25.5995 28.2315 21.3235 27.4922 16.0488 27.4922C10.774 27.4922 6.49805 28.2315 6.49805 29.1435C6.49805 30.0555 10.774 30.7948 16.0488 30.7948Z" fill="black"/>
<path d="M15.914 0C18.1857 0 21.3171 7.96206 21.6638 8.17775C22.0106 8.39396 30.4213 9.41127 31.119 11.0469C31.8167 12.6831 25.3451 18.6011 25.1848 19.0038C25.0244 19.4064 26.6413 27.8207 25.3112 28.9221C23.981 30.023 16.3777 25.7171 15.914 25.7145C15.4502 25.7119 8.15403 30.046 6.51681 28.9221C4.87907 27.7978 6.76122 19.4586 6.64319 19.0038C6.52464 18.5484 -0.030503 13.2132 0.708465 11.0469C1.44796 8.88068 9.86175 8.40179 10.1636 8.17775C10.4655 7.95319 13.6417 0 15.914 0Z" fill="#FFBD39"/>
<path d="M15.9144 0.988281C18.0316 0.988281 20.8083 8.69444 21.1316 8.89602C21.4548 9.09761 29.4362 9.76085 30.0869 11.2858C30.7371 12.8107 24.5627 18.184 24.4133 18.559C24.2634 18.934 25.9132 26.9201 24.6734 27.9463C23.4341 28.973 16.3468 24.8165 15.9144 24.8144C15.482 24.8118 8.68139 28.9944 7.1554 27.9463C5.6289 26.8987 7.66824 19.1262 7.55805 18.7016C7.44786 18.2775 1.05304 13.3048 1.7424 11.2858C2.43175 9.26681 10.5588 9.10544 10.8403 8.89602C11.1218 8.68713 13.7978 0.988281 15.9149 0.988281H15.9144Z" fill="#FFEB34"/>
<path d="M3.59516 11.6617C3.44841 10.2261 8.15796 9.38112 8.36581 11.0606C8.57314 12.7402 3.79622 13.6175 3.59516 11.6617Z" fill="white"/>
<path d="M9.57097 10.5895C9.53546 9.66614 10.9439 9.60974 11.0171 10.3675C11.099 11.2156 9.60387 11.4532 9.57097 10.5895Z" fill="white"/>
<g opacity="0.6">
<g opacity="0.6">
<path d="M11.6709 18.2887C11.6709 19.223 10.8504 19.9802 9.83885 19.9802C8.82727 19.9802 8.00684 19.223 8.00684 18.2887C8.00684 17.3544 8.82675 16.5977 9.83885 16.5977C10.851 16.5977 11.6709 17.3549 11.6709 18.2887Z" fill="#FF5F82"/>
</g>
<g opacity="0.6">
<path d="M24.1845 18.2887C24.1845 19.223 23.3646 19.9802 22.3525 19.9802C21.3404 19.9802 20.5205 19.223 20.5205 18.2887C20.5205 17.3544 21.3409 16.5977 22.3525 16.5977C23.3641 16.5977 24.1845 17.3549 24.1845 18.2887Z" fill="#FF5F82"/>
</g>
</g>
<path d="M18.9633 19.3774C19.4693 18.7497 18.7376 18.265 18.2572 18.8478C17.5297 19.7299 14.6433 19.6599 13.9022 18.8478C13.3925 18.2901 12.7376 18.7141 13.1962 19.3774C14.1049 20.6919 17.7266 20.9117 18.9633 19.3774Z" fill="#872A2A"/>
<path d="M5.69963 11.2161C4.69746 12.0177 5.55132 15.8823 6.44017 16.4379C7.32902 16.9931 13.1802 17.0307 13.9207 16.5116C14.6618 15.993 15.1433 12.1791 14.2915 11.5305C13.4397 10.8824 6.81044 10.3272 5.69963 11.2155V11.2161Z" fill="#0F4E82"/>
<path d="M26.7699 11.2161C27.7715 12.0177 26.9177 15.8823 26.0288 16.4379C25.14 16.9931 19.2893 17.0307 18.5483 16.5116C17.8077 15.993 17.3262 12.1791 18.178 11.5305C19.0298 10.8824 25.6586 10.3272 26.7699 11.2155V11.2161Z" fill="#0F4E82"/>
<path d="M18.3652 12.2656H14.0703V13.3487H18.3652V12.2656Z" fill="#0F4E82"/>
<path d="M6.76294 11.8351C5.92056 11.9881 5.95503 13.243 6.96974 13.243C8.29258 13.243 8.16619 11.5807 6.76294 11.8351Z" fill="#4BD0EF"/>
<path d="M19.2805 12.0227C18.4381 12.1757 18.4726 13.4301 19.4873 13.4301C20.8102 13.4301 20.6838 11.7678 19.2805 12.0227Z" fill="#4BD0EF"/>
</svg>
