<svg width="24" height="24" viewBox="0 0 24 24" fill="none" xmlns="http://www.w3.org/2000/svg">
<path d="M11.9993 4C12.4986 4 12.9592 4.26786 13.2123 4.70714L20.8066 17.85C21.0633 18.2929 21.0633 18.8393 20.8137 19.2821C20.564 19.725 20.0964 20 19.5936 20H4.40505C3.90228 20 3.43467 19.725 3.18504 19.2821C2.93542 18.8393 2.93893 18.2893 3.19208 17.85L10.7864 4.70714C11.0395 4.26786 11.5001 4 11.9993 4ZM11.9993 8.57143C11.5317 8.57143 11.1555 8.95357 11.1555 9.42857V13.4286C11.1555 13.9036 11.5317 14.2857 11.9993 14.2857C12.467 14.2857 12.8432 13.9036 12.8432 13.4286V9.42857C12.8432 8.95357 12.467 8.57143 11.9993 8.57143ZM13.1244 16.5714C13.1244 16.2683 13.0059 15.9776 12.7949 15.7633C12.5839 15.549 12.2977 15.4286 11.9993 15.4286C11.701 15.4286 11.4148 15.549 11.2038 15.7633C10.9928 15.9776 10.8743 16.2683 10.8743 16.5714C10.8743 16.8745 10.9928 17.1652 11.2038 17.3796C11.4148 17.5939 11.701 17.7143 11.9993 17.7143C12.2977 17.7143 12.5839 17.5939 12.7949 17.3796C13.0059 17.1652 13.1244 16.8745 13.1244 16.5714Z" fill="url(#paint0_linear_1128_9378)"/>
<defs>
<linearGradient id="paint0_linear_1128_9378" x1="12" y1="4" x2="12" y2="20" gradientUnits="userSpaceOnUse">
<stop stop-color="#FF1759"/>
<stop offset="1" stop-color="#BF0036"/>
</linearGradient>
</defs>
</svg>
