<svg width="30" height="30" viewBox="0 0 30 30" fill="none" xmlns="http://www.w3.org/2000/svg">
<rect x="0.5" y="0.5" width="29" height="29" rx="14.5" fill="#171717"/>
<rect x="0.5" y="0.5" width="29" height="29" rx="14.5" stroke="#323232"/>
<path d="M20.7489 15.5883C21.0837 15.2629 21.0837 14.7345 20.7489 14.4091L16.4629 10.244C16.1281 9.91865 15.5843 9.91865 15.2495 10.244C14.9146 10.5694 14.9146 11.0979 15.2495 11.4233L18.0755 14.167H9.85719C9.38306 14.167 9 14.5392 9 15C9 15.4608 9.38306 15.833 9.85719 15.833H18.0728L15.2521 18.5767C14.9173 18.9021 14.9173 19.4306 15.2521 19.756C15.587 20.0813 16.1308 20.0813 16.4656 19.756L20.7515 15.5909L20.7489 15.5883Z" fill="white"/>
</svg>
