<svg width="24" height="24" viewBox="0 0 24 24" fill="none" xmlns="http://www.w3.org/2000/svg">
<path d="M12 6C13.1839 6 14.1429 7.11875 14.1429 8.5V10H9.85714V8.5C9.85714 7.11875 10.8161 6 12 6ZM8.14286 8.5V10H7.71429C6.76875 10 6 10.8969 6 12V18C6 19.1031 6.76875 20 7.71429 20H16.2857C17.2312 20 18 19.1031 18 18V12C18 10.8969 17.2312 10 16.2857 10H15.8571V8.5C15.8571 6.01562 14.1295 4 12 4C9.87054 4 8.14286 6.01562 8.14286 8.5ZM12.8571 14V16C12.8571 16.5531 12.4741 17 12 17C11.5259 17 11.1429 16.5531 11.1429 16V14C11.1429 13.4469 11.5259 13 12 13C12.4741 13 12.8571 13.4469 12.8571 14Z" fill="white"/>
</svg>
