<svg width="28" height="28" viewBox="0 0 28 28" fill="none" xmlns="http://www.w3.org/2000/svg">
<g filter="url(#filter0_b_3732_4071)">
<path d="M24 14C24 19.5228 19.5228 24 14 24C8.47715 24 4 19.5228 4 14C4 8.47715 8.47715 4 14 4C19.5228 4 24 8.47715 24 14ZM7 14C7 17.866 10.134 21 14 21C17.866 21 21 17.866 21 14C21 10.134 17.866 7 14 7C10.134 7 7 10.134 7 14Z" fill="url(#paint0_linear_3732_4071)"/>
<circle cx="14" cy="14" r="5" fill="url(#paint1_linear_3732_4071)"/>
</g>
<defs>
<filter id="filter0_b_3732_4071" x="-10" y="-10" width="48" height="48" filterUnits="userSpaceOnUse" color-interpolation-filters="sRGB">
<feFlood flood-opacity="0" result="BackgroundImageFix"/>
<feGaussianBlur in="BackgroundImageFix" stdDeviation="5"/>
<feComposite in2="SourceAlpha" operator="in" result="effect1_backgroundBlur_3732_4071"/>
<feBlend mode="normal" in="SourceGraphic" in2="effect1_backgroundBlur_3732_4071" result="shape"/>
</filter>
<linearGradient id="paint0_linear_3732_4071" x1="14" y1="4" x2="14" y2="24" gradientUnits="userSpaceOnUse">
<stop stop-color="#FF1759"/>
<stop offset="1" stop-color="#BF0036"/>
</linearGradient>
<linearGradient id="paint1_linear_3732_4071" x1="14" y1="9" x2="14" y2="19" gradientUnits="userSpaceOnUse">
<stop stop-color="#FF1759"/>
<stop offset="1" stop-color="#BF0036"/>
</linearGradient>
</defs>
</svg>
