<svg width="24" height="24" viewBox="0 0 24 24" fill="none" xmlns="http://www.w3.org/2000/svg">
<path d="M15.75 7.80621C15.75 9.53804 13.4656 12.6242 12.4625 13.8962C12.2219 14.2007 11.775 14.2007 11.5375 13.8962C10.5344 12.6242 8.25 9.53804 8.25 7.80621C8.25 5.70328 9.92812 4 12 4C14.0719 4 15.75 5.70328 15.75 7.80621ZM16 10.3564C16.1094 10.1375 16.2094 9.91866 16.3 9.70298C16.3156 9.66492 16.3313 9.62368 16.3469 9.58562L19.9719 8.11388C20.4656 7.91406 21 8.28199 21 8.8212V17.4106C21 17.7214 20.8125 18.0005 20.5281 18.1179L16 19.9544V10.3564ZM7.3 8.38666C7.375 8.83389 7.525 9.28429 7.7 9.70298C7.79062 9.91866 7.89062 10.1375 8 10.3564V18.3304L4.02813 19.9449C3.53438 20.1447 3 19.7768 3 19.2375V10.6482C3 10.3373 3.1875 10.0582 3.47188 9.94087L7.30312 8.38666H7.3ZM13.2437 14.5305C13.6781 13.9786 14.3594 13.081 15 12.0882V19.9956L9 18.2543V12.0882C9.64062 13.081 10.3219 13.9786 10.7562 14.5305C11.3969 15.3425 12.6031 15.3425 13.2437 14.5305ZM12 8.8212C12.3315 8.8212 12.6495 8.68753 12.8839 8.4496C13.1183 8.21166 13.25 7.88896 13.25 7.55247C13.25 7.21598 13.1183 6.89327 12.8839 6.65533C12.6495 6.4174 12.3315 6.28373 12 6.28373C11.6685 6.28373 11.3505 6.4174 11.1161 6.65533C10.8817 6.89327 10.75 7.21598 10.75 7.55247C10.75 7.88896 10.8817 8.21166 11.1161 8.4496C11.3505 8.68753 11.6685 8.8212 12 8.8212Z" fill="white"/>
</svg>
