<svg width="24" height="24" viewBox="0 0 24 24" fill="none" xmlns="http://www.w3.org/2000/svg">
<path d="M13.125 11.429H9.75C7.42266 11.429 5.46094 13.0253 4.87031 15.1966C4.7543 14.7538 4.6875 14.261 4.6875 13.7146C4.6875 11.1897 6.70195 9.14335 9.1875 9.14335H13.125H13.9688C14.4363 9.14335 14.8125 8.76122 14.8125 8.28624V7.42914V6.42561L19.0348 10.2862L14.8125 14.1467V13.1432V12.2861C14.8125 11.8111 14.4363 11.429 13.9688 11.429H13.125ZM13.125 13.1432V14.8574V15.4288C13.125 15.8788 13.3852 16.2895 13.793 16.4716C14.2008 16.6537 14.6719 16.5787 15.0023 16.2787L20.6273 11.1361C20.8629 10.9183 21 10.6111 21 10.2862C21 9.96117 20.8664 9.65404 20.6273 9.43619L15.0023 4.29356C14.6719 3.99001 14.1973 3.91501 13.793 4.10071C13.3887 4.28642 13.125 4.69355 13.125 5.14353V5.71493V7.42914H11.4375H9.1875C5.77031 7.42914 3 10.2433 3 13.7146C3 16.5002 4.35703 18.2215 5.41523 19.1465C5.55937 19.2715 5.7 19.3822 5.82656 19.4786C5.93906 19.5643 6.04453 19.6357 6.13945 19.7C6.29766 19.8072 6.43125 19.8821 6.51914 19.9321C6.60703 19.9821 6.70547 20 6.80391 20C7.18711 20 7.49648 19.6822 7.49648 19.2965C7.49648 19.0536 7.36992 18.8251 7.20469 18.6501C7.18711 18.6322 7.17305 18.6179 7.15547 18.6001C7.07109 18.5179 6.97617 18.4179 6.88477 18.2929C6.825 18.2108 6.76523 18.1144 6.70898 18.0108C6.52266 17.6644 6.375 17.193 6.375 16.5752C6.375 14.6824 7.88672 13.1467 9.75 13.1467H11.4375H13.125V13.1432Z" fill="white"/>
</svg>
