<svg width="44" height="44" viewBox="0 0 44 44" fill="none" xmlns="http://www.w3.org/2000/svg">
<path d="M14.3301 23.9336L12.3965 27.8244L14.3301 31.668H33.666L35.5996 27.8244L33.666 23.9336H14.3301ZM33.666 16.1992H28.7357C28.2863 13.9956 26.332 12.332 23.998 12.332C21.3318 12.332 19.1641 14.5007 19.1641 17.166C19.1641 19.8002 21.2808 21.949 23.93 21.999C23.9433 22 23.9584 22 23.9716 22H35.5996C36.1321 22 36.5664 22.4334 36.5664 22.9668V24.9004C36.5664 25.4348 36.9988 25.8672 37.5332 25.8672C38.0676 25.8672 38.5 25.4348 38.5 24.9004C38.5 24.6968 38.5 21.2176 38.5 21.0332C38.5 18.3679 36.3322 16.1992 33.666 16.1992Z" fill="url(#paint0_linear_17_1106)"/>
<path d="M5.5 24.9004V30.7012C5.5 31.2425 5.92533 31.668 6.4668 31.668H14.3301V23.9336H6.4668C5.92533 23.9336 5.5 24.3589 5.5 24.9004ZM37.5332 23.9336H33.666V31.668H37.5332C38.0747 31.668 38.5 31.2425 38.5 30.7012V24.9004C38.5 24.3589 38.0747 23.9336 37.5332 23.9336Z" fill="url(#paint1_linear_17_1106)"/>
<defs>
<linearGradient id="paint0_linear_17_1106" x1="25.4482" y1="31.668" x2="25.4482" y2="12.332" gradientUnits="userSpaceOnUse">
<stop stop-color="#FD3A84"/>
<stop offset="1" stop-color="#FFA68D"/>
</linearGradient>
<linearGradient id="paint1_linear_17_1106" x1="22" y1="31.668" x2="22" y2="23.9336" gradientUnits="userSpaceOnUse">
<stop stop-color="#FFC2CC"/>
<stop offset="1" stop-color="#FFF2F4"/>
</linearGradient>
</defs>
</svg>
