<svg width="24" height="24" viewBox="0 0 24 24" fill="none" xmlns="http://www.w3.org/2000/svg">
<path d="M20.2399 17.8564C20.2399 18.2469 19.9221 18.5647 19.5316 18.5647C19.141 18.5647 18.8232 18.2469 18.8232 17.8564V16.3737C18.8232 15.38 18.0148 14.5716 17.0211 14.5716C16.0275 14.5716 15.2191 15.38 15.2191 16.3737V19.5299C15.2191 19.9205 14.9013 20.2383 14.5107 20.2383C14.1202 20.2383 13.8024 19.9205 13.8024 19.5299V13.1341C13.8024 12.1405 12.994 11.332 12.0003 11.332C11.0067 11.332 10.1982 12.1405 10.1982 13.1341V19.5299C10.1982 19.9205 9.88046 20.2383 9.48988 20.2383C9.0993 20.2383 8.78157 19.9205 8.78157 19.5299V14.5508C8.78157 13.5571 7.97314 12.7487 6.97947 12.7487C5.98579 12.7487 5.1774 13.5571 5.1774 14.5508V17.8564C5.1774 18.2469 4.85967 18.5647 4.46909 18.5647C4.07851 18.5647 3.76074 18.2469 3.76074 17.8564V14.8737H2.66699V17.8564C2.66699 18.85 3.47542 19.6585 4.46909 19.6585C5.46276 19.6585 6.27115 18.85 6.27115 17.8564V14.5508C6.27115 14.1602 6.58892 13.8424 6.9795 13.8424C7.37008 13.8424 7.68785 14.1602 7.68785 14.5508V19.5299C7.68785 20.5236 8.49628 21.332 9.48995 21.332C10.4836 21.332 11.292 20.5237 11.292 19.5299V13.1341C11.292 12.7436 11.6098 12.4258 12.0004 12.4258C12.3909 12.4258 12.7087 12.7436 12.7087 13.1341V19.5299C12.7087 20.5236 13.5171 21.332 14.5108 21.332C15.5044 21.332 16.3129 20.5237 16.3129 19.5299V16.3737C16.3129 15.9831 16.6306 15.6654 17.0212 15.6654C17.4118 15.6654 17.7295 15.9831 17.7295 16.3737V17.8564C17.7295 18.85 18.538 19.6585 19.5316 19.6585C20.5253 19.6585 21.3337 18.85 21.3337 17.8564V16.332H20.2399V17.8564Z" fill="#1CA0FF"/>
<path d="M9.75521 10.7341C10.5593 10.7341 11.2135 10.0802 11.2135 9.27657V4.96541L14.4948 4.0899V7.13657C14.3782 7.10646 14.2561 7.09045 14.1302 7.09045C13.3261 7.09045 12.6719 7.7443 12.6719 8.54798C12.6719 9.35167 13.3261 10.0055 14.1302 10.0055C14.9343 10.0055 15.5885 9.35163 15.5885 8.54798V2.66602L10.1198 4.12522V7.86516C10.0032 7.83504 9.88106 7.81904 9.75521 7.81904C8.95108 7.81904 8.29688 8.47288 8.29688 9.27657C8.29688 10.0803 8.95108 10.7341 9.75521 10.7341Z" fill="#FCC153"/>
<path d="M18.6742 13.5054C19.4783 13.5054 20.1325 12.8511 20.1325 12.0469V8.46142L21.3334 8.14069L21.0512 7.08398L19.0387 7.62142V10.6347C18.9222 10.6045 18.8 10.5885 18.6742 10.5885C17.87 10.5885 17.2158 11.2427 17.2158 12.0469C17.2158 12.8511 17.87 13.5054 18.6742 13.5054Z" fill="#FCC153"/>
<path d="M4.12533 12.271C4.92945 12.271 5.58366 11.6167 5.58366 10.8125V7.22701L6.78452 6.90632L6.50234 5.84961L4.48991 6.38697V9.40021C4.37335 9.3701 4.25118 9.35406 4.12533 9.35406C3.3212 9.35406 2.66699 10.0083 2.66699 10.8125C2.66699 11.6167 3.3212 12.271 4.12533 12.271Z" fill="#FCC153"/>
</svg>
