<svg width="44" height="44" viewBox="0 0 44 44" fill="none" xmlns="http://www.w3.org/2000/svg">
<mask id="mask0_17_1119" style="mask-type:luminance" maskUnits="userSpaceOnUse" x="9" y="9" width="26" height="26">
<path d="M9.625 9.625H34.375V34.375H9.625V9.625Z" fill="white"/>
</mask>
<g mask="url(#mask0_17_1119)">
<path d="M29.985 28.2339L26.0343 27.246L25.6981 25.9012C26.7551 24.8545 27.479 23.4169 27.6935 21.9423C28.2793 21.7773 28.733 21.275 28.8114 20.6449L29.0692 18.5824C29.1239 18.1473 28.9898 17.7069 28.7011 17.3769C28.5319 17.183 28.3185 17.0366 28.0823 16.9469L28.1772 15.005L28.5629 14.6183C29.1435 14.0006 29.6251 12.9415 28.6186 11.4049C27.8451 10.2242 26.5313 9.625 24.7122 9.625C23.9944 9.625 22.3424 9.625 20.8038 10.6583C16.4106 10.7501 15.8125 12.7909 15.8125 14.7812C15.8125 15.2443 15.9249 16.2869 15.9992 16.9159C15.7341 16.9995 15.4928 17.1542 15.3051 17.3666C15.0122 17.6997 14.8751 18.1421 14.9308 18.5824L15.1886 20.6449C15.2732 21.3173 15.7836 21.8463 16.4292 21.9722C16.6427 23.3901 17.3295 24.7813 18.3257 25.8105L17.9668 27.247L14.0161 28.2349C11.4297 28.8805 9.625 31.1926 9.625 33.8594C9.625 34.144 9.856 34.375 10.1406 34.375H33.8594C34.144 34.375 34.375 34.1419 34.375 33.8573C34.375 31.1926 32.5703 28.8805 29.985 28.2339Z" fill="url(#paint0_linear_17_1119)"/>
</g>
<defs>
<linearGradient id="paint0_linear_17_1119" x1="22" y1="9.625" x2="22" y2="34.375" gradientUnits="userSpaceOnUse">
<stop stop-color="#003AFF"/>
<stop offset="1" stop-color="#90A8F9"/>
</linearGradient>
</defs>
</svg>
