<svg width="22" height="18" viewBox="0 0 22 18" fill="none" xmlns="http://www.w3.org/2000/svg">
<path fill-rule="evenodd" clip-rule="evenodd" d="M11.2734 0.235102C9.56775 0.178302 7.84455 0.643635 6.35682 1.6367C4.68589 2.75324 3.51815 4.40203 2.98029 6.24523C2.83175 6.2271 2.65389 6.2351 2.44269 6.29484C1.65415 6.51857 1.06109 7.1647 0.794419 7.73377C0.448553 8.47537 0.302686 9.45617 0.456553 10.4687C0.609353 11.478 1.03575 12.31 1.56909 12.8266C2.10402 13.3434 2.70802 13.5114 3.30802 13.3852C4.20135 13.1946 4.64429 13.0519 4.51922 12.2196L3.91362 8.18524C4.03575 6.00177 5.16615 3.9463 7.05682 2.6823C9.58749 0.991902 12.9054 1.10017 15.3192 2.95324C16.9984 4.2407 17.9734 6.16977 18.0859 8.19484L17.6624 11.017C16.7179 13.6018 14.3763 15.3922 11.6667 15.6463H9.86242C9.39682 15.6463 9.02189 16.0212 9.02189 16.4863V16.9295C9.02189 17.3948 9.39682 17.7698 9.86242 17.7698H12.1374C12.6027 17.7698 12.976 17.3948 12.976 16.9295V16.6978C15.0192 16.1991 16.8027 14.9434 17.964 13.1922L18.6928 13.3855C19.2859 13.5394 19.8971 13.3434 20.4318 12.8268C20.9651 12.31 21.3912 11.4783 21.5443 10.469C21.6987 9.45644 21.5486 8.47723 21.2067 7.73404C20.8635 6.99084 20.3523 6.51884 19.7622 6.3495C19.515 6.2783 19.2467 6.25217 19.0166 6.24523C18.5302 4.57857 17.5288 3.06284 16.0856 1.95617C14.6667 0.867369 12.979 0.291102 11.2734 0.235102Z" fill="white"/>
<path fill-rule="evenodd" clip-rule="evenodd" d="M13.9355 7.49179C14.5368 7.49179 15.0243 7.97926 15.0256 8.58219C15.0243 9.18353 14.5368 9.67233 13.9355 9.67233C13.3325 9.67233 12.8437 9.18353 12.8437 8.58219C12.8437 7.97953 13.3328 7.49179 13.9355 7.49179ZM10.9995 7.49179C11.6021 7.49179 12.0896 7.97926 12.0896 8.58219C12.0896 9.18353 11.6021 9.67233 10.9995 9.67233C10.3963 9.67233 9.90879 9.18353 9.90879 8.58219C9.90879 7.97953 10.3963 7.49179 10.9995 7.49179ZM8.06452 7.49179C8.66585 7.49179 9.15465 7.97926 9.15465 8.58219C9.15465 9.18353 8.66585 9.67233 8.06452 9.67233C7.46185 9.67233 6.97412 9.18353 6.97412 8.58219C6.97412 7.97953 7.46185 7.49179 8.06452 7.49179ZM10.9995 2.80859C7.80212 2.80859 5.22559 5.30033 5.22559 8.58219C5.22559 10.1585 5.82159 11.5515 6.79252 12.5737L6.44799 14.1182C6.33439 14.6265 6.68692 14.9683 7.14372 14.7139L8.65199 13.8726C9.36879 14.1838 10.1616 14.3558 10.9995 14.3558C14.1979 14.3558 16.7728 11.8657 16.7728 8.58219C16.7728 5.30033 14.1979 2.80859 10.9995 2.80859Z" fill="white"/>
</svg>
