<svg width="28" height="28" viewBox="0 0 28 28" fill="none" xmlns="http://www.w3.org/2000/svg">
<path d="M13.7565 23.3277H7.98675C7.68445 23.3278 7.38762 23.247 7.12702 23.0938C6.86641 22.9406 6.65151 22.7205 6.50455 22.4563C6.35759 22.1921 6.28393 21.8934 6.2912 21.5912C6.29846 21.289 6.38639 20.9942 6.54587 20.7374L6.93549 20.1093C6.03837 19.0621 5.38229 17.8307 5.01367 16.5019C4.64506 15.1732 4.5729 13.7797 4.80232 12.42C5.11005 10.5754 5.96844 8.867 7.26476 7.5191C8.56108 6.1712 10.2347 5.24685 12.0659 4.86742C13.4713 4.57145 14.926 4.60365 16.3169 4.9615C17.7078 5.31935 18.9973 5.99321 20.0854 6.93067C21.1734 7.86814 22.0305 9.04394 22.59 10.3666C23.1496 11.6893 23.3965 13.1233 23.3115 14.5569C23.1359 16.961 22.0492 19.2073 20.2735 20.8373C18.4977 22.4673 16.1668 23.3581 13.7565 23.3277ZM13.9892 6.37039C13.4559 6.37072 12.924 6.42426 12.4013 6.53022C10.907 6.84022 9.54132 7.59499 8.48379 8.69537C7.42626 9.79576 6.72631 11.1903 6.47589 12.6958C6.2863 13.8113 6.34562 14.955 6.64961 16.0449C6.95361 17.1349 7.49476 18.1441 8.23435 19.0005C8.46697 19.2765 8.60605 19.6191 8.63157 19.9792C8.65709 20.3392 8.56774 20.6981 8.37637 21.0041L7.98675 21.6318H13.7565C15.7341 21.6625 17.6488 20.9372 19.1098 19.6041C20.5708 18.271 21.468 16.4305 21.618 14.4584C21.6809 13.4186 21.5301 12.3769 21.1749 11.3976C20.8197 10.4183 20.2678 9.52213 19.553 8.76433C18.8382 8.00653 17.9758 7.40317 17.0189 6.99145C16.062 6.57972 15.0309 6.36836 13.9892 6.37039Z" fill="white"/>
<path d="M13.4931 10.3167L12.6647 12.2497C12.6355 12.3179 12.5869 12.376 12.5249 12.4169C12.463 12.4577 12.3904 12.4795 12.3162 12.4795H10.6711C10.5926 12.4795 10.516 12.5039 10.4519 12.5493C10.3878 12.5948 10.3394 12.659 10.3134 12.7331C10.2874 12.8073 10.285 12.8877 10.3067 12.9632C10.3284 13.0387 10.3729 13.1056 10.4343 13.1547L11.8704 14.3036C11.9294 14.3508 11.973 14.4146 11.9955 14.4868C12.018 14.5589 12.0184 14.6362 11.9967 14.7086L11.3385 16.9027C11.3155 16.9791 11.3173 17.0609 11.3435 17.1363C11.3698 17.2117 11.4192 17.2769 11.4846 17.3225C11.5501 17.3682 11.6283 17.3921 11.7081 17.3907C11.7879 17.3894 11.8653 17.3629 11.9291 17.315L13.6142 16.0512C13.6798 16.002 13.7596 15.9754 13.8416 15.9754C13.9237 15.9754 14.0035 16.002 14.0691 16.0512L15.7542 17.315C15.818 17.3629 15.8954 17.3894 15.9752 17.3907C16.055 17.3921 16.1332 17.3682 16.1987 17.3225C16.2641 17.2769 16.3135 17.2117 16.3397 17.1363C16.366 17.0609 16.3678 16.9791 16.3448 16.9027L15.6866 14.7086C15.6649 14.6362 15.6653 14.5589 15.6878 14.4867C15.7103 14.4146 15.7539 14.3508 15.8129 14.3036L17.249 13.1547C17.3104 13.1056 17.355 13.0387 17.3766 12.9632C17.3983 12.8877 17.3959 12.8073 17.3699 12.7331C17.3439 12.659 17.2955 12.5948 17.2314 12.5493C17.1674 12.5039 17.0907 12.4795 17.0122 12.4795H15.3671C15.2929 12.4795 15.2203 12.4577 15.1584 12.4169C15.0964 12.376 15.0478 12.3179 15.0186 12.2497L14.1901 10.3167C14.1609 10.2485 14.1123 10.1904 14.0503 10.1495C13.9884 10.1087 13.9158 10.0869 13.8416 10.0869C13.7674 10.0869 13.6949 10.1087 13.6329 10.1495C13.571 10.1904 13.5224 10.2485 13.4931 10.3167Z" fill="white"/>
</svg>
