<svg width="16" height="16" viewBox="0 0 16 16" fill="none" xmlns="http://www.w3.org/2000/svg">
<path d="M15.6578 5.69855L10.2938 0.334565C9.84753 -0.111725 9.14873 -0.111319 8.70282 0.334565L0.335152 8.70223C0.115585 8.9218 -0.00654209 9.22333 0.000270546 9.52918C0.00667692 9.82563 0.128054 10.0991 0.34234 10.3005L1.4848 11.443C1.68268 11.6413 1.99572 11.6643 2.22056 11.498C2.87661 11.0135 3.78969 11.0767 4.3447 11.6456C4.91327 12.2281 4.98246 13.1433 4.50545 13.7745C4.33526 13.9997 4.35714 14.3155 4.5567 14.5151L5.70632 15.6647C5.92023 15.8784 6.21158 16 6.50934 16C6.51724 16 6.52537 15.9998 6.53327 15.9996C6.82972 15.9932 7.10319 15.872 7.30463 15.6576L15.665 7.29667C15.8845 7.07729 16.0065 6.77594 15.9998 6.4699C15.9934 6.17346 15.8723 5.90002 15.6578 5.69855ZM9.50983 1.12817C9.50721 1.12967 9.50287 1.13042 9.49927 1.13117L9.10276 0.734667L9.50983 1.12817ZM6.50199 14.8611L5.67069 14.0298C6.17783 13.0018 5.9892 11.7118 5.15393 10.8558C4.32151 10.0035 3.02508 9.81056 1.97159 10.3307L1.13879 9.49809L9.49852 1.13855L14.8615 6.50156L6.50199 14.8611Z" fill="white"/>
<path d="M7.50663 2.26098L6.70215 3.05518L8.1531 4.52493L8.95758 3.73073L7.50663 2.26098Z" fill="white"/>
<path d="M12.2895 7.06046L11.4951 7.86523L12.9653 9.31641L13.7597 8.51164L12.2895 7.06046Z" fill="white"/>
<path d="M9.89707 4.65078L9.09766 5.4502L10.5675 6.92004L11.3669 6.12063L9.89707 4.65078Z" fill="white"/>
</svg>
