<svg width="24" height="24" viewBox="0 0 24 24" fill="none" xmlns="http://www.w3.org/2000/svg">
<path fill-rule="evenodd" clip-rule="evenodd" d="M5.11056 18.5217C4.57754 18.5217 4.13958 18.0882 4.13449 17.5552L4.00004 4.05583C3.99767 3.79577 4.0968 3.54997 4.27979 3.36324C4.46312 3.17651 4.70689 3.07228 4.96695 3.06957L7.22125 3.04716C7.27523 3.04614 7.3282 3.06787 7.36656 3.10623C7.40526 3.14426 7.42699 3.19654 7.42699 3.25086V3.26376C7.43276 3.83277 7.90162 4.29721 8.47232 4.29721L8.48319 4.29687C9.05966 4.29144 9.52411 3.81749 9.51833 3.24102V3.23049C9.51698 3.17617 9.53769 3.12355 9.57537 3.08417C9.6134 3.04512 9.66534 3.02272 9.71966 3.02238L11.9838 2.99997C12.5172 2.99997 12.9551 3.43352 12.9602 3.96688L13.0947 17.4662C13.1001 18.0043 12.6662 18.4467 12.1278 18.4521L9.87345 18.4745C9.82049 18.4752 9.76753 18.4542 9.72917 18.4165C9.69046 18.3785 9.66839 18.3269 9.66806 18.2729C9.66228 17.7022 9.19343 17.2374 8.62238 17.2374L8.61186 17.2377C8.03504 17.2432 7.5706 17.7171 7.57637 18.2936C7.57705 18.3476 7.556 18.3999 7.51832 18.4382C7.48029 18.4769 7.42869 18.499 7.37471 18.4993L5.11056 18.5217ZM5.19747 6.38618C5.08577 6.38618 4.99479 6.29621 4.99377 6.18451C4.99275 6.07214 5.08306 5.97979 5.19543 5.97877L5.77497 5.973H5.77734C5.8887 5.973 5.97969 6.06297 5.98071 6.17467C5.98206 6.28704 5.89176 6.37905 5.77904 6.38041L5.19951 6.38618C5.19883 6.38618 5.19815 6.38618 5.19747 6.38618ZM6.02858 14.1201C5.63271 14.1201 5.30408 13.7982 5.29593 13.4024L5.19068 8.15839C5.18695 7.96487 5.25892 7.78188 5.39404 7.64336C5.52917 7.50484 5.71012 7.42812 5.90398 7.4271L11.0624 7.40163H11.0661C11.462 7.40163 11.7906 7.72382 11.7988 8.11968L11.904 13.3637C11.9081 13.5572 11.8358 13.7402 11.7007 13.8787C11.5655 14.0172 11.3846 14.0939 11.1911 14.0949L6.03231 14.1201C6.03197 14.1201 6.02892 14.1201 6.02858 14.1201ZM11.0661 7.80904L5.90568 7.8345C5.82216 7.83484 5.74407 7.86811 5.68568 7.92787C5.62728 7.98762 5.59639 8.06638 5.59775 8.15024L5.70333 13.3939C5.70673 13.5697 5.85271 13.713 6.02858 13.713H6.03027L11.189 13.6875C11.2725 13.6872 11.3506 13.6539 11.409 13.5942C11.4674 13.5344 11.4983 13.4553 11.497 13.3718L11.3914 8.12783C11.3876 7.95197 11.242 7.80904 11.0661 7.80904ZM11.3174 15.5487C11.206 15.5487 11.115 15.4591 11.114 15.3474C11.1126 15.2347 11.203 15.1427 11.3153 15.1416L11.8952 15.1359H11.8972C12.0089 15.1359 12.0999 15.2255 12.1009 15.3375C12.102 15.4499 12.0116 15.5419 11.8993 15.5429L11.3194 15.5487C11.3187 15.5487 11.318 15.5487 11.3174 15.5487ZM9.81031 15.564C9.69895 15.564 9.60796 15.474 9.60661 15.3623C9.60559 15.2496 9.69589 15.1576 9.80827 15.1566L10.3881 15.1508H10.3902C10.5015 15.1508 10.5925 15.2404 10.5939 15.3525C10.5949 15.4648 10.5046 15.5569 10.3922 15.5582L9.81234 15.564C9.81167 15.564 9.81099 15.564 9.81031 15.564ZM8.30325 15.5789C8.19189 15.5789 8.10091 15.4889 8.09955 15.3773C8.09853 15.2645 8.18884 15.1725 8.30121 15.1715L8.88109 15.1657H8.88312C8.99448 15.1657 9.08547 15.2557 9.08649 15.3674C9.08784 15.4798 8.99754 15.5718 8.88516 15.5731L8.30529 15.5789C8.30461 15.5789 8.30393 15.5789 8.30325 15.5789ZM6.79619 15.5939C6.68484 15.5939 6.59385 15.5039 6.59249 15.3922C6.59147 15.2798 6.68178 15.1875 6.79416 15.1865L7.37403 15.1807H7.37607C7.48742 15.1807 7.57841 15.2706 7.57943 15.3823C7.58079 15.4947 7.49048 15.5867 7.3781 15.5881L6.79823 15.5939C6.79755 15.5939 6.79687 15.5939 6.79619 15.5939ZM5.28914 15.6088C5.17744 15.6088 5.08679 15.5188 5.08543 15.4071C5.08442 15.2948 5.17472 15.2024 5.2871 15.2014L5.86697 15.1956H5.86901C5.98037 15.1956 6.07135 15.2856 6.07237 15.3973C6.07373 15.5097 5.98342 15.602 5.87071 15.603L5.29117 15.6088C5.2905 15.6088 5.28982 15.6088 5.28914 15.6088ZM11.2257 6.32609C11.1143 6.32609 11.0234 6.23612 11.0223 6.12442C11.021 6.01205 11.1113 5.92004 11.224 5.91902L11.8035 5.91325H11.8056C11.9173 5.91325 12.0083 6.00288 12.0093 6.11458C12.0103 6.22729 11.92 6.3193 11.8076 6.32031L11.2277 6.32609C11.2271 6.32609 11.2264 6.32609 11.2257 6.32609ZM9.71864 6.34102C9.60728 6.34102 9.5163 6.2514 9.51494 6.13936C9.51392 6.02698 9.60423 5.93498 9.7166 5.93396L10.2965 5.92819H10.2985C10.4099 5.92819 10.5009 6.01782 10.5022 6.12985C10.5032 6.24223 10.4129 6.33423 10.3006 6.33525L9.72068 6.34102C9.72 6.34102 9.71932 6.34102 9.71864 6.34102ZM8.21158 6.3563C8.09989 6.3563 8.00924 6.26633 8.00788 6.15464C8.00686 6.04192 8.09717 5.94992 8.20955 5.9489L8.78942 5.94313C8.90315 5.94109 8.9938 6.03208 8.99482 6.14479C8.99618 6.25717 8.90587 6.34917 8.79349 6.35053L8.21362 6.3563C8.21294 6.3563 8.21226 6.3563 8.21158 6.3563ZM6.70453 6.37124C6.59283 6.37124 6.50184 6.28127 6.50083 6.16958C6.49981 6.05686 6.59012 5.96485 6.70249 5.96384L7.28236 5.95806C7.39372 5.95569 7.48674 6.04735 7.48776 6.15973C7.48912 6.27211 7.39881 6.36411 7.2861 6.36547L6.70656 6.37124C6.70589 6.37124 6.70521 6.37124 6.70453 6.37124Z" fill="white"/>
<path fill-rule="evenodd" clip-rule="evenodd" d="M12.0532 20.3798C11.8875 20.3798 11.7242 20.3374 11.5765 20.2542L9.61314 19.1464C9.56595 19.1199 9.53132 19.0758 9.51706 19.0235C9.50246 18.9716 9.50925 18.9159 9.53574 18.8687C9.54796 18.847 9.5595 18.8249 9.57037 18.8025C9.66339 18.8551 9.76965 18.8829 9.87762 18.8819L12.1319 18.8595C12.8951 18.852 13.5096 18.2253 13.5022 17.4621L13.3677 3.96278C13.366 3.78827 13.3317 3.62124 13.2706 3.4671L15.0299 4.45981C15.0771 4.48629 15.1121 4.53111 15.1263 4.58339C15.1406 4.63601 15.1331 4.69203 15.106 4.73922L15.0995 4.75009C14.9634 4.99147 14.9291 5.2736 15.0041 5.54283C15.0792 5.81205 15.2543 6.03579 15.4978 6.17295C15.7408 6.31011 16.023 6.34473 16.2922 6.2697C16.5614 6.19467 16.7852 6.01915 16.9223 5.77607L16.9277 5.76622C16.9539 5.71869 16.998 5.68372 17.0503 5.66878C17.1026 5.65385 17.1586 5.66063 17.2061 5.68746L19.1698 6.79526C19.6387 7.05973 19.805 7.65658 19.5402 8.12543L12.907 19.8835C12.779 20.1099 12.5702 20.2732 12.3183 20.3435C12.2307 20.3676 12.1418 20.3798 12.0532 20.3798Z" fill="white"/>
</svg>
