<svg width="18" height="18" viewBox="0 0 18 18" fill="none" xmlns="http://www.w3.org/2000/svg">
<rect width="18" height="18" rx="9" fill="#E5F4D9"/>
<path d="M14.5082 4.40113C14.224 4.13322 13.845 3.98916 13.4546 4.00064C13.0642 4.01211 12.6943 4.17817 12.4263 4.46231L7.61446 9.56418L5.56977 7.285C5.4405 7.14103 5.28414 7.02392 5.10961 6.94038C4.93509 6.85683 4.74581 6.80848 4.5526 6.79808C4.16239 6.77708 3.77982 6.91196 3.48905 7.17303C3.19828 7.4341 3.02313 7.79999 3.00213 8.1902C2.98113 8.58041 3.116 8.96298 3.37708 9.25375L6.49122 12.7251C6.62753 12.8763 6.79373 12.9977 6.97932 13.0814C7.16491 13.1652 7.36586 13.2095 7.56946 13.2116H7.58809C7.78877 13.2116 7.98733 13.1706 8.1716 13.0911C8.35586 13.0116 8.52194 12.8953 8.65965 12.7493L14.5694 6.48238C14.8371 6.19819 14.981 5.81935 14.9696 5.4291C14.9581 5.03885 14.7922 4.66912 14.5082 4.40113Z" fill="url(#paint0_linear_17_1114)"/>
<defs>
<linearGradient id="paint0_linear_17_1114" x1="11.6736" y1="9.73715" x2="6.29786" y2="4.36141" gradientUnits="userSpaceOnUse">
<stop stop-color="#13B601"/>
<stop offset="0.57" stop-color="#13B601"/>
<stop offset="1" stop-color="#CBF4B4"/>
</linearGradient>
</defs>
</svg>
