<svg width="25" height="24" viewBox="0 0 25 24" fill="none" xmlns="http://www.w3.org/2000/svg">
<path fill-rule="evenodd" clip-rule="evenodd" d="M5.44393 18.5218C4.91091 18.5218 4.47295 18.0882 4.46786 17.5552L4.33342 4.05586C4.33104 3.7958 4.43017 3.55 4.61317 3.36327C4.7965 3.17654 5.04026 3.07231 5.30032 3.0696L7.55463 3.04719C7.60861 3.04617 7.66157 3.0679 7.69993 3.10626C7.73864 3.14429 7.76037 3.19657 7.76037 3.25089V3.26379C7.76614 3.8328 8.23499 4.29724 8.8057 4.29724L8.81656 4.2969C9.39304 4.29147 9.85748 3.81752 9.85171 3.24105V3.23052C9.85035 3.1762 9.87106 3.12358 9.90874 3.0842C9.94677 3.04515 9.99871 3.02275 10.053 3.02241L12.3172 3C12.8505 3 13.2885 3.43355 13.2936 3.96691L13.428 17.4662C13.4335 18.0044 12.9996 18.4467 12.4611 18.4522L10.2068 18.4746C10.1539 18.4753 10.1009 18.4542 10.0625 18.4165C10.0238 18.3785 10.0018 18.3269 10.0014 18.2729C9.99566 17.7022 9.5268 17.2374 8.95576 17.2374L8.94523 17.2378C8.36842 17.2432 7.90398 17.7171 7.90975 18.2936C7.91043 18.3476 7.88938 18.3999 7.85169 18.4382C7.81367 18.477 7.76206 18.499 7.70808 18.4994L5.44393 18.5218ZM5.53085 6.38621C5.41915 6.38621 5.32816 6.29624 5.32714 6.18454C5.32612 6.07217 5.41643 5.97982 5.52881 5.9788L6.10834 5.97303H6.11072C6.22207 5.97303 6.31306 6.063 6.31408 6.1747C6.31544 6.28707 6.22513 6.37908 6.11241 6.38044L5.53288 6.38621C5.5322 6.38621 5.53152 6.38621 5.53085 6.38621ZM6.36195 14.1201C5.96609 14.1201 5.63745 13.7983 5.6293 13.4024L5.52406 8.15842C5.52032 7.9649 5.5923 7.78191 5.72742 7.64339C5.86254 7.50487 6.0435 7.42815 6.23735 7.42713L11.3958 7.40166H11.3995C11.7954 7.40166 12.124 7.72385 12.1322 8.11971L12.2374 13.3637C12.2415 13.5572 12.1692 13.7402 12.034 13.8787C11.8989 14.0172 11.718 14.094 11.5244 14.095L6.36568 14.1201C6.36535 14.1201 6.36229 14.1201 6.36195 14.1201ZM11.3995 7.80907L6.23905 7.83453C6.15553 7.83487 6.07745 7.86814 6.01905 7.9279C5.96066 7.98765 5.92976 8.06641 5.93112 8.15027L6.03671 13.3939C6.0401 13.5698 6.18609 13.713 6.36195 13.713H6.36365L11.5224 13.6876C11.6059 13.6872 11.684 13.654 11.7424 13.5942C11.8008 13.5345 11.8317 13.4554 11.8303 13.3718L11.7248 8.12786C11.721 7.952 11.5754 7.80907 11.3995 7.80907ZM11.6507 15.5487C11.5394 15.5487 11.4484 15.4591 11.4474 15.3474C11.446 15.2347 11.5363 15.1427 11.6487 15.1417L12.2286 15.1359H12.2306C12.3423 15.1359 12.4333 15.2255 12.4343 15.3376C12.4353 15.4499 12.345 15.5419 12.2326 15.543L11.6528 15.5487C11.6521 15.5487 11.6514 15.5487 11.6507 15.5487ZM10.1437 15.564C10.0323 15.564 9.94134 15.474 9.93998 15.3623C9.93896 15.2496 10.0293 15.1576 10.1416 15.1566L10.7215 15.1508H10.7236C10.8349 15.1508 10.9259 15.2405 10.9273 15.3525C10.9283 15.4649 10.838 15.5569 10.7256 15.5582L10.1457 15.564C10.145 15.564 10.1444 15.564 10.1437 15.564ZM8.63662 15.5789C8.52527 15.5789 8.43428 15.489 8.43292 15.3773C8.4319 15.2646 8.52221 15.1726 8.63459 15.1715L9.21446 15.1658H9.2165C9.32785 15.1658 9.41884 15.2557 9.41986 15.3674C9.42122 15.4798 9.33091 15.5718 9.21853 15.5732L8.63866 15.5789C8.63798 15.5789 8.6373 15.5789 8.63662 15.5789ZM7.12957 15.5939C7.01821 15.5939 6.92722 15.5039 6.92587 15.3922C6.92485 15.2798 7.01516 15.1875 7.12753 15.1865L7.7074 15.1807H7.70944C7.8208 15.1807 7.91178 15.2707 7.9128 15.3824C7.91416 15.4948 7.82385 15.5868 7.71148 15.5881L7.1316 15.5939C7.13093 15.5939 7.13025 15.5939 7.12957 15.5939ZM5.62251 15.6088C5.51081 15.6088 5.42017 15.5189 5.41881 15.4072C5.41779 15.2948 5.5081 15.2024 5.62047 15.2014L6.20035 15.1956H6.20238C6.31374 15.1956 6.40473 15.2856 6.40575 15.3973C6.4071 15.5097 6.3168 15.602 6.20408 15.6031L5.62455 15.6088C5.62387 15.6088 5.62319 15.6088 5.62251 15.6088ZM11.5591 6.32612C11.4477 6.32612 11.3567 6.23615 11.3557 6.12445C11.3544 6.01208 11.4447 5.92007 11.5574 5.91905L12.1369 5.91328H12.1389C12.2506 5.91328 12.3416 6.00291 12.3426 6.11461C12.3437 6.22732 12.2534 6.31933 12.141 6.32035L11.5611 6.32612C11.5604 6.32612 11.5598 6.32612 11.5591 6.32612ZM10.052 6.34105C9.94066 6.34105 9.84967 6.25143 9.84831 6.13939C9.84729 6.02701 9.9376 5.93501 10.05 5.93399L10.6299 5.92822H10.6319C10.7432 5.92822 10.8342 6.01785 10.8356 6.12988C10.8366 6.24226 10.7463 6.33426 10.6339 6.33528L10.0541 6.34105C10.0534 6.34105 10.0527 6.34105 10.052 6.34105ZM8.54496 6.35633C8.43326 6.35633 8.34261 6.26636 8.34126 6.15467C8.34024 6.04195 8.43055 5.94995 8.54292 5.94893L9.12279 5.94316C9.23653 5.94112 9.32717 6.03211 9.32819 6.14482C9.32955 6.2572 9.23924 6.3492 9.12687 6.35056L8.547 6.35633C8.54632 6.35633 8.54564 6.35633 8.54496 6.35633ZM7.0379 6.37127C6.92621 6.37127 6.83522 6.2813 6.8342 6.16961C6.83318 6.05689 6.92349 5.96488 7.03586 5.96387L7.61574 5.9581C7.72709 5.95572 7.82012 6.04738 7.82114 6.15976C7.82249 6.27214 7.73219 6.36414 7.61947 6.3655L7.03994 6.37127C7.03926 6.37127 7.03858 6.37127 7.0379 6.37127Z" fill="#757575"/>
<path fill-rule="evenodd" clip-rule="evenodd" d="M12.3865 20.3799C12.2209 20.3799 12.0576 20.3374 11.9099 20.2543L9.94652 19.1465C9.89933 19.12 9.8647 19.0758 9.85044 19.0236C9.83584 18.9716 9.84263 18.9159 9.86911 18.8687C9.88133 18.847 9.89288 18.825 9.90374 18.8025C9.99676 18.8552 10.103 18.883 10.211 18.882L12.4653 18.8596C13.2285 18.8521 13.843 18.2254 13.8355 17.4622L13.7011 3.96284C13.6994 3.78833 13.6651 3.6213 13.604 3.46716L15.3633 4.45987C15.4105 4.48635 15.4455 4.53117 15.4597 4.58345C15.474 4.63607 15.4665 4.69209 15.4393 4.73928L15.4329 4.75015C15.2968 4.99153 15.2625 5.27366 15.3375 5.54289C15.4125 5.81211 15.5877 6.03585 15.8311 6.17301C16.0742 6.31017 16.3563 6.3448 16.6256 6.26977C16.8948 6.19474 17.1185 6.01921 17.2557 5.77613L17.2611 5.76628C17.2873 5.71875 17.3314 5.68378 17.3837 5.66884C17.436 5.65391 17.492 5.6607 17.5395 5.68752L19.5032 6.79532C19.9721 7.05979 20.1384 7.65664 19.8736 8.12549L13.2404 19.8835C13.1124 20.11 12.9036 20.2733 12.6517 20.3436C12.5641 20.3677 12.4751 20.3799 12.3865 20.3799Z" fill="#757575"/>
</svg>
