<svg width="18" height="12" viewBox="0 0 18 12" fill="none" xmlns="http://www.w3.org/2000/svg">
<path d="M17.0303 3.96835L14.0303 0.968346C13.8888 0.831728 13.6993 0.756132 13.5027 0.757841C13.3061 0.75955 13.1179 0.838426 12.9789 0.977482C12.8398 1.11654 12.761 1.30465 12.7592 1.5013C12.7575 1.69794 12.8331 1.88739 12.9697 2.02885L14.6894 3.7486H4.5C4.30109 3.7486 4.11032 3.82761 3.96967 3.96827C3.82902 4.10892 3.75 4.29968 3.75 4.4986C3.75 4.69751 3.82902 4.88827 3.96967 5.02893C4.11032 5.16958 4.30109 5.2486 4.5 5.2486H16.5C16.6483 5.24856 16.7933 5.20456 16.9166 5.12215C17.0399 5.03973 17.136 4.92261 17.1928 4.78559C17.2495 4.64856 17.2644 4.49779 17.2354 4.35232C17.2065 4.20686 17.1351 4.07324 17.0303 3.96835Z" fill="white"/>
<path d="M13.4998 6.75H1.49984C1.35153 6.75003 1.20655 6.79404 1.08325 6.87645C0.959939 6.95886 0.863834 7.07598 0.807082 7.21301C0.750329 7.35003 0.735477 7.50081 0.764403 7.64627C0.793328 7.79174 0.864733 7.92536 0.96959 8.03025L3.96959 11.0303C4.11104 11.1669 4.30049 11.2425 4.49714 11.2408C4.69379 11.239 4.8819 11.1602 5.02095 11.0211C5.16001 10.8821 5.23889 10.6939 5.2406 10.4973C5.2423 10.3007 5.16671 10.1112 5.03009 9.96975L3.31042 8.25H13.4998C13.6988 8.25 13.8895 8.17098 14.0302 8.03033C14.1708 7.88968 14.2498 7.69891 14.2498 7.5C14.2498 7.30109 14.1708 7.11032 14.0302 6.96967C13.8895 6.82902 13.6988 6.75 13.4998 6.75Z" fill="white"/>
</svg>
