<svg width="24" height="24" viewBox="0 0 24 24" fill="none" xmlns="http://www.w3.org/2000/svg">
<path d="M13.6667 5.77778H13.1333C12.8935 5.77787 12.6561 5.82651 12.4355 5.92076C12.2149 6.01501 12.0157 6.15294 11.8498 6.32622L8.54578 9.77778H4.77778V14.2222H8.54578L11.8498 17.6738C12.0157 17.8471 12.2149 17.985 12.4355 18.0792C12.6561 18.1735 12.8935 18.2221 13.1333 18.2222H13.6667V5.77778ZM7.78667 8L10.5644 5.09689C10.8965 4.74999 11.2954 4.47396 11.7371 4.28544C12.1787 4.09692 12.654 3.99982 13.1342 4H14.5556C14.7913 4 15.0174 4.09365 15.1841 4.26035C15.3508 4.42705 15.4444 4.65314 15.4444 4.88889V19.1111C15.4444 19.3469 15.3508 19.573 15.1841 19.7397C15.0174 19.9064 14.7913 20 14.5556 20H13.1333C12.6534 19.9999 12.1785 19.9027 11.7371 19.7142C11.2958 19.5257 10.8972 19.2498 10.5653 18.9031L7.78667 16H4.77778C4.30628 16 3.8541 15.8127 3.5207 15.4793C3.1873 15.1459 3 14.6937 3 14.2222V9.77778C3 9.30628 3.1873 8.8541 3.5207 8.5207C3.8541 8.1873 4.30628 8 4.77778 8H7.78667ZM17.2222 10.2222C16.9865 10.2222 16.7604 10.1286 16.5937 9.96187C16.427 9.79517 16.3333 9.56908 16.3333 9.33333C16.3333 9.09759 16.427 8.87149 16.5937 8.70479C16.7604 8.5381 16.9865 8.44444 17.2222 8.44444C18.1652 8.44444 19.0696 8.81905 19.7364 9.48584C20.4032 10.1526 20.7778 11.057 20.7778 12C20.7778 12.943 20.4032 13.8474 19.7364 14.5142C19.0696 15.181 18.1652 15.5556 17.2222 15.5556C16.9865 15.5556 16.7604 15.4619 16.5937 15.2952C16.427 15.1285 16.3333 14.9024 16.3333 14.6667C16.3333 14.4309 16.427 14.2048 16.5937 14.0381C16.7604 13.8714 16.9865 13.7778 17.2222 13.7778C17.6937 13.7778 18.1459 13.5905 18.4793 13.2571C18.8127 12.9237 19 12.4715 19 12C19 11.5285 18.8127 11.0763 18.4793 10.7429C18.1459 10.4095 17.6937 10.2222 17.2222 10.2222Z" fill="white"/>
</svg>
