<svg width="24" height="24" viewBox="0 0 24 24" fill="none" xmlns="http://www.w3.org/2000/svg">
<path fill-rule="evenodd" clip-rule="evenodd" d="M21.4817 7.82581L22.9999 10.8459L19.8065 13.8678L20.1861 12.4973L21.9324 10.8459L21.1021 9.19441L21.4817 7.82581Z" fill="#0E8635"/>
<path fill-rule="evenodd" clip-rule="evenodd" d="M20.4142 7.82581L21.9324 10.8459L18.7372 13.8678L20.4142 7.82581Z" fill="#E97208"/>
<path d="M0.810253 15.0137H0.98726L0.823027 15.698C0.799304 15.8002 0.802954 15.8768 0.837625 15.9279C0.870472 15.979 0.93434 16.0046 1.02558 16.0046C1.11682 16.0046 1.18981 15.979 1.24821 15.9279C1.3066 15.8768 1.34675 15.8002 1.37229 15.698L1.53653 15.0137H1.71536L1.54565 15.7162C1.50916 15.8695 1.44346 15.9827 1.3504 16.0593C1.25733 16.136 1.13507 16.1725 0.98361 16.1725C0.832151 16.1725 0.728137 16.1341 0.671567 16.0593C0.614998 15.9845 0.605874 15.8695 0.642371 15.7162L0.810253 15.0137ZM17.7372 13.8422H16.5365L18.2062 7.81482H19.4069L17.7372 13.8422ZM7.75548 13.4644C7.68979 13.7017 7.47081 13.8695 7.22446 13.8695H1.03288C0.863173 13.8695 0.737261 13.8111 0.655144 13.698C0.573028 13.583 0.55478 13.4407 0.60405 13.271L2.11317 7.83124H3.31389L1.96718 12.6907H6.77191L8.12044 7.83124H9.32117L7.75548 13.4644ZM17.1149 8.0046C17.0328 7.88964 16.9033 7.83307 16.7299 7.83307H10.1296L9.80474 9.01554H15.8084L15.458 10.2765H10.6533V10.2728H9.45255L8.45621 13.8714H9.65693L10.3248 11.4571H15.7226C15.8923 11.4571 16.0511 11.4006 16.1989 11.2856C16.3467 11.1706 16.4452 11.0283 16.4908 10.8586L17.1587 8.44438C17.2135 8.26372 17.1971 8.11956 17.1149 8.0046ZM22.0729 16.1414L22.343 15.0137H22.9562L22.9197 15.1688H22.4853L22.4178 15.4517H22.8521L22.8138 15.6122H22.3795L22.2919 15.9772H22.7262L22.6879 16.1414H22.0729ZM22.0547 15.2874C22.0145 15.2436 21.9689 15.2108 21.9178 15.1889C21.8667 15.167 21.8102 15.156 21.7481 15.156C21.6277 15.156 21.52 15.1962 21.427 15.2746C21.3321 15.3531 21.27 15.4571 21.2408 15.583C21.2116 15.7053 21.2244 15.8057 21.2792 15.8841C21.3339 15.9626 21.416 16.0027 21.5292 16.0027C21.5948 16.0027 21.6587 15.99 21.7226 15.9662C21.7864 15.9425 21.8521 15.906 21.9178 15.8586L21.8686 16.0666C21.812 16.1013 21.7536 16.1287 21.6934 16.1451C21.6332 16.1615 21.5693 16.1706 21.5036 16.1706C21.4197 16.1706 21.3448 16.156 21.281 16.1287C21.2171 16.1013 21.1642 16.0593 21.1222 16.0046C21.0821 15.9516 21.0547 15.8878 21.0438 15.8148C21.0328 15.7418 21.0365 15.6633 21.0565 15.5812C21.0766 15.4991 21.1094 15.4206 21.1551 15.3476C21.2007 15.2746 21.2591 15.2108 21.3266 15.156C21.3941 15.1013 21.4671 15.0593 21.5437 15.0301C21.6204 15.0009 21.7007 14.9881 21.7828 14.9881C21.8467 14.9881 21.9069 14.9973 21.9598 15.0173C22.0127 15.0374 22.0638 15.0666 22.1094 15.1049L22.0547 15.2874ZM20.7025 16.1414L20.6478 15.8513H20.2116L20.0146 16.1414H19.8266L20.6405 14.9681L20.8923 16.1414H20.7025ZM20.3138 15.698H20.6204L20.5693 15.4407C20.5675 15.4243 20.5638 15.406 20.562 15.3841C20.5602 15.3622 20.5584 15.3385 20.5584 15.313C20.5456 15.3367 20.5346 15.3604 20.5219 15.3823C20.5109 15.4042 20.4981 15.4225 20.4872 15.4407L20.3138 15.698ZM19.2244 16.1414L19.4945 15.0137H20.1076L20.0711 15.1688H19.6368L19.5693 15.4498H20.0036L19.9653 15.6104H19.531L19.4032 16.1414H19.2244ZM18.6496 15.6378L18.5292 16.1433H18.3613L18.6314 15.0155H18.8813C18.9543 15.0155 19.0091 15.021 19.0474 15.0301C19.0857 15.0392 19.1168 15.0557 19.1386 15.0794C19.166 15.1068 19.1843 15.1414 19.1916 15.1852C19.1989 15.229 19.197 15.2765 19.1861 15.3276C19.1642 15.4188 19.1259 15.4881 19.0711 15.5392C19.0164 15.5903 18.9452 15.6214 18.8613 15.6305L19.1168 16.1433H18.9142L18.6697 15.6378H18.6496ZM18.6952 15.4936H18.7281C18.823 15.4936 18.8886 15.4827 18.9251 15.459C18.9616 15.4371 18.9872 15.3969 19 15.3385C19.0146 15.2765 19.0091 15.2327 18.9817 15.2071C18.9543 15.1816 18.8959 15.1688 18.8065 15.1688H18.7737L18.6952 15.4936ZM17.5438 16.1414L17.8138 15.0137H18.427L18.3905 15.1688H17.9562L17.8887 15.4517H18.323L18.2846 15.6122H17.8503L17.7627 15.9772H18.197L18.1569 16.1414H17.5438ZM17.3485 15.1688L17.1149 16.1414H16.9361L17.1697 15.1688H16.8777L16.9142 15.0137H17.6751L17.6387 15.1688H17.3485ZM15.5255 16.1414L15.8065 14.9681L16.3394 15.6579C16.354 15.6779 16.3686 15.698 16.3814 15.7199C16.396 15.7418 16.4106 15.7673 16.4252 15.7947L16.6131 15.0119H16.7792L16.4981 16.1834L15.9525 15.4808C15.9379 15.4626 15.9252 15.4425 15.9124 15.4206C15.8996 15.3987 15.8887 15.3768 15.8777 15.3549L15.6898 16.1396H15.5255V16.1414ZM15.0894 16.1414L15.3595 15.0137H15.5383L15.2682 16.1414H15.0894ZM13.7682 15.9152L13.927 15.8476C13.9288 15.8987 13.9434 15.9371 13.9744 15.9626C14.0036 15.9881 14.0474 16.0027 14.104 16.0027C14.1569 16.0027 14.2025 15.9881 14.2409 15.9571C14.2792 15.9261 14.3047 15.886 14.3175 15.8349C14.3339 15.7692 14.2938 15.7089 14.1989 15.6579C14.1861 15.6506 14.1752 15.6451 14.1679 15.6414C14.062 15.5812 13.9927 15.5265 13.9653 15.4772C13.9361 15.4279 13.9306 15.3677 13.9489 15.2965C13.9708 15.2053 14.0182 15.1305 14.093 15.0739C14.1679 15.0173 14.2536 14.9881 14.3522 14.9881C14.4325 14.9881 14.4963 15.0046 14.5438 15.0356C14.5912 15.0684 14.6168 15.1141 14.6241 15.1743L14.4671 15.2491C14.4525 15.2144 14.4361 15.1871 14.4124 15.1706C14.3905 15.1542 14.3613 15.1469 14.3284 15.1469C14.281 15.1469 14.239 15.1597 14.2044 15.1852C14.1697 15.2108 14.1478 15.2454 14.1368 15.2892C14.1204 15.3568 14.1679 15.4206 14.2774 15.479C14.2865 15.4845 14.292 15.4863 14.2974 15.49C14.3941 15.5411 14.4562 15.5922 14.4854 15.6414C14.5146 15.6907 14.5201 15.7509 14.5018 15.8257C14.4763 15.9334 14.4233 16.0173 14.343 16.0812C14.2628 16.1433 14.166 16.1761 14.0547 16.1761C13.9617 16.1761 13.8887 16.1542 13.8412 16.1104C13.792 16.0611 13.7682 15.9991 13.7682 15.9152ZM13.5821 15.1688L13.3503 16.1414H13.1715L13.4051 15.1688H13.1131L13.1514 15.0137H13.9124L13.8759 15.1688H13.5821ZM11.7591 16.1414L12.0401 14.9681L12.573 15.6579C12.5876 15.6779 12.6022 15.698 12.615 15.7199C12.6295 15.7418 12.6441 15.7673 12.6587 15.7947L12.8467 15.0119H13.0128L12.7317 16.1834L12.1861 15.4808C12.1715 15.4626 12.1587 15.4425 12.146 15.4206C12.1332 15.3987 12.1223 15.3768 12.1113 15.3549L11.9233 16.1396H11.7591V16.1414ZM10.9398 16.1414L11.2098 15.0137H11.823L11.7865 15.1688H11.3522L11.2847 15.4517H11.719L11.6806 15.6122H11.2463L11.1588 15.9772H11.5931L11.5529 16.1414H10.9398ZM10.6423 15.5849C10.6423 15.5757 10.6442 15.552 10.6496 15.5119C10.6533 15.479 10.6569 15.4517 10.6588 15.4298C10.6478 15.4553 10.635 15.4808 10.6204 15.5064C10.6058 15.5319 10.5894 15.5575 10.5712 15.5849L10.1387 16.1852L9.99817 15.5721C9.9927 15.5465 9.98722 15.5228 9.9854 15.4991C9.98175 15.4754 9.97993 15.4517 9.97993 15.4298C9.97445 15.4535 9.96533 15.4772 9.9562 15.5046C9.94708 15.5301 9.93613 15.5575 9.92153 15.5867L9.66971 16.1414H9.50547L10.0474 14.9644L10.2007 15.6761C10.2026 15.6871 10.2062 15.7071 10.2099 15.7327C10.2135 15.7582 10.219 15.7911 10.2244 15.8294C10.2427 15.7965 10.2682 15.7564 10.3029 15.7053C10.312 15.6925 10.3193 15.6816 10.323 15.6743L10.8102 14.9626L10.7938 16.1396H10.6314L10.6423 15.5849ZM8.93796 16.1414L9.06205 15.625L8.83759 15.0137H9.02555L9.16424 15.3969C9.16788 15.406 9.17153 15.4206 9.17518 15.4352C9.17883 15.4517 9.18431 15.4681 9.18796 15.4863C9.19891 15.4681 9.21168 15.4517 9.22263 15.4352C9.23358 15.4188 9.24635 15.4042 9.2573 15.3914L9.58394 15.0137H9.76277L9.23723 15.625L9.11314 16.1414H8.93796ZM8.4927 16.1414L8.43796 15.8513H8.00183L7.80475 16.1414H7.6168L8.43066 14.9681L8.68248 16.1414H8.4927ZM8.10402 15.698H8.41059L8.35949 15.4407C8.35767 15.4243 8.35402 15.406 8.35219 15.3841C8.35037 15.3622 8.34854 15.3385 8.34854 15.313C8.3376 15.3367 8.32482 15.3604 8.31205 15.3823C8.3011 15.4042 8.28833 15.4225 8.27738 15.4407L8.10402 15.698ZM7.32118 15.636L7.20074 16.1433H7.03286L7.30293 15.0155H7.573C7.65329 15.0155 7.71169 15.0192 7.74636 15.0283C7.78103 15.0374 7.81205 15.052 7.83395 15.0721C7.86132 15.0976 7.88139 15.1341 7.88869 15.1779C7.89782 15.2217 7.89599 15.271 7.88322 15.3239C7.87044 15.3768 7.84855 15.4261 7.81935 15.4717C7.78833 15.5173 7.75366 15.552 7.71351 15.5776C7.68066 15.5976 7.64417 15.6122 7.60402 15.6214C7.56388 15.6305 7.50366 15.6341 7.42337 15.6341H7.32118V15.636ZM7.3668 15.4845H7.41242C7.51096 15.4845 7.5803 15.4735 7.61862 15.4517C7.65694 15.4298 7.68249 15.3914 7.69709 15.3349C7.71169 15.2746 7.70439 15.2327 7.67519 15.2071C7.64599 15.1816 7.58395 15.1706 7.48906 15.1706H7.44344L7.3668 15.4845ZM5.42885 16.1414L5.69892 15.0137H5.9398C6.09673 15.0137 6.20439 15.021 6.26461 15.0374C6.32483 15.0538 6.3741 15.0812 6.41242 15.1195C6.46352 15.1688 6.49636 15.2327 6.51096 15.3111C6.52556 15.3896 6.52008 15.479 6.49636 15.5794C6.47264 15.6798 6.43432 15.7692 6.38322 15.8458C6.33213 15.9225 6.26826 15.9863 6.19344 16.0374C6.13687 16.0757 6.07483 16.1031 6.00914 16.1195C5.94344 16.136 5.84673 16.1433 5.71717 16.1433H5.42885V16.1414ZM5.64783 15.9754H5.79746C5.87958 15.9754 5.94344 15.9699 5.98724 15.9589C6.03104 15.948 6.07118 15.9279 6.1095 15.9024C6.1606 15.8659 6.20257 15.8203 6.23541 15.7655C6.27009 15.7108 6.29563 15.6487 6.31206 15.5757C6.32848 15.5046 6.33395 15.4407 6.32665 15.386C6.31936 15.3312 6.29928 15.2856 6.26644 15.2491C6.24089 15.2217 6.20987 15.2035 6.1679 15.1925C6.12775 15.1816 6.06023 15.1761 5.96899 15.1761H5.83943L5.64783 15.9754ZM4.60951 16.1414L4.87958 15.0137H5.49272L5.45622 15.1688H5.02192L4.9544 15.4517H5.3887L5.35038 15.6122H4.91608L4.82849 15.9772H5.26279L5.22264 16.1414H4.60951ZM4.17338 16.1414L4.44345 15.0137H4.62228L4.35221 16.1414H4.17338ZM3.36316 16.1414L3.63323 15.0137H4.24637L4.20987 15.1688H3.77557L3.70805 15.4498H4.14236L4.10404 15.6104H3.66973L3.54199 16.1414H3.36316ZM2.92886 16.1414L3.19893 15.0137H3.37776L3.10769 16.1414H2.92886ZM1.68981 16.1414L1.97083 14.9681L2.50368 15.6579C2.51828 15.6779 2.53287 15.698 2.54565 15.7199C2.56025 15.7418 2.57484 15.7673 2.58944 15.7947L2.7774 15.0119H2.94346L2.66244 16.1834L2.11864 15.4808C2.10404 15.4626 2.09127 15.4425 2.0785 15.4206C2.06572 15.3987 2.05477 15.3768 2.04382 15.3549L1.85404 16.1414H1.68981Z" fill="#8F8F8F"/>
</svg>
