<svg width="24" height="24" viewBox="0 0 24 24" fill="none" xmlns="http://www.w3.org/2000/svg">
<path d="M14.9091 8.36364C14.4727 8.36364 14.1818 8.65455 14.1818 9.09091C13.6 8.65455 12.8 8.36364 12 8.36364C9.96364 8.36364 8.36364 9.96364 8.36364 12C8.36364 14.0364 9.96364 15.6364 12 15.6364C13.2364 15.6364 14.3273 14.9818 14.9818 14.0364C15.4909 14.5455 16.2182 14.9091 17.0909 14.9091C18.6909 14.9091 20 13.6 20 12C20 7.56364 16.4364 4 12 4C7.56364 4 4 7.56364 4 12C4 16.4364 7.56364 20 12 20C13.8909 20 15.7818 19.3455 17.2364 18.0364C17.5273 17.7455 17.6 17.3091 17.3091 17.0182C17.0182 16.7273 16.5818 16.6545 16.2909 16.9455C15.0545 17.9636 13.6 18.5455 12 18.5455C8.36364 18.5455 5.45455 15.6364 5.45455 12C5.45455 8.36364 8.36364 5.45455 12 5.45455C15.6364 5.45455 18.5455 8.36364 18.5455 12C18.5455 12.8 17.8909 13.4545 17.0909 13.4545C16.2909 13.4545 15.6364 12.8 15.6364 12V9.09091C15.6364 8.65455 15.3455 8.36364 14.9091 8.36364ZM12 14.1818C10.7636 14.1818 9.81818 13.2364 9.81818 12C9.81818 10.7636 10.7636 9.81818 12 9.81818C13.2364 9.81818 14.1818 10.7636 14.1818 12C14.1818 13.2364 13.2364 14.1818 12 14.1818Z" fill="white"/>
</svg>
